<svg xmlns="http://www.w3.org/2000/svg" version="1.1" xmlns:xlink="http://www.w3.org/1999/xlink" xmlns:svgjs="http://svgjs.dev/svgjs" width="100%" height="100%" viewBox="0 0 1000 600"><rect width="1000" height="600" x="0" y="0" fill="#e2d3f4"/><g><circle r="166.66666666666666" cx="436.50190226236975" cy="458.72409137408806" fill="#013dc4" transform="matrix(0.46324574063109236,0,0,0.46324574063109236,0,87.49803380487472)"/><path d="M398.85352819333536 533.7240679244776L398.85352819333536 533.7240679244776Q391.9287118731302 533.7240679244776 386.44538792978415 528.5233895452214Q380.933799430029 523.3509757223744 380.933799430029 510.91457090241414L380.933799430029 510.91457090241414Q380.933799430029 502.774378656622 383.27975761197604 492.8252548006538Q385.6257157939231 482.8478663882766 388.98919800659417 472.16386406567443Q392.32441566285627 461.4798617430722 395.8009561011633 451.502473330695Q399.24923198306135 441.5250849183178 401.4821319393724 433.38489267252567Q403.74329645209247 425.2447004267335 403.74329645209247 420.58104861924846L403.74329645209247 420.58104861924846Q403.74329645209247 415.0694601194933 399.44708387792434 415.0694601194933L399.44708387792434 415.0694601194933Q394.3594637243043 415.0694601194933 389.8936638116822 420.86369418333845Q385.4278638990601 426.6861928035926 379.916275399305 437.05928500569576L379.916275399305 437.05928500569576L378.700899473718 436.6353166595607Q378.700899473718 420.58104861924846 387.2367955092361 408.6534058146502Q395.8009561011633 396.754027566461 410.35720265179856 390.2531795923909Q424.88518464602487 383.72406706191174 442.8049134093312 383.72406706191174L442.8049134093312 383.72406706191174Q460.9224940675005 383.72406706191174 472.2000520746917 389.9422694718919Q483.50587463829197 396.160471881872 488.90440491241105 406.0248020686132Q494.30293518653014 415.88913225535435 494.30293518653014 427.08189659331856L494.30293518653014 427.08189659331856Q494.30293518653014 436.6353166595607 490.7416010789961 446.10394305657593Q487.180266971462 455.5725694535911 480.56636077175585 463.31705790965725Q473.95245457204976 471.0332818093144 464.9925901903966 475.72519817320847Q456.0327258087434 480.3888499806936 445.23566526050524 480.3888499806936L445.23566526050524 480.3888499806936Q434.042900922541 480.3888499806936 422.0587290051248 474.70767414248445L422.0587290051248 474.70767414248445Q419.40186070267873 484.68506255486164 417.3668126412307 494.94509653132883Q415.33176457978266 505.233395064205 415.33176457978266 516.0021910560342L415.33176457978266 516.0021910560342Q415.33176457978266 521.3159276609263 415.9535848207807 526.6013997094094L415.9535848207807 526.6013997094094Q412.47704438247365 530.0496755913075 407.89818624421554 531.8868717578925Q403.3193281059574 533.7240679244776 398.85352819333536 533.7240679244776ZM431.41429717650396 460.0383693662132L431.41429717650396 460.0383693662132Q439.5544894222961 460.0383693662132 445.6596336066402 455.4595112279551Q451.76477779098434 450.88065308969703 455.12826000365544 443.8710431002649Q458.4634776599175 436.86143311083276 458.4634776599175 429.73876489576463L458.4634776599175 429.73876489576463Q458.4634776599175 421.37245619870043 453.0932119422074 414.87160822463034Q447.69468166808826 408.37076025056024 435.48439329940004 408.37076025056024L435.48439329940004 408.37076025056024Q433.845049027678 408.37076025056024 431.72520729700295 408.56861214542323Q429.5771010099189 408.7664640402862 427.3442010536079 409.1621678300122L427.3442010536079 409.1621678300122Q428.95528076892094 414.24978798363236 429.4640427842829 419.2526144680254Q429.9728047996449 424.2271763960095 429.9728047996449 428.9190927599036L429.9728047996449 428.9190927599036Q429.9728047996449 437.05928500569576 428.75742887405795 444.5776570104899Q427.5420529484709 452.12429357169304 425.9027086767489 459.44481368162417L425.9027086767489 459.44481368162417Q428.75742887405795 460.0383693662132 431.41429717650396 460.0383693662132Z " fill="#e2d3f4" transform="matrix(0.46324574063109236,0,0,0.46324574063109236,0,87.49803380487472)"/><path d="M702.4218338384562 502.21915507205443L702.4218338384562 502.21915507205443Q696.9514557745892 502.21915507205443 692.6198094709559 498.1107895057218Q688.2658350935926 494.02475201311927 688.2658350935926 484.200399571889L688.2658350935926 484.200399571889Q688.2658350935926 477.76991433762925 690.1190652131884 469.9104323846451Q691.972295332784 462.02862235793083 694.6293361066622 453.5886104879649Q697.2640488068103 445.1485986179989 700.0104018756087 437.2667885912847Q702.7344268706771 429.3849785645705 704.4983446953526 422.9544933303107Q706.284590593758 416.5240080960509 706.284590593758 412.8398759305896L706.284590593758 412.8398759305896Q706.284590593758 408.4859015532262 702.8907233867876 408.4859015532262L702.8907233867876 408.4859015532262Q698.8716701153753 408.4859015532262 695.3438344660244 413.06315666789027Q691.8159988166735 417.6627398562844 687.4620244393102 425.85714291521964L687.4620244393102 425.85714291521964L686.5019172689172 425.52222180926856Q686.5019172689172 412.8398759305896 693.244995535398 403.4174288165006Q700.0104018756087 394.0173097761417 711.5093598465942 388.8818528182259Q722.9859897438494 383.72406778658006 737.141988488713 383.72406778658006L737.141988488713 383.72406778658006Q751.454283749687 383.72406778658006 760.3631851679843 388.63624400719516Q769.2944146600119 393.54842022781025 773.5590767424549 401.3409179596042Q777.8237388248981 409.1334156913982 777.8237388248981 417.97533288850536L777.8237388248981 417.97533288850536Q777.8237388248981 425.52222180926856 775.0104015349093 433.00212650884157Q772.1970642449207 440.4820312084146 766.9722949920847 446.5999234104534Q761.7475257392487 452.69548753876217 754.6695263668169 456.4019477779535Q747.591526994385 460.08607994341486 739.0622028294988 460.08607994341486L739.0622028294988 460.08607994341486Q730.2202856323917 460.08607994341486 720.7531823708425 455.59813712367105L720.7531823708425 455.59813712367105Q718.654343440216 463.4799471503853 717.0467221316511 471.58503791440023Q715.4391008230862 479.7124567521452 715.4391008230862 488.2194528433014L715.4391008230862 488.2194528433014Q715.4391008230862 492.4171307045543 715.9303184451477 496.59248049207713L715.9303184451477 496.59248049207713Q713.1839653763493 499.3165054871455 709.5668174320781 500.7678302796Q705.949669487807 502.21915507205443 702.4218338384562 502.21915507205443ZM728.1437747754953 444.0098668577654L728.1437747754953 444.0098668577654Q734.574260009755 444.0098668577654 739.3971239354498 440.3927189134943Q744.2199878611447 436.77557096922317 746.8770286350228 431.2382086841662Q749.511741335171 425.70084639910914 749.511741335171 420.07417181913183L749.511741335171 420.07417181913183Q749.511741335171 413.46506199503153 745.2694073264579 408.3296050371157Q741.0047452440148 403.1941480791999 731.3590173926252 403.1941480791999L731.3590173926252 403.1941480791999Q730.0639891162812 403.1941480791999 728.389383586526 403.3504445953104Q726.6924499830408 403.50674111142087 724.9285321583654 403.81933414364187L724.9285321583654 403.81933414364187Q726.2012323609792 407.8383874150542 726.6031376881206 411.79045646527635Q727.0050430152617 415.72019744176845 727.0050430152617 419.42665768095986L727.0050430152617 419.42665768095986Q727.0050430152617 425.85714291521964 726.0449358448689 431.7964105274179Q725.0848286744758 437.7580062133462 723.7898003981319 443.540977309434L723.7898003981319 443.540977309434Q726.0449358448689 444.0098668577654 728.1437747754953 444.0098668577654ZM821.2295141561515 502.6880446203859L821.2295141561515 502.6880446203859Q809.4849473741353 502.6880446203859 801.7594338635316 497.9544929896113Q794.0562484266579 493.22094135883674 790.193491671356 485.4061155533127Q786.3307349160542 477.61361782151874 786.3307349160542 468.6154041083011L786.3307349160542 468.6154041083011Q786.3307349160542 460.08607994341486 789.6352898281043 451.48977155733843Q792.9175166664245 442.893463171262 799.281017679494 435.81546379883025Q805.6221906188335 428.7374644263985 814.7097166269714 424.40581812276514Q823.7972426351093 420.07417181913183 835.2068883111745 420.07417181913183L835.2068883111745 420.07417181913183Q849.362887056038 420.07417181913183 855.860356511488 426.41534475847135Q862.380154040668 432.7565176978108 862.380154040668 441.7770594847586L862.380154040668 441.7770594847586Q862.380154040668 449.4802449216323 858.2717884743354 456.0000424508123Q854.1857509817329 462.4975119062623 847.4203446415221 466.4495809564844Q840.6772663750413 470.3793219329765 832.6391598322166 470.3793219329765L832.6391598322166 470.3793219329765Q828.4638100446937 470.3793219329765 824.1098356673303 469.10662173036263Q819.778189363697 467.81159345401863 815.6028395761741 465.0875684589503L815.6028395761741 465.0875684589503Q816.4066502304566 475.0458893425609 821.385810672262 479.55616023603477Q826.3649711140673 484.0441030557786 833.2866739703886 484.0441030557786L833.2866739703886 484.0441030557786Q838.1095378960835 484.0441030557786 842.9324018217783 482.1908729361828Q847.755265747473 480.3599708903172 851.8413032400756 477.368009010488Q855.9496688064082 474.3983752043889 858.2048042531452 471.0268360711485L858.2048042531452 471.0268360711485L859.3212079396486 471.830646725431Q859.3212079396486 480.18134630047666 855.860356511488 486.05362969148473Q852.3995050833273 491.9259130824928 846.7728305033501 495.6323733216842Q841.1461559233728 499.3165054871455 834.4923899518122 501.01343909063075Q827.8162959065218 502.6880446203859 821.2295141561515 502.6880446203859ZM824.9136463216128 459.2822692891324L824.9136463216128 459.2822692891324Q830.0714313532587 459.2822692891324 833.2866739703886 456.31263548303326Q836.5019165875185 453.34300167693414 838.1095378960835 449.3239484055218Q839.7171592046484 445.3048951341094 839.7171592046484 442.24594903309L839.7171592046484 442.24594903309Q839.7171592046484 438.5618168676287 837.6183202740219 436.061072609861Q835.5194813433955 433.5603283520933 831.8353491779342 433.5603283520933L831.8353491779342 433.5603283520933Q828.9326995930252 433.5603283520933 825.4718481648646 435.65916728271975Q822.0333248104339 437.7580062133462 819.2869717416355 442.80415087634174Q816.5629467465671 447.87262361306733 815.7591360922847 456.870837326285L815.7591360922847 456.870837326285Q820.8945930502005 459.2822692891324 824.9136463216128 459.2822692891324ZM889.2184986642105 502.21915507205443L889.2184986642105 502.21915507205443Q883.4355275681228 502.21915507205443 878.925256674649 497.4632753675498Q874.4373138549051 492.72972373677527 874.4373138549051 484.0441030557786L874.4373138549051 484.0441030557786Q874.4373138549051 479.8687532682557 875.3974210252981 474.55467172049936Q876.357528195691 469.2629182464731 877.652556472035 463.703227887686Q878.925256674649 458.16586560262897 879.9076919187719 453.2536893820139Q880.8677990891649 448.3638412351288 880.8677990891649 445.1485986179989L880.8677990891649 445.1485986179989Q880.8677990891649 441.7770594847586 879.6620831077412 439.7675328490524Q878.4563671263174 437.7580062133462 876.5138247118016 437.7580062133462L876.5138247118016 437.7580062133462Q873.4772066845121 437.7580062133462 870.2619640673822 441.933356000869L870.2619640673822 441.933356000869L869.2795288232592 441.28584186269705Q869.1232323071488 438.71811338373914 870.4182605834928 435.1679496606582Q871.6909607861066 431.6401140113074 874.4373138549051 428.33555909925724Q877.1613388499735 425.05333226093717 881.4260009324166 422.7981968142002Q885.6906630148598 420.5430613674633 891.4736341109475 420.5430613674633L891.4736341109475 420.5430613674633Q900.0029582758337 420.5430613674633 903.8433869574055 425.4552375880784Q907.7061437127074 430.3450857349634 907.7061437127074 437.2667885912847L907.7061437127074 437.2667885912847Q907.7061437127074 438.3831922777881 907.6391594915173 439.58890825921185Q907.5498471965969 440.7946242406355 907.3935506804864 441.933356000869L907.3935506804864 441.933356000869Q913.1765217765742 431.48381749519694 919.5176947159138 425.9241271364098Q925.8811957289834 420.3867648513528 931.3515737928501 420.3867648513528L931.3515737928501 420.3867648513528Q936.4870307507659 420.3867648513528 938.8984627136133 424.40581812276514Q941.3098946764608 428.4248713941775 941.3098946764608 434.0515459741548L941.3098946764608 434.0515459741548Q941.3098946764608 439.1870029320706 939.3003680407546 444.50108447982694Q937.2908414050484 449.8151660275833 933.3611004285563 453.2536893820139Q929.4090313783341 456.7145408101745 923.7823567983569 456.558244294064L923.7823567983569 456.558244294064L923.1348426601849 456.2456512618431Q922.9785461440744 452.04797340059014 920.4108176651165 449.6365414377427Q917.8430891861586 447.2251094748953 914.6278465690287 447.2251094748953L914.6278465690287 447.2251094748953Q910.2738721916653 447.2251094748953 906.5004277312837 451.5790838522587Q902.7269832709021 455.91073015589205 902.7269832709021 464.1051332148272L902.7269832709021 464.1051332148272Q902.7269832709021 469.10662173036263 903.8433869574055 474.8895928264504Q904.9821187176391 480.6725639225382 904.9821187176391 484.69161719395055L904.9821187176391 484.69161719395055Q904.9821187176391 489.5144811196454 902.7269832709021 493.53353439105774Q900.4718478241651 497.5525876624701 896.9440121748144 499.8747073303972Q893.3938484517334 502.21915507205443 889.2184986642105 502.21915507205443ZM960.9139434114611 533.7240671051813L960.9139434114611 533.7240671051813Q956.8948901400487 533.7240671051813 953.2777421957776 531.6252281745549Q949.6605942515064 529.5487173176584 947.3384745835792 524.8821499080741Q945.0163549156522 520.2155824984898 945.0163549156522 512.3337724717755L945.0163549156522 512.3337724717755Q945.0163549156522 504.78688355101235 947.0258815513583 495.9449663539051Q949.0354081870645 487.10304915679797 951.6031366660225 478.1718196647705Q954.1708651449803 469.2629182464731 956.1803917806865 461.22481170364836Q958.1899184163926 453.18670516082364 958.1899184163926 446.91251644267436L958.1899184163926 446.91251644267436Q958.1899184163926 442.24594903309 956.8948901400487 440.57134350333484Q955.6221899374348 438.87440989984964 953.8582721127593 438.87440989984964L953.8582721127593 438.87440989984964Q952.2506508041944 438.87440989984964 950.6430294956294 439.8345170702426Q949.0354081870645 440.7946242406355 947.8966764268309 442.0896525169795L947.8966764268309 442.0896525169795L946.7802727403276 441.44213837880756Q946.7802727403276 435.81546379883025 950.0624995786477 431.0819121680557Q953.3670544906978 426.32603246355103 958.5025114486136 423.4457109523722Q963.6602964802594 420.5430613674633 969.1306745441264 420.5430613674633L969.1306745441264 420.5430613674633Q974.4224280181526 420.5430613674633 977.6376706352825 423.20010214134146Q980.8529132524125 425.85714291521964 982.5498468558976 430.03249270274245Q984.2244523856527 434.2078424902653 984.5593734916038 439.03070641596014L984.5593734916038 439.03070641596014Q990.6549376199125 429.3849785645705 997.8892335084547 424.7184111549861Q1005.1235293969969 420.07417181913183 1011.5540146312567 420.07417181913183L1011.5540146312567 420.07417181913183Q1020.2396353122534 420.07417181913183 1026.268215219372 428.26857487806706Q1032.2967951264905 436.4629779370022 1032.2967951264905 453.6555947091551L1032.2967951264905 453.6555947091551Q1032.2967951264905 469.7318077948045 1027.1613381685747 480.58325162761787Q1022.0035531369289 491.43469546043127 1014.2110554051349 496.8380893031079Q1006.418557673341 502.21915507205443 998.3804511305163 502.21915507205443L998.3804511305163 502.21915507205443Q991.4587482741949 502.21915507205443 985.6087929569169 498.1107895057218Q979.7365095659089 494.02475201311927 976.5212669487792 486.14294198640505L976.5212669487792 486.14294198640505Q975.0699421563246 492.72972373677527 974.0205226910114 499.16020897103505Q972.9711032256981 505.5906942052948 972.9711032256981 511.7085864073336L972.9711032256981 511.7085864073336Q972.9711032256981 515.080125540574 973.3730085528393 518.2953681577039Q973.7749138799805 521.5106107748338 974.7573491241036 524.7258533919637L974.7573491241036 524.7258533919637L974.7573491241036 525.6859605623566Q972.6585101934772 529.7050138337689 968.8850657330955 531.7145404694752Q965.1116212727139 533.7240671051813 960.9139434114611 533.7240671051813ZM990.498641103802 486.61183153473644L990.498641103802 486.61183153473644Q994.3613978591038 486.61183153473644 997.2640474440128 483.5752135074471Q1000.1443689551917 480.5162674064277 1002.243207885818 475.6040911858126Q1004.3197187427145 470.7142430389275 1005.3691382080278 465.0875684589503Q1006.418557673341 459.46089387897297 1006.418557673341 454.1468123312166L1006.418557673341 454.1468123312166Q1006.418557673341 447.4037340647359 1004.6546398486655 442.64785436023124Q1002.8907220239901 437.91430272945667 999.1842617847988 437.91430272945667L999.1842617847988 437.91430272945667Q994.5176943752143 437.91430272945667 988.7347232791267 447.31442176981557Q982.9517521830388 456.7145408101745 979.7365095659089 475.84969999684336L979.7365095659089 475.84969999684336Q981.1878343583634 480.8288604386487 984.0681558695422 483.7315100235576Q986.9708054544511 486.61183153473644 990.498641103802 486.61183153473644ZM1059.470060855984 502.21915507205443L1059.470060855984 502.21915507205443Q1055.1384145523507 502.21915507205443 1051.030048986018 500.0533319202378Q1046.9216834196855 497.86518069469105 1044.3539549407276 493.0423167689962Q1041.7862264617697 488.2194528433014 1041.7862264617697 480.6725639225382L1041.7862264617697 480.6725639225382Q1041.7862264617697 473.9294856560574 1043.6394565813653 464.8419596479195Q1045.492686700961 455.75443363978155 1047.8148063688882 445.9524092722814Q1050.1369260368156 436.1503849047813 1051.923171935221 426.81725008561256Q1053.6870897598963 417.4841152664439 1053.5307932437859 410.24981937790164L1053.5307932437859 410.24981937790164Q1053.5307932437859 403.3504445953104 1051.923171935221 400.4477950104015L1051.923171935221 400.4477950104015L1051.7445473453804 399.97890546207003Q1053.5307932437859 394.8211204304242 1058.0187360635296 391.9407989192453Q1062.5290069570035 389.03814933433637 1067.5081673988088 389.03814933433637L1067.5081673988088 389.03814933433637Q1073.134841978786 389.03814933433637 1077.5558005773398 393.3028114167795Q1081.9767591758932 397.5674734992226 1081.9767591758932 407.5257943828333L1081.9767591758932 407.5257943828333Q1081.9767591758932 412.8398759305896 1080.6817308995494 420.141156040322Q1079.4090306969354 427.4647642237846 1077.6451128722601 435.74847957764Q1075.8588669738544 444.0098668577654 1074.027964927989 452.04797340059014Q1072.1747348083932 460.08607994341486 1070.879706532049 466.85148628362566Q1069.6070063294353 473.5945645501064 1069.6070063294353 477.9485389274698L1069.6070063294353 477.9485389274698Q1069.6070063294353 482.43648174721363 1070.879706532049 484.13341535069884Q1072.1747348083932 485.80802088045397 1073.782356116958 485.80802088045397L1073.782356116958 485.80802088045397Q1075.5462739416334 485.80802088045397 1077.1538952501985 484.4460083829198Q1078.7615165587636 483.0839958853856 1079.252734180825 481.96759219888213L1079.252734180825 481.96759219888213L1080.5254343834388 482.28018523110313Q1080.3691378673284 488.0631563271909 1077.2432075451188 492.57342722066477Q1074.094949149179 497.0613700404086 1069.3613975184044 499.6514265930965Q1064.6055178139 502.21915507205443 1059.470060855984 502.21915507205443ZM1124.8913168850852 502.6880446203859L1124.8913168850852 502.6880446203859Q1113.1690781767993 502.6880446203859 1105.4435646661955 497.9544929896113Q1097.7403792293217 493.22094135883674 1093.87762247402 485.4061155533127Q1090.014865718718 477.61361782151874 1090.014865718718 468.6154041083011L1090.014865718718 468.6154041083011Q1090.014865718718 460.08607994341486 1093.319420630768 451.48977155733843Q1096.6016474690882 442.893463171262 1102.965148482158 435.81546379883025Q1109.3063214214974 428.7374644263985 1118.3938474296353 424.40581812276514Q1127.4813734377733 420.07417181913183 1138.8910191138384 420.07417181913183L1138.8910191138384 420.07417181913183Q1153.0246897849718 420.07417181913183 1159.5444873141519 426.41534475847135Q1166.064284843332 432.7565176978108 1166.064284843332 441.7770594847586L1166.064284843332 441.7770594847586Q1166.064284843332 449.4802449216323 1161.9559192769993 456.0000424508123Q1157.8475537106665 462.4975119062623 1151.104475444186 466.4495809564844Q1144.3613971777052 470.3793219329765 1136.3232906348805 470.3793219329765L1136.3232906348805 470.3793219329765Q1132.1256127736276 470.3793219329765 1127.7939664699943 469.10662173036263Q1123.4623201663608 467.81159345401863 1119.2646423051078 465.0875684589503L1119.2646423051078 465.0875684589503Q1120.0684529593905 475.0458893425609 1125.0699414749258 479.55616023603477Q1130.0491019167312 484.0441030557786 1136.9484766993223 484.0441030557786L1136.9484766993223 484.0441030557786Q1141.7713406250173 484.0441030557786 1146.594204550712 482.1908729361828Q1151.417068476407 480.3599708903172 1155.5254340427396 477.368009010488Q1159.6337996090722 474.3983752043889 1161.866606982079 471.0268360711485L1161.866606982079 471.0268360711485L1163.0053387423125 471.830646725431Q1163.0053387423125 480.18134630047666 1159.5444873141519 486.05362969148473Q1156.0836358859913 491.9259130824928 1150.456961306014 495.6323733216842Q1144.8302867260365 499.3165054871455 1138.154192680746 501.01343909063075Q1131.5004267091856 502.6880446203859 1124.8913168850852 502.6880446203859ZM1128.5977771242767 459.2822692891324L1128.5977771242767 459.2822692891324Q1133.7332340821924 459.2822692891324 1136.9484766993223 456.31263548303326Q1140.1637193164522 453.34300167693414 1141.7713406250173 449.3239484055218Q1143.378961933582 445.3048951341094 1143.378961933582 442.24594903309L1143.378961933582 442.24594903309Q1143.378961933582 438.5618168676287 1141.3024510766857 436.061072609861Q1139.2036121460592 433.5603283520933 1135.519479980598 433.5603283520933L1135.519479980598 433.5603283520933Q1132.616830395689 433.5603283520933 1129.1559789675284 435.65916728271975Q1125.6951275393678 437.7580062133462 1122.9711025442994 442.80415087634174Q1120.247077549231 447.87262361306733 1119.4432668949485 456.870837326285L1119.4432668949485 456.870837326285Q1124.5787238528642 459.2822692891324 1128.5977771242767 459.2822692891324ZM1179.5504413762933 502.6880446203859L1179.5504413762933 502.6880446203859Q1174.1023913861566 502.6880446203859 1170.7085241791863 499.0708966761148Q1167.3369850459458 495.45374873184363 1167.3369850459458 490.16199525781735L1167.3369850459458 490.16199525781735Q1167.3369850459458 487.75056329496994 1168.1407957002284 485.182834816012Q1168.9446063545106 482.5927782633241 1170.5522276630757 480.02504978436616L1170.5522276630757 480.02504978436616Q1173.7674702802055 480.5162674064277 1176.3351987591634 480.5162674064277L1176.3351987591634 480.5162674064277Q1184.2170087858776 480.5162674064277 1189.6873868497446 476.7428229460461Q1195.1577649136113 472.9470504119344 1198.3730075307412 466.0476756293432L1198.3730075307412 466.0476756293432Q1192.2551153287025 452.53919102265166 1188.2360620572902 447.2251094748953Q1184.2170087858776 441.933356000869 1181.6492803069198 441.933356000869L1181.6492803069198 441.933356000869Q1180.1979555144653 441.933356000869 1179.081551827962 443.13907198229276Q1177.9428200677285 444.3447879637165 1176.826416381225 446.1087057883919L1176.826416381225 446.1087057883919L1176.0226057269424 445.79611275617094Q1176.826416381225 434.69906011232683 1181.3366872746988 427.2191554127538Q1185.8246300944427 419.7392507131808 1192.7463329507639 419.7392507131808L1192.7463329507639 419.7392507131808Q1197.4129003603484 419.7392507131808 1201.25332904192 422.9544933303107Q1205.116085797222 426.1697359474406 1208.331328414352 431.1488963892459Q1211.5465710314818 436.1503849047813 1214.1142995104397 441.5314506737278Q1216.7043560631278 446.91251644267436 1218.780866920024 451.0878662301972L1218.780866920024 451.0878662301972Q1222.331030643105 435.1679496606582 1229.4760142367268 427.62106073989503Q1236.6209978303489 420.07417181913183 1243.3864041705597 420.07417181913183L1243.3864041705597 420.07417181913183Q1248.365564612365 420.07417181913183 1250.5313877641815 423.4457109523722Q1252.6972109159983 426.81725008561256 1252.6972109159983 431.6401140113074L1252.6972109159983 431.6401140113074Q1252.6972109159983 439.99081358635306 1248.052971580144 447.71632709695683L1248.052971580144 447.71632709695683Q1246.9142398199106 447.56003058084633 1245.7085238384866 447.47071828592607Q1244.502807857063 447.4037340647359 1243.230107654449 447.4037340647359L1243.230107654449 447.4037340647359Q1236.7996224201893 447.4037340647359 1231.3962285775128 450.373367870835Q1226.0151628085664 453.34300167693414 1222.643623675326 458.4784586348499L1222.643623675326 458.4784586348499Q1228.9178123934753 470.22302541686605 1232.780569148777 474.9565770476406Q1236.6209978303489 479.7124567521452 1239.5236474152578 479.7124567521452L1239.5236474152578 479.7124567521452Q1242.4262970001669 479.7124567521452 1243.855293718891 476.1622930290643L1243.855293718891 476.1622930290643L1245.1503219952351 476.6535106511258Q1244.6591043731735 483.5752135074471 1242.5825935162773 489.5144811196454Q1240.4837545856508 495.45374873184363 1236.8666066413798 499.0708966761148Q1233.2494586971084 502.6880446203859 1227.957705223082 502.6880446203859L1227.957705223082 502.6880446203859Q1222.4873271592155 502.6880446203859 1217.9100720445513 498.6689913489735Q1213.3104888561572 494.64993807756116 1209.4700601745853 488.30876513822164Q1205.6073034192834 481.96759219888213 1202.235764286043 474.73329631033994L1202.235764286043 474.73329631033994Q1200.9407360096993 484.53532067784005 1197.2342757705078 490.72019710106906Q1193.5501436050465 496.9050735242981 1188.7942639005419 499.807723109207Q1184.0607122697672 502.6880446203859 1179.5504413762933 502.6880446203859ZM1293.3789612521834 502.6880446203859L1293.3789612521834 502.6880446203859Q1281.6343944701673 502.6880446203859 1273.9312090332935 497.9544929896113Q1266.20569552269 493.22094135883674 1262.342938767388 485.4061155533127Q1258.502510085816 477.61361782151874 1258.502510085816 468.6154041083011L1258.502510085816 468.6154041083011Q1258.502510085816 460.08607994341486 1261.7847369241363 451.48977155733843Q1265.0892918361865 442.893463171262 1271.4304647755262 435.81546379883025Q1277.7939657885954 428.7374644263985 1286.8591637230033 424.40581812276514Q1295.9466897311413 420.07417181913183 1307.3563354072062 420.07417181913183L1307.3563354072062 420.07417181913183Q1321.5123341520698 420.07417181913183 1328.0321316812501 426.41534475847135Q1334.5296011367 432.7565176978108 1334.5296011367 441.7770594847586L1334.5296011367 441.7770594847586Q1334.5296011367 449.4802449216323 1330.4435636440974 456.0000424508123Q1326.3351980777647 462.4975119062623 1319.5921198112842 466.4495809564844Q1312.8267134710732 470.3793219329765 1304.7886069282486 470.3793219329765L1304.7886069282486 470.3793219329765Q1300.6132571407256 470.3793219329765 1296.2816108370923 469.10662173036263Q1291.927636459729 467.81159345401863 1287.752286672206 465.0875684589503L1287.752286672206 465.0875684589503Q1288.5560973264885 475.0458893425609 1293.5352577682938 479.55616023603477Q1298.5144182100994 484.0441030557786 1305.4361210664206 484.0441030557786L1305.4361210664206 484.0441030557786Q1310.2589849921153 484.0441030557786 1315.08184891781 482.1908729361828Q1319.904712843505 480.3599708903172 1324.0130784098376 477.368009010488Q1328.0991159024402 474.3983752043889 1330.354251349177 471.0268360711485L1330.354251349177 471.0268360711485L1331.4706550356805 471.830646725431Q1331.4706550356805 480.18134630047666 1328.0321316812501 486.05362969148473Q1324.5712802530893 491.9259130824928 1318.9446056731122 495.6323733216842Q1313.3179310931346 499.3165054871455 1306.641837047844 501.01343909063075Q1299.9657430025536 502.6880446203859 1293.3789612521834 502.6880446203859ZM1297.0854214913747 459.2822692891324L1297.0854214913747 459.2822692891324Q1302.2208784492905 459.2822692891324 1305.4361210664206 456.31263548303326Q1308.6513636835502 453.34300167693414 1310.2589849921153 449.3239484055218Q1311.8666063006804 445.3048951341094 1311.8666063006804 442.24594903309L1311.8666063006804 442.24594903309Q1311.8666063006804 438.5618168676287 1309.7677673700537 436.061072609861Q1307.6912565131574 433.5603283520933 1303.984796273966 433.5603283520933L1303.984796273966 433.5603283520933Q1301.104474762787 433.5603283520933 1297.6436233346265 435.65916728271975Q1294.1827719064659 437.7580062133462 1291.4587469113976 442.80415087634174Q1288.7123938425989 447.87262361306733 1287.9085831883167 456.870837326285L1287.9085831883167 456.870837326285Q1293.0663682199624 459.2822692891324 1297.0854214913747 459.2822692891324ZM1365.5656236214954 502.21915507205443L1365.5656236214954 502.21915507205443Q1359.7826525254077 502.21915507205443 1354.714179788682 498.2001018006421Q1349.6457070519564 494.1810485292297 1346.5197767297468 486.455535018626Q1343.3715183338072 478.75234958175224 1343.3715183338072 467.81159345401863L1343.3715183338072 467.81159345401863Q1343.3715183338072 456.558244294064 1346.5867609509369 447.71632709695683Q1349.802003568067 438.87440989984964 1355.026772820903 432.6895334766206Q1360.251542073739 426.5046570533916 1366.436418496968 423.2894144362617Q1372.6436229939272 420.07417181913183 1378.5828906061254 420.07417181913183L1378.5828906061254 420.07417181913183Q1385.1696723564955 420.07417181913183 1390.3274573881417 424.1602093117344Q1395.4629143460572 428.26857487806706 1397.383128686843 436.95419555906375L1397.383128686843 436.95419555906375Q1398.8344534792977 428.916089016239 1399.8838729446109 421.5924808327765Q1400.9332924099242 414.26887264931395 1400.9332924099242 408.6421980693367L1400.9332924099242 408.6421980693367Q1400.9332924099242 401.25160566468395 1398.9907499954084 397.8800665314436L1398.9907499954084 397.8800665314436L1398.9907499954084 396.91995936105064Q1402.6972102345994 392.7446095735278 1407.118168833153 390.73508293782163Q1411.5391274317067 388.7255563021154 1415.558180703119 388.7255563021154L1415.558180703119 388.7255563021154Q1420.8722622508753 388.7255563021154 1424.5563944163368 392.00778314043555Q1428.2628546555281 395.31233805248564 1428.2628546555281 401.4079021807944L1428.2628546555281 401.4079021807944Q1428.2628546555281 404.80176938776486 1427.1241228952945 411.3885511381351Q1426.0077192087913 417.97533288850536 1424.4000979002262 426.41534475847135Q1422.7924765916614 434.8553566284373 1421.095542988176 443.78658612046473Q1419.420937458421 452.69548753876217 1418.2822056981877 460.82290637650715Q1417.165802011684 468.92799714052205 1417.165802011684 474.8895928264504L1417.165802011684 474.8895928264504Q1417.165802011684 479.8687532682557 1418.2152214769972 482.83838707435484Q1419.2646409423105 485.80802088045397 1421.676072905158 485.80802088045397L1421.676072905158 485.80802088045397Q1423.4399907298334 485.80802088045397 1425.293220849429 484.6023048990303Q1427.1241228952945 483.39658891760655 1427.7716370334667 481.7889676090416L1427.7716370334667 481.7889676090416L1428.9103687937002 482.5927782633241Q1428.9103687937002 487.90685981108044 1425.5165015867296 492.327818409634Q1422.1449624534894 496.74877700818763 1417.0095054955736 499.472802003256Q1411.8517204639277 502.21915507205443 1406.403670473791 502.21915507205443L1406.403670473791 502.21915507205443Q1400.4420747878626 502.21915507205443 1396.981223359702 498.9146001600043Q1393.5427000052714 495.6323733216842 1392.091375212817 490.47458829003835Q1390.6400504203625 485.3391313321225 1390.483753904252 479.8687532682557L1390.483753904252 479.8687532682557Q1385.5045934624468 491.43469546043127 1378.8284994171563 496.8380893031079Q1372.1524053718656 502.21915507205443 1365.5656236214954 502.21915507205443ZM1376.3277551593883 481.7889676090416L1376.3277551593883 481.7889676090416Q1380.5031049469112 481.7889676090416 1385.6608899785572 474.2420786882784Q1390.7963469364731 466.6951897675152 1394.6591036917748 452.2265979904307L1394.6591036917748 452.2265979904307L1395.6192108621676 447.2251094748953Q1393.05148238321 441.28584186269705 1390.0818485771108 438.7850976049294Q1387.1122147710116 436.3066814208918 1384.3658617022134 436.3066814208918L1384.3658617022134 436.3066814208918Q1380.3468084308008 436.3066814208918 1376.8189727814502 440.72764001944535Q1373.268809058369 445.1485986179989 1371.1029859065525 451.98098917939996Q1368.9371627547357 458.81337974080094 1368.9371627547357 466.3602686615642L1368.9371627547357 466.3602686615642Q1368.9371627547357 473.5945645501064 1371.036001685362 477.70293011643906Q1373.1125125422586 481.7889676090416 1376.3277551593883 481.7889676090416ZM1463.4742269278465 502.37545158816494L1463.4742269278465 502.37545158816494Q1454.632309730739 502.37545158816494 1448.670714044811 494.9848591835122Q1442.7314464326128 487.5942667788595 1442.7314464326128 474.73329631033994L1442.7314464326128 474.73329631033994Q1442.7314464326128 468.1241864862396 1444.182771225067 459.8627992061142Q1445.6117679437916 451.5790838522587 1447.5543103583077 443.0497596873725Q1449.4745246990933 434.54276359621633 1450.925849491548 427.0628588966433Q1452.3771742840022 419.5829541970703 1452.3771742840022 414.603793755265L1452.3771742840022 414.603793755265Q1452.3771742840022 411.05363003218406 1451.4170671136094 409.0441033964779Q1450.434631869486 407.03457676077176 1447.8669033905285 407.03457676077176L1447.8669033905285 407.03457676077176Q1445.9466890497426 407.03457676077176 1443.3789605707848 408.8208226591772Q1440.7889040180967 410.58474048385267 1439.5162038154826 415.72019744176845L1439.5162038154826 415.72019744176845L1437.9085825069178 415.0726833035964Q1437.9085825069178 401.25160566468395 1444.2497554462575 393.21349912185923Q1450.613256459327 385.1753925790345 1461.37538799722 385.1753925790345L1461.37538799722 385.1753925790345Q1471.5123334706711 385.1753925790345 1475.4420744471631 391.7621743294048Q1479.3718154236553 398.3712841535051 1479.3718154236553 408.3296050371157L1479.3718154236553 408.3296050371157Q1479.3718154236553 415.72019744176845 1477.8535064100106 424.0932250905442Q1476.3351973963659 432.44392466558986 1474.3926549818502 440.72764001944535Q1472.4724406410642 449.01135537330083 1470.9318035536894 456.0670266720025Q1469.4134945400447 463.1450260444343 1469.4134945400447 467.81159345401863L1469.4134945400447 467.81159345401863Q1469.4134945400447 474.73329631033994 1472.9413301893956 474.73329631033994L1472.9413301893956 474.73329631033994Q1475.0401691200223 474.73329631033994 1478.568004769373 471.74133443051073Q1482.1181684924538 468.77170062441155 1486.0479094689458 463.5469313715755Q1489.999978519168 458.32216211873947 1493.6841106846293 451.64606807344893Q1497.3905709238209 444.99230210188847 1499.9582994027787 437.57938162350564L1499.9582994027787 437.57938162350564Q1499.6457063705577 434.0515459741548 1499.467081780717 430.74699106210466Q1499.3107852646067 427.4647642237846 1499.3107852646067 424.89703574482667L1499.3107852646067 424.89703574482667Q1499.3107852646067 412.0360652763071 1501.8115295223743 404.1542552495929Q1504.2899457064118 396.2724452228787 1508.152702461714 392.56598498368726Q1512.0154592170156 388.8818528182259 1516.034512488428 388.8818528182259L1516.034512488428 388.8818528182259Q1521.6611870684055 388.8818528182259 1526.1714579618792 395.06672924145494Q1530.659400781623 401.25160566468395 1530.659400781623 411.8574406864666L1530.659400781623 411.8574406864666Q1530.659400781623 418.4665505105669 1528.2479688187757 426.5716412745818Q1525.8365368559284 434.69906011232683 1520.2098622759509 443.853570341655L1520.2098622759509 443.853570341655Q1519.7409727276195 457.67464798056744 1523.2688083769704 466.2039721454537Q1526.7966440263212 474.73329631033994 1532.1107255740776 474.73329631033994L1532.1107255740776 474.73329631033994Q1535.4822647073179 474.73329631033994 1539.4343337575401 471.2724448821793Q1543.364074734032 467.81159345401863 1546.7356138672726 461.6267170307896Q1550.1071530005129 455.4418406075606 1552.2953042260597 447.2251094748953Q1554.4611273778764 439.03070641596014 1554.4611273778764 429.7198996705215L1554.4611273778764 429.7198996705215Q1554.4611273778764 424.24952160665464 1553.7243009447839 418.28792592072637Q1553.0098025854218 412.34865830852806 1551.9603831201084 406.87828024466125Q1550.9109636547953 401.4079021807944 1549.7945599682919 397.8800665314436L1549.7945599682919 397.8800665314436Q1549.7945599682919 395.1560415363752 1552.116679636219 392.3427042463866Q1554.4611273778764 389.5293669563979 1558.1452595433375 387.51984032069174Q1561.851719782529 385.5103136849856 1565.7144765378307 385.5103136849856L1565.7144765378307 385.5103136849856Q1569.5772332931328 385.5103136849856 1573.1050689424835 388.23433868005395Q1576.6329045918346 390.9583636751223 1578.8880400385715 397.7907542365233Q1581.1431754853083 404.6231447979243 1581.1431754853083 417.1715222342229L1581.1431754853083 417.1715222342229Q1581.1431754853083 434.69906011232683 1576.6329045918346 450.038446764884Q1572.1449617720905 465.4001614911712 1564.5087605564072 477.1447282731873Q1556.8725593407237 488.8669669814734 1547.6957210376654 495.5430610267639Q1538.5412108083374 502.21915507205443 1529.051779473058 502.21915507205443L1529.051779473058 502.21915507205443Q1520.7010798980125 502.21915507205443 1515.2307018341457 497.0613700404086Q1509.7603237702788 491.9259130824928 1506.7013776692593 483.24029240149605Q1503.66475964197 474.55467172049936 1502.369731365626 463.9488366987167L1502.369731365626 463.9488366987167Q1496.5867602695384 477.76991433762925 1489.8213539293274 486.20992620759523Q1483.0782756628466 494.64993807756116 1476.3351973963659 498.512694832863Q1469.5697910561553 502.37545158816494 1463.4742269278465 502.37545158816494ZM1621.4900047155425 502.6880446203859L1621.4900047155425 502.6880446203859Q1609.4328449013053 502.6880446203859 1601.551034874591 497.86518069469105Q1593.691552921607 493.0423167689962 1589.8957803874953 485.09352252109176Q1586.1223359271137 477.1447282731873 1586.1223359271137 468.1241864862396L1586.1223359271137 468.1241864862396Q1586.1223359271137 459.6171903950834 1589.2705943230533 451.0878662301972Q1592.396524645263 442.58087013904105 1598.4251045523815 435.5698549877995Q1604.4536844595 428.581167910288 1613.1393051404966 424.3165058278449Q1621.8249258214933 420.07417181913183 1633.078274981448 420.07417181913183L1633.078274981448 420.07417181913183Q1645.135434795685 420.07417181913183 1652.927932527479 424.96401996601685Q1660.720430259273 429.876196186632 1664.4938747196545 437.91430272945667Q1668.2673191800363 445.9524092722814 1668.2673191800363 455.1069195016096L1668.2673191800363 455.1069195016096Q1668.2673191800363 463.4799471503853 1665.2307011527469 471.91995902035126Q1662.1717550517276 480.3599708903172 1656.143175144609 487.34865796782873Q1650.1145952374904 494.3373450453402 1641.4289745564938 498.512694832863Q1632.7433538754972 502.6880446203859 1621.4900047155425 502.6880446203859ZM1625.8439790929058 489.02326349758386L1625.8439790929058 489.02326349758386Q1630.175625396539 489.02326349758386 1633.078274981448 484.53532067784005Q1635.9585964926268 480.02504978436616 1637.4099212850813 473.0363627068547Q1638.8612460775357 466.0476756293432 1638.8612460775357 458.81337974080094L1638.8612460775357 458.81337974080094Q1638.8612460775357 452.3828945065412 1637.6555300961122 446.6669076316436Q1636.4498141146883 440.9732488304761 1634.0383821518408 437.35610088620496Q1631.6269501889935 433.73895294193386 1627.7641934336916 433.73895294193386L1627.7641934336916 433.73895294193386Q1623.5888436461687 433.73895294193386 1620.6192098400697 438.22689576167767Q1617.6272479602403 442.73716665515155 1616.1982512415161 449.6365414377427Q1614.7469264490617 456.558244294064 1614.7469264490617 463.9488366987167L1614.7469264490617 463.9488366987167Q1614.7469264490617 470.3793219329765 1615.9526424304854 476.0953088078741Q1617.158358411909 481.7889676090416 1619.5697903747564 485.4061155533127Q1621.9812223376039 489.02326349758386 1625.8439790929058 489.02326349758386ZM1696.400692079923 502.21915507205443L1696.400692079923 502.21915507205443Q1690.617720983835 502.21915507205443 1686.129778164091 497.4632753675498Q1681.6195072706173 492.72972373677527 1681.6195072706173 484.0441030557786L1681.6195072706173 484.0441030557786Q1681.6195072706173 479.8687532682557 1682.57961444101 474.55467172049936Q1683.5397216114031 469.2629182464731 1684.8347498877472 463.703227887686Q1686.129778164091 458.16586560262897 1687.089885334484 453.2536893820139Q1688.049992504877 448.3638412351288 1688.049992504877 445.1485986179989L1688.049992504877 445.1485986179989Q1688.049992504877 441.7770594847586 1686.8442765234531 439.7675328490524Q1685.6385605420296 437.7580062133462 1683.7183462012438 437.7580062133462L1683.7183462012438 437.7580062133462Q1680.6594001002245 437.7580062133462 1677.4441574830944 441.933356000869L1677.4441574830944 441.933356000869L1676.4840503127016 441.28584186269705Q1676.305425722861 438.71811338373914 1677.600453999205 435.1679496606582Q1678.8954822755488 431.6401140113074 1681.6195072706173 428.33555909925724Q1684.3435322656856 425.05333226093717 1688.6081943481288 422.7981968142002Q1692.872856430572 420.5430613674633 1698.6558275266596 420.5430613674633L1698.6558275266596 420.5430613674633Q1707.1851516915458 420.5430613674633 1711.047908446848 425.4552375880784Q1714.8883371284196 430.3450857349634 1714.8883371284196 437.2667885912847L1714.8883371284196 437.2667885912847Q1714.8883371284196 438.3831922777881 1714.8213529072295 439.58890825921185Q1714.732040612309 440.7946242406355 1714.5757440961988 441.933356000869L1714.5757440961988 441.933356000869Q1720.3587151922866 431.48381749519694 1726.7222162053558 425.9241271364098Q1733.0633891446955 420.3867648513528 1738.533767208562 420.3867648513528L1738.533767208562 420.3867648513528Q1743.6692241664782 420.3867648513528 1746.0806561293257 424.40581812276514Q1748.4920880921732 428.4248713941775 1748.4920880921732 434.0515459741548L1748.4920880921732 434.0515459741548Q1748.4920880921732 439.1870029320706 1746.4825614564666 444.50108447982694Q1744.4730348207604 449.8151660275833 1740.5432938442686 453.2536893820139Q1736.5912247940464 456.7145408101745 1730.9645502140688 456.558244294064L1730.9645502140688 456.558244294064L1730.3393641496273 456.2456512618431Q1730.1607395597866 452.04797340059014 1727.5930110808285 449.6365414377427Q1725.0252826018705 447.2251094748953 1721.8100399847408 447.2251094748953L1721.8100399847408 447.2251094748953Q1717.4783936811077 447.2251094748953 1713.6826211469956 451.5790838522587Q1709.9091766866145 455.91073015589205 1709.9091766866145 464.1051332148272L1709.9091766866145 464.1051332148272Q1709.9091766866145 469.10662173036263 1711.047908446848 474.8895928264504Q1712.1643121333514 480.6725639225382 1712.1643121333514 484.69161719395055L1712.1643121333514 484.69161719395055Q1712.1643121333514 489.5144811196454 1709.9091766866145 493.53353439105774Q1707.6540412398772 497.5525876624701 1704.1262055905265 499.8747073303972Q1700.5983699411756 502.21915507205443 1696.400692079923 502.21915507205443ZM1771.6463005502542 502.21915507205443L1771.6463005502542 502.21915507205443Q1767.3146542466206 502.21915507205443 1763.2062886802883 500.0533319202378Q1759.0979231139554 497.86518069469105 1756.5301946349978 493.0423167689962Q1753.9624661560397 488.2194528433014 1753.9624661560397 480.6725639225382L1753.9624661560397 480.6725639225382Q1753.9624661560397 473.9294856560574 1755.8156962756357 464.8419596479195Q1757.6689263952312 455.75443363978155 1759.9910460631581 445.9524092722814Q1762.3131657310855 436.1503849047813 1764.099411629491 426.81725008561256Q1765.8633294541664 417.4841152664439 1765.7070329380558 410.24981937790164L1765.7070329380558 410.24981937790164Q1765.7070329380558 403.3504445953104 1764.099411629491 400.4477950104015L1764.099411629491 400.4477950104015L1763.9207870396503 399.97890546207003Q1765.7070329380558 394.8211204304242 1770.1949757578 391.9407989192453Q1774.7052466512737 389.03814933433637 1779.6844070930788 389.03814933433637L1779.6844070930788 389.03814933433637Q1785.3110816730564 389.03814933433637 1789.73204027161 393.3028114167795Q1794.1529988701632 397.5674734992226 1794.1529988701632 407.5257943828333L1794.1529988701632 407.5257943828333Q1794.1529988701632 412.8398759305896 1792.8579705938191 420.141156040322Q1791.5852703912055 427.4647642237846 1789.82135256653 435.74847957764Q1788.0351066681246 444.0098668577654 1786.204204622259 452.04797340059014Q1784.3509745026631 460.08607994341486 1783.055946226319 466.85148628362566Q1781.7832460237055 473.5945645501064 1781.7832460237055 477.9485389274698L1781.7832460237055 477.9485389274698Q1781.7832460237055 482.43648174721363 1783.055946226319 484.13341535069884Q1784.3509745026631 485.80802088045397 1785.958595811228 485.80802088045397L1785.958595811228 485.80802088045397Q1787.7225136359034 485.80802088045397 1789.3301349444687 484.4460083829198Q1790.9377562530335 483.0839958853856 1791.428973875095 481.96759219888213L1791.428973875095 481.96759219888213L1792.701674077709 482.28018523110313Q1792.5453775615983 488.0631563271909 1789.4194472393888 492.57342722066477Q1786.2711888434492 497.0613700404086 1781.5376372126748 499.6514265930965Q1776.78175750817 502.21915507205443 1771.6463005502542 502.21915507205443ZM1825.5016143871799 502.21915507205443L1825.5016143871799 502.21915507205443Q1819.7186432910921 502.21915507205443 1814.6501705543665 498.2001018006421Q1809.5816978176408 494.1810485292297 1806.4557674954312 486.455535018626Q1803.3075090994912 478.75234958175224 1803.3075090994912 467.81159345401863L1803.3075090994912 467.81159345401863Q1803.3075090994912 456.558244294064 1806.5227517166213 447.71632709695683Q1809.7379943337514 438.87440989984964 1814.9627635865872 432.6895334766206Q1820.1875328394235 426.5046570533916 1826.3947373363821 423.2894144362617Q1832.5796137596112 420.07417181913183 1838.5188813718096 420.07417181913183L1838.5188813718096 420.07417181913183Q1845.10566312218 420.07417181913183 1850.2634481538257 424.1602093117344Q1855.398905111742 428.26857487806706 1857.3414475262575 436.95419555906375L1857.3414475262575 436.95419555906375Q1858.7704442449822 428.916089016239 1859.819863710295 421.5924808327765Q1860.8692831756084 414.26887264931395 1860.8692831756084 408.6421980693367L1860.8692831756084 408.6421980693367Q1860.8692831756084 401.25160566468395 1858.9490688348224 397.8800665314436L1858.9490688348224 397.8800665314436L1858.9490688348224 396.91995936105064Q1862.6332010002839 392.7446095735278 1867.0541595988375 390.73508293782163Q1871.475118197391 388.7255563021154 1875.4941714688034 388.7255563021154L1875.4941714688034 388.7255563021154Q1880.8082530165598 388.7255563021154 1884.4923851820213 392.00778314043555Q1888.1988454212124 395.31233805248564 1888.1988454212124 401.4079021807944L1888.1988454212124 401.4079021807944Q1888.1988454212124 404.80176938776486 1887.082441734709 411.3885511381351Q1885.9437099744755 417.97533288850536 1884.3360886659107 426.41534475847135Q1882.7284673573458 434.8553566284373 1881.0538618275905 443.78658612046473Q1879.356928224105 452.69548753876217 1878.2405245376017 460.82290637650715Q1877.1017927773682 468.92799714052205 1877.1017927773682 474.8895928264504L1877.1017927773682 474.8895928264504Q1877.1017927773682 479.8687532682557 1878.1512122426816 482.83838707435484Q1879.200631707995 485.80802088045397 1881.6120636708424 485.80802088045397L1881.6120636708424 485.80802088045397Q1883.3759814955179 485.80802088045397 1885.2292116151134 484.6023048990303Q1887.082441734709 483.39658891760655 1887.707627799151 481.7889676090416L1887.707627799151 481.7889676090416L1888.8463595593844 482.5927782633241Q1888.8463595593844 487.90685981108044 1885.474820426144 492.327818409634Q1882.0809532191738 496.74877700818763 1876.945496261258 499.472802003256Q1871.810039303342 502.21915507205443 1866.3396612394754 502.21915507205443L1866.3396612394754 502.21915507205443Q1860.378065553547 502.21915507205443 1856.9395421991162 498.9146001600043Q1853.4786907709558 495.6323733216842 1852.0273659785016 490.47458829003835Q1850.576041186047 485.3391313321225 1850.4197446699363 479.8687532682557L1850.4197446699363 479.8687532682557Q1845.4405842281312 491.43469546043127 1838.7644901828407 496.8380893031079Q1832.0883961375498 502.21915507205443 1825.5016143871799 502.21915507205443ZM1836.2637459250727 481.7889676090416L1836.2637459250727 481.7889676090416Q1840.4614237863257 481.7889676090416 1845.5968807442414 474.2420786882784Q1850.732337702157 466.6951897675152 1854.5950944574593 452.2265979904307L1854.5950944574593 452.2265979904307L1855.555201627852 447.2251094748953Q1852.9874731488944 441.28584186269705 1850.017839342795 438.7850976049294Q1847.048205536696 436.3066814208918 1844.3018524678973 436.3066814208918L1844.3018524678973 436.3066814208918Q1840.282799196485 436.3066814208918 1836.7549635471346 440.72764001944535Q1833.2271278977832 445.1485986179989 1831.0389766722365 451.98098917939996Q1828.8731535204201 458.81337974080094 1828.8731535204201 466.3602686615642L1828.8731535204201 466.3602686615642Q1828.8731535204201 473.5945645501064 1830.9719924510464 477.70293011643906Q1833.048503307943 481.7889676090416 1836.2637459250727 481.7889676090416Z " fill="#013dc4" transform="matrix(0.46324574063109236,0,0,0.46324574063109236,0,87.49803380487472)"/></g></svg>