<?xml version="1.0" encoding="UTF-8"?>
<svg version="1.1" xmlns="http://www.w3.org/2000/svg" width="500" height="500">
<path d="M0 0 C165 0 330 0 500 0 C500 165 500 330 500 500 C335 500 170 500 0 500 C0 335 0 170 0 0 Z " fill="#F3F0F0" transform="translate(0,0)"/>
<path d="M0 0 C9.19635584 2.40520076 17.72483998 6.1587943 26.42645264 9.92260742 C30.87684263 11.84706697 35.33469347 13.75404962 39.79296875 15.66015625 C40.67080017 16.03572662 41.54863159 16.411297 42.45306396 16.79824829 C52.60048036 21.12811829 62.83614261 25.22498999 73.11279297 29.23828125 C75 30 75 30 77 31 C79.65374852 31.12243038 82.28298363 31.18568801 84.93798828 31.20532227 C85.75758026 31.21522186 86.57717224 31.22512146 87.42160034 31.23532104 C90.13780808 31.26697533 92.85403332 31.29170897 95.5703125 31.31640625 C97.4507595 31.33697239 99.33120183 31.35796877 101.2116394 31.37937927 C106.16656731 31.4346351 111.12153717 31.48402888 116.07653809 31.53222656 C121.13049057 31.58241598 126.18438194 31.63811539 131.23828125 31.69335938 C141.15880396 31.8009839 151.07937843 31.9019103 161 32 C161.33 43.22 161.66 54.44 162 66 C172.23 70.29 182.46 74.58 193 79 C192.2827962 83.30322281 191.76616707 86.00294455 190.13671875 89.81640625 C189.75040283 90.73091553 189.36408691 91.6454248 188.96606445 92.58764648 C188.54413818 93.56934814 188.12221191 94.5510498 187.6875 95.5625 C186.77808758 97.71070125 185.86925958 99.85914999 184.9609375 102.0078125 C184.23922363 103.7079248 184.23922363 103.7079248 183.50292969 105.44238281 C181.16293275 110.98143988 178.86731019 116.53870267 176.57266235 122.09664917 C175.84111135 123.86821318 175.10844454 125.6393163 174.37573242 127.41040039 C173.447193 129.65496987 172.52714018 131.90307356 171.61662292 134.15501404 C170.56390992 136.71631423 169.42813954 139.21087128 168.21170044 141.69824219 C162.82638621 153.06453444 161.99365596 163.02483503 162.09765625 175.47265625 C162.08824506 177.37651767 162.07577135 179.28036614 162.06040955 181.18418884 C162.02851119 186.13430338 162.03750544 191.0834809 162.05578613 196.03363037 C162.06703656 201.10910859 162.03855186 206.18435869 162.01367188 211.25976562 C161.97079926 221.17344406 161.97492282 231.08626043 162 241 C144.675 241.495 144.675 241.495 127 242 C122.71 252.23 118.42 262.46 114 273 C108.28957462 271.09652487 102.78313545 269.18178838 97.265625 266.84765625 C96.20283577 266.40287682 96.20283577 266.40287682 95.11857605 265.94911194 C93.60773949 265.31639778 92.09751227 264.68222685 90.58786011 264.04669189 C88.21611545 263.04823529 85.84279776 262.05360932 83.46899414 261.06005859 C80.22841593 259.70364855 76.98832676 258.34608063 73.74853516 256.98779297 C67.28187947 254.27864407 60.80684451 251.58980231 54.32873535 248.90817261 C52.46840877 248.13779952 50.60871058 247.36590955 48.74902344 246.59399414 C47.63430664 246.1324292 46.51958984 245.67086426 45.37109375 245.1953125 C44.40099365 244.79328613 43.43089355 244.39125977 42.43139648 243.97705078 C37.7840676 242.10953294 33.80560319 241.83100721 28.85668945 241.79467773 C28.02719788 241.78477814 27.1977063 241.77487854 26.34307861 241.76467896 C23.59984191 241.73307795 20.85658789 241.70831202 18.11328125 241.68359375 C16.21184335 241.66302302 14.31041001 241.64202651 12.40898132 241.62062073 C7.40310356 241.56541239 2.39718462 241.51599762 -2.60876465 241.46777344 C-7.71642728 241.4175494 -12.82403007 241.36186804 -17.93164062 241.30664062 C-27.95437787 241.19907416 -37.97716592 241.09813006 -48 241 C-48.33 229.45 -48.66 217.9 -49 206 C-58.49221991 202.21404966 -58.49221991 202.21404966 -67.99780273 198.46191406 C-69.17286377 197.98463867 -70.3479248 197.50736328 -71.55859375 197.015625 C-73.37315063 196.29294434 -73.37315063 196.29294434 -75.22436523 195.55566406 C-78 194 -78 194 -78.75102234 192.13563538 C-79.18816755 188.38597057 -77.29508074 185.11077136 -75.8359375 181.73046875 C-75.48802155 180.89961258 -75.14010559 180.06875641 -74.78164673 179.21272278 C-73.65666533 176.53305254 -72.51622754 173.86028587 -71.375 171.1875 C-70.66041486 169.49327828 -69.94686452 167.79861971 -69.234375 166.10351562 C-68.87384537 165.25016129 -68.51331573 164.39680695 -68.14186096 163.51759338 C-67.3797297 161.70353237 -66.62559781 159.88609471 -65.87852478 158.06578064 C-63.64687993 152.6787696 -61.24297459 147.4643417 -58.57641602 142.27758789 C-47.71117866 120.54056711 -47.05304003 100.00101619 -47.18023682 76.00506592 C-47.19253699 71.02184048 -47.13070627 66.03950329 -47.07617188 61.05664062 C-46.98055575 51.37027746 -46.97028886 41.68678948 -47 32 C-35.78 31.67 -24.56 31.34 -13 31 C-9.09501815 21.5464758 -9.09501815 21.5464758 -5.19165039 12.09228516 C-4.70688232 10.91972168 -4.22211426 9.7471582 -3.72265625 8.5390625 C-3.22515869 7.33459473 -2.72766113 6.13012695 -2.21508789 4.88916016 C-1.52146306 3.23990232 -0.80014584 1.60029168 0 0 Z " fill="#010213" transform="translate(193,114)"/>
<path d="M0 0 C37.8863143 32.10021433 37.8863143 32.10021433 45.10693359 56.16894531 C46.6445806 61.04334518 48.66735131 65.72001303 50.625 70.4375 C54 78.7964841 54 78.7964841 54 80 C42.45 80 30.9 80 19 80 C18.67 68.45 18.34 56.9 18 45 C8.50778009 41.21404966 8.50778009 41.21404966 -0.99780273 37.46191406 C-2.17286377 36.98463867 -3.3479248 36.50736328 -4.55859375 36.015625 C-5.76829834 35.53383789 -6.97800293 35.05205078 -8.22436523 34.55566406 C-11 33 -11 33 -12.06054688 31.23242188 C-11.96965002 27.88096683 -10.78205973 25.34339813 -9.47265625 22.265625 C-9.20488876 21.62759949 -8.93712128 20.98957397 -8.66123962 20.33221436 C-7.80555138 18.30015126 -6.93431612 16.27518873 -6.0625 14.25 C-5.47877955 12.8715329 -4.89608491 11.49263094 -4.31445312 10.11328125 C-2.88816042 6.73706461 -1.44785123 3.36703704 0 0 Z " fill="#DF164E" transform="translate(126,275)"/>
<path d="M0 0 C3.76603869 1.56282982 6.13639151 3.9063475 8.984375 6.7890625 C9.44483215 7.25234955 9.90528931 7.7156366 10.37969971 8.19296265 C11.84125078 9.66565898 13.29567168 11.14517403 14.75 12.625 C15.74302611 13.62806322 16.73651089 14.63067257 17.73046875 15.6328125 C20.15897941 18.08330835 22.58114675 20.5399667 25 23 C32.82970688 20.57445369 40.22791238 17.37680545 47.7109375 14.05273438 C48.608125 13.66021484 49.5053125 13.26769531 50.4296875 12.86328125 C51.23647949 12.50532471 52.04327148 12.14736816 52.87451172 11.77856445 C55 11 55 11 58 11 C59.6945704 14.91271617 61.38512435 18.82713566 63.07202148 22.74316406 C63.64612244 24.07436572 64.2213071 25.40510057 64.79760742 26.73535156 C65.62706117 28.65046652 66.45256868 30.56724126 67.27734375 32.484375 C67.77484131 33.63647461 68.27233887 34.78857422 68.78491211 35.97558594 C69.73974299 38.35220738 70.42017077 40.52378638 71 43 C17.81112352 45.06089605 17.81112352 45.06089605 -0.55029297 34.36035156 C-4.85843921 31.96798652 -9.43681314 30.21740949 -14 28.375 C-15.56372554 27.71905983 -17.12637203 27.06053608 -18.6875 26.3984375 C-19.780625 25.93695313 -20.87375 25.47546875 -22 25 C-22 22 -22 22 -19.98046875 19.63989258 C-19.05878906 18.73392334 -18.13710937 17.8279541 -17.1875 16.89453125 C-16.69918701 16.4104631 -16.21087402 15.92639496 -15.70776367 15.42765808 C-14.14540174 13.8820986 -12.57293673 12.34728893 -11 10.8125 C-9.93942238 9.76696718 -8.87951771 8.72075127 -7.8203125 7.67382812 C-5.22130566 5.10791098 -2.6131361 2.55153533 0 0 Z " fill="#01B3E3" transform="translate(249,103)"/>
<path d="M0 0 C0 11.55 0 23.1 0 35 C-17.325 35.495 -17.325 35.495 -35 36 C-39.29 46.23 -43.58 56.46 -48 67 C-58.125 63.625 -58.125 63.625 -62.69140625 61.73828125 C-64.13676758 61.14370117 -64.13676758 61.14370117 -65.61132812 60.53710938 C-66.58521484 60.13298828 -67.55910156 59.72886719 -68.5625 59.3125 C-69.57119141 58.89677734 -70.57988281 58.48105469 -71.61914062 58.05273438 C-74.0805506 57.03784021 -76.54079283 56.02021747 -79 55 C-79 51.51186452 -78.62262009 51.21975996 -76.33569336 48.78881836 C-75.74837433 48.16035507 -75.1610553 47.53189178 -74.55593872 46.88438416 C-73.90712738 46.20968582 -73.25831604 45.53498749 -72.58984375 44.83984375 C-71.58472244 43.78688866 -71.58472244 43.78688866 -70.55929565 42.71266174 C-68.36778897 40.43825147 -66.15740922 38.18418813 -63.9375 35.9375 C-63.18592621 35.17679199 -62.43435242 34.41608398 -61.66000366 33.63232422 C-50.58388126 22.53537287 -41.01528656 14.40363781 -25.76318359 9.87597656 C-20.58037964 8.23293887 -15.62719808 5.9941698 -10.625 3.875 C-8.78590243 3.11740438 -6.94494161 2.36430494 -5.1015625 1.6171875 C-4.33150879 1.30378418 -3.56145508 0.99038086 -2.76806641 0.66748047 C-1 0 -1 0 0 0 Z " fill="#DF164D" transform="translate(355,320)"/>
<path d="M0 0 C53.1271904 -2.06651298 53.1271904 -2.06651298 72.45214844 8.63964844 C76.83879963 10.98177381 81.45810664 12.76040741 86.0625 14.625 C87.61737403 15.28033336 89.17094229 15.93878136 90.72265625 16.6015625 C91.80417969 17.06304687 92.88570313 17.52453125 94 18 C92.43717018 21.76603869 90.0936525 24.13639151 87.2109375 26.984375 C86.74765045 27.44483215 86.2843634 27.90528931 85.80703735 28.37969971 C84.33434102 29.84125078 82.85482597 31.29567168 81.375 32.75 C80.37193678 33.74302611 79.36932743 34.73651089 78.3671875 35.73046875 C75.91669165 38.15897941 73.4600333 40.58114675 71 43 C67.22674104 41.44917485 64.97304682 39.12109555 62.19140625 36.17578125 C61.27939453 35.23025391 60.36738281 34.28472656 59.42773438 33.31054688 C57.98815184 31.8088985 56.55375953 30.30319361 55.12963867 28.78686523 C53.74737156 27.32003255 52.34463086 25.87257812 50.94140625 24.42578125 C50.11326416 23.55348877 49.28512207 22.68119629 48.43188477 21.7824707 C46.1783567 19.74858913 46.1783567 19.74858913 43.59082031 20.06689453 C40.56617798 21.1562446 37.57828443 22.27814813 34.60546875 23.50390625 C33.40341797 23.99697266 32.20136719 24.49003906 30.96289062 24.99804688 C29.70438681 25.51943405 28.44592377 26.04091966 27.1875 26.5625 C25.90967423 27.08830158 24.63168104 27.61369647 23.35351562 28.13867188 C20.234007 29.42179052 17.11626734 30.70903385 14 32 C11.41962516 29.41962516 10.56820307 26.87557247 9.1796875 23.49609375 C8.91616486 22.85761002 8.65264221 22.21912628 8.38113403 21.56129456 C7.82579831 20.21313278 7.27286625 18.86397873 6.72216797 17.51391602 C5.87602755 15.44001854 5.02266299 13.3692131 4.16796875 11.29882812 C0 1.16072896 0 1.16072896 0 0 Z " fill="#01B3E3" transform="translate(180,355)"/>
<path d="M0 0 C5.80891746 4.81867247 11.13065552 10.01256408 16.4375 15.375 C17.26443359 16.20644531 18.09136719 17.03789062 18.94335938 17.89453125 C20.96455531 19.9274104 22.98336335 21.96259963 25 24 C21.73350857 27.96682719 18.39225309 31.65663679 14.66015625 35.19140625 C13.5319043 36.26745117 13.5319043 36.26745117 12.38085938 37.36523438 C10.81888849 38.84561958 9.24565984 40.31420563 7.66210938 41.77148438 C6.91896484 42.48755859 6.17582031 43.20363281 5.41015625 43.94140625 C4.73090088 44.57763916 4.05164551 45.21387207 3.35180664 45.86938477 C1.72039474 47.98824272 1.72039474 47.98824272 2.1418457 50.89770508 C2.99379965 53.97758527 4.02682663 56.77442592 5.3203125 59.6953125 C5.77277344 60.74074219 6.22523438 61.78617187 6.69140625 62.86328125 C7.65127946 65.04718896 8.61485536 67.22947281 9.58203125 69.41015625 C10.03191406 70.45300781 10.48179687 71.49585938 10.9453125 72.5703125 C11.36312988 73.51664551 11.78094727 74.46297852 12.21142578 75.43798828 C13 78 13 78 13.02880859 80.15087891 C11.34060138 83.18516497 8.75269509 83.75086257 5.59375 85.015625 C4.63390198 85.40666412 4.63390198 85.40666412 3.65466309 85.80560303 C1.6086142 86.63491206 -0.44532171 87.44234193 -2.5 88.25 C-3.88466758 88.80852682 -5.26879016 89.36840683 -6.65234375 89.9296875 C-16.74460222 94 -16.74460222 94 -18 94 C-20.49332831 40.24220193 -20.49332831 40.24220193 -7.62011719 17.05224609 C-4.69537074 11.54212251 -2.38087983 5.76207098 0 0 Z " fill="#02B3E3" transform="translate(373,226)"/>
<path d="M0 0 C2.36256805 34.42788233 0.67396638 64.48905043 -19 94 C-26.92 86.08 -34.84 78.16 -43 70 C-36.31130517 62.1965227 -36.31130517 62.1965227 -32.66015625 58.84375 C-31.90798828 58.13089844 -31.15582031 57.41804688 -30.38085938 56.68359375 C-28.82073709 55.21416097 -27.24746602 53.75857772 -25.66210938 52.31640625 C-21.25906064 48.26324169 -21.25906064 48.26324169 -19.6796875 42.734375 C-21.5982531 37.30789953 -23.75849227 32.02354726 -26.0625 26.75 C-26.99567214 24.6010306 -27.9242856 22.4500741 -28.84765625 20.296875 C-29.26023682 19.35166992 -29.67281738 18.40646484 -30.09790039 17.43261719 C-31 15 -31 15 -31 12 C-26.90844133 10.28651265 -22.81499689 8.57763792 -18.71972656 6.87304688 C-17.32629239 6.2922869 -15.93338525 5.71026074 -14.54101562 5.12695312 C-12.54173168 4.28964617 -10.54060824 3.45688311 -8.5390625 2.625 C-7.33459473 2.12226563 -6.13012695 1.61953125 -4.88916016 1.1015625 C-2 0 -2 0 0 0 Z " fill="#01B3E2" transform="translate(145,181)"/>
<path d="M0 0 C7.31905848 2.00234639 14.18564502 4.63203963 21.125 7.6875 C22.55972656 8.31108398 22.55972656 8.31108398 24.0234375 8.94726562 C26.35119804 9.95984146 28.67660297 10.97746162 31 12 C31 18.75817066 21.5958877 25.90536103 17.0625 30.625 C16.34591217 31.37177002 15.62932434 32.11854004 14.89102173 32.88793945 C-2.26054799 50.41469754 -23.33689229 60.08422307 -47 66 C-47 54.78 -47 43.56 -47 32 C-35.78 31.67 -24.56 31.34 -13 31 C-9.09501815 21.5464758 -9.09501815 21.5464758 -5.19165039 12.09228516 C-4.70688232 10.91972168 -4.22211426 9.7471582 -3.72265625 8.5390625 C-3.22515869 7.33459473 -2.72766113 6.13012695 -2.21508789 4.88916016 C-1.52146306 3.23990232 -0.80014584 1.60029168 0 0 Z " fill="#DE134B" transform="translate(193,114)"/>
<path d="M0 0 C11.22 0 22.44 0 34 0 C34.33 11.22 34.66 22.44 35 34 C45.23 38.29 55.46 42.58 66 47 C65.23843246 51.56940523 64.51952183 54.59998147 62.78515625 58.73046875 C62.34623047 59.78041016 61.90730469 60.83035156 61.45507812 61.91210938 C60.76575195 63.53342773 60.76575195 63.53342773 60.0625 65.1875 C59.60681641 66.27998047 59.15113281 67.37246094 58.68164062 68.49804688 C55.28148496 76.57777256 55.28148496 76.57777256 53 80 C48.25311943 75.48427542 43.5442631 70.93128868 38.8581543 66.35253906 C37.26512443 64.80433575 35.66405667 63.26435325 34.05444336 61.73339844 C24.45874051 52.59463382 16.9988491 44.60049761 12.68649292 31.95184326 C11.51205816 28.61267908 10.08193949 25.38243976 8.69140625 22.12890625 C8.16531868 20.86476236 7.64120669 19.59979437 7.11914062 18.33398438 C6.05698818 15.75983064 4.99171421 13.1870149 3.92382812 10.61523438 C3.40863608 9.36988187 2.89365329 8.12444276 2.37890625 6.87890625 C1.9207251 5.7710376 1.46254395 4.66316895 0.99047852 3.52172852 C0 1 0 1 0 0 Z " fill="#DE134B" transform="translate(320,146)"/>
<path d="M0 0 C2.71172285 22.20177069 2.71172285 22.20177069 -1.62011719 29.86669922 C-5.52921968 34.67939937 -10.12029087 38.62495042 -15.09887695 42.30029297 C-17.33544023 44.29990175 -18.47539557 46.42435353 -20 49 C-21.4848724 50.64206435 -23.02205328 52.2377528 -24.59765625 53.79296875 C-25.48130859 54.67017578 -26.36496094 55.54738281 -27.27539062 56.45117188 C-28.19513672 57.35416016 -29.11488281 58.25714844 -30.0625 59.1875 C-31.44791992 60.55938477 -31.44791992 60.55938477 -32.86132812 61.95898438 C-35.23680869 64.31017222 -37.61795585 66.65546835 -40 69 C-40.99 69.99 -40.99 69.99 -42 71 C-42 68 -42 68 -39.96459961 65.75097656 C-38.57253296 64.45885254 -38.57253296 64.45885254 -37.15234375 63.140625 C-36.14446638 62.1804384 -35.13732759 61.21947607 -34.13085938 60.2578125 C-32.53665765 58.75028153 -30.93727049 57.24978845 -29.32397461 55.76269531 C-27.76941415 54.32331397 -26.24133982 52.85965989 -24.71484375 51.390625 C-23.78792725 50.52469727 -22.86101074 49.65876953 -21.90600586 48.76660156 C-19.66151364 46.08314981 -19.66151364 46.08314981 -20.0625 42.52734375 C-20.93304849 39.25190506 -21.93287281 36.27620161 -23.28515625 33.171875 C-23.73310547 32.12515625 -24.18105469 31.0784375 -24.64257812 30 C-25.11115234 28.9275 -25.57972656 27.855 -26.0625 26.75 C-26.99567214 24.6010306 -27.9242856 22.4500741 -28.84765625 20.296875 C-29.26023682 19.35166992 -29.67281738 18.40646484 -30.09790039 17.43261719 C-31 15 -31 15 -31 12 C-26.90844133 10.28651265 -22.81499689 8.57763792 -18.71972656 6.87304688 C-17.32629239 6.2922869 -15.93338525 5.71026074 -14.54101562 5.12695312 C-12.54173168 4.28964617 -10.54060824 3.45688311 -8.5390625 2.625 C-7.33459473 2.12226563 -6.13012695 1.61953125 -4.88916016 1.1015625 C-2 0 -2 0 0 0 Z " fill="#02B4E3" transform="translate(145,181)"/>
<path d="M0 0 C0 11.55 0 23.1 0 35 C-11.55 35 -23.1 35 -35 35 C-34.01 32.03 -33.02 29.06 -32 26 C-31.60941406 24.69675781 -31.21882813 23.39351563 -30.81640625 22.05078125 C-28.62365393 15.51351033 -26.92368884 10.66943628 -20.4375 7.375 C-18.31094956 6.53290735 -16.16313199 5.74309946 -14 5 C-12.80117188 4.52046875 -11.60234375 4.0409375 -10.3671875 3.546875 C-1.5 0 -1.5 0 0 0 Z " fill="#DE184F" transform="translate(355,320)"/>
<path d="M0 0 C5.28 1.98 10.56 3.96 16 6 C18.5678125 6.85078125 18.5678125 6.85078125 21.1875 7.71875 C25.71233892 9.80052 27.12177115 13.14441362 28.94140625 17.62109375 C29.29074219 18.57113281 29.64007813 19.52117187 30 20.5 C30.38027344 21.45003906 30.76054687 22.40007812 31.15234375 23.37890625 C32.67971848 27.2435448 33.99050668 30.96202673 35 35 C23.45 35 11.9 35 0 35 C0 23.45 0 11.9 0 0 Z " fill="#DE184E" transform="translate(145,320)"/>
<path d="M0 0 C0.87462891 0.37705078 1.74925781 0.75410156 2.65039062 1.14257812 C4.79114676 2.06672968 6.92823647 2.9984751 9.0625 3.9375 C7.49967018 7.70353869 5.1561525 10.07389151 2.2734375 12.921875 C1.81015045 13.38233215 1.3468634 13.84278931 0.86953735 14.31719971 C-0.60315898 15.77875078 -2.08267403 17.23317168 -3.5625 18.6875 C-4.56556322 19.68052611 -5.56817257 20.67401089 -6.5703125 21.66796875 C-9.02080835 24.09647941 -11.4774667 26.51864675 -13.9375 28.9375 C-17.80078627 27.3527642 -20.22626923 24.87793113 -23.140625 21.9296875 C-23.6232782 21.44420441 -24.1059314 20.95872131 -24.60321045 20.45852661 C-26.13608562 18.91450134 -27.66184004 17.36365176 -29.1875 15.8125 C-30.22870361 14.76125991 -31.27036541 13.71047343 -32.3125 12.66015625 C-34.85949464 10.09116996 -37.40015177 7.51601839 -39.9375 4.9375 C-35.91614947 2.25659964 -31.64557363 0.58511221 -27.1875 -1.25 C-25.86492187 -1.82137695 -25.86492187 -1.82137695 -24.515625 -2.40429688 C-15.06796872 -6.27755477 -8.99436487 -3.96025647 0 0 Z " fill="#03B3E3" transform="translate(264.9375,369.0625)"/>
<path d="M0 0 C7.31905848 2.00234639 14.18564502 4.63203963 21.125 7.6875 C22.08148438 8.10322266 23.03796875 8.51894531 24.0234375 8.94726562 C26.35119804 9.95984146 28.67660297 10.97746162 31 12 C31 17.85013322 25.77827237 21.974347 21.97875977 26.06616211 C16.03141129 31.65060922 11.24797822 33.03260809 3.14770508 33.1887207 C-2.26411213 33.00461137 -7.62438654 32.65657708 -13 32 C-9.05894932 21.14406552 -4.73465131 10.53389877 0 0 Z " fill="#DE154C" transform="translate(193,114)"/>
<path d="M0 0 C4.02141141 1.60272014 8.04202402 3.20743491 12.0625 4.8125 C13.19623047 5.26431641 14.32996094 5.71613281 15.49804688 6.18164062 C21.02819672 8.39047598 26.54289232 10.61598053 32 13 C31.42265403 17.218407 30.43193364 20.80857757 28.78515625 24.73046875 C28.34623047 25.78041016 27.90730469 26.83035156 27.45507812 27.91210938 C26.99552734 28.99298828 26.53597656 30.07386719 26.0625 31.1875 C25.60681641 32.27998047 25.15113281 33.37246094 24.68164062 34.49804688 C21.28148496 42.57777256 21.28148496 42.57777256 19 46 C2.54559666 33.85373896 2.54559666 33.85373896 0.04931641 24.39941406 C-0.94270433 16.2704416 -0.69124987 8.1469978 0 0 Z " fill="#DE154D" transform="translate(354,180)"/>
<path d="M0 0 C1.71594407 3.92970967 3.42473046 7.86242953 5.12695312 11.7980957 C5.70702526 13.13651159 6.2890445 14.47408536 6.87304688 15.81079102 C7.71217009 17.73235463 8.5442432 19.65683844 9.375 21.58203125 C9.87773437 22.73936768 10.38046875 23.8967041 10.8984375 25.08911133 C12 28 12 28 12 31 C-10.20841221 33.71253404 -10.20841221 33.71253404 -17.94726562 29.33154297 C-23.41322071 24.93382298 -27.89003999 19.66548725 -32 14 C-29.46011033 11.01508225 -26.70539155 9.8122164 -23.125 8.30078125 C-21.97515625 7.81416016 -20.8253125 7.32753906 -19.640625 6.82617188 C-18.43921875 6.32666016 -17.2378125 5.82714844 -16 5.3125 C-14.79859375 4.80138672 -13.5971875 4.29027344 -12.359375 3.76367188 C-3.39490154 0 -3.39490154 0 0 0 Z " fill="#02B3E3" transform="translate(307,114)"/>
<path d="M0 0 C3 1 3 1 4.36621094 3.52856445 C4.81770508 4.629021 5.26919922 5.72947754 5.734375 6.86328125 C6.22550781 8.06017578 6.71664063 9.25707031 7.22265625 10.49023438 C7.47289551 11.11760498 7.72313477 11.74497559 7.98095703 12.39135742 C8.7455236 14.30131752 9.5333931 16.20039599 10.32421875 18.09960938 C10.81019531 19.30037109 11.29617188 20.50113281 11.796875 21.73828125 C12.46734863 23.39404175 12.46734863 23.39404175 13.15136719 25.08325195 C14 28 14 28 14.03808594 30.20288086 C12.32036822 33.17656857 9.71854278 33.7645363 6.59375 35.015625 C5.95385132 35.27631775 5.31395264 35.5370105 4.65466309 35.80560303 C2.6086142 36.63491206 0.55467829 37.44234193 -1.5 38.25 C-2.88466758 38.80852682 -4.26879016 39.36840683 -5.65234375 39.9296875 C-15.74460222 44 -15.74460222 44 -17 44 C-19.71253404 21.79158779 -19.71253404 21.79158779 -15.33154297 14.05273438 C-10.93382298 8.58677929 -5.66548725 4.10996001 0 0 Z " fill="#02B3E3" transform="translate(372,276)"/>
<path d="M0 0 C0.33 0.66 0.66 1.32 1 2 C0.1706543 4.40063477 0.1706543 4.40063477 -1.17578125 7.44140625 C-1.66965332 8.57118896 -2.16352539 9.70097168 -2.67236328 10.86499023 C-2.93986389 11.46785858 -3.2073645 12.07072693 -3.48297119 12.69186401 C-4.88446468 15.8523138 -6.26018879 19.02392822 -7.63671875 22.1953125 C-7.91833862 22.84283981 -8.1999585 23.49036713 -8.4901123 24.15751648 C-11.32541093 30.70136172 -13.99423455 37.30895914 -16.625 43.9375 C-17.03790283 44.977854 -17.45080566 46.01820801 -17.8762207 47.09008789 C-18.60070791 48.92009116 -19.3239861 50.75057412 -20.04541016 52.58178711 C-21.02273027 55.0575814 -22.00975617 57.5293499 -23 60 C-23.33 60 -23.66 60 -24 60 C-24 43.5 -24 27 -24 10 C-16.08 6.7 -8.16 3.4 0 0 Z " fill="#021248" transform="translate(169,170)"/>
<path d="M0 0 C0.33 0 0.66 0 1 0 C1 16.5 1 33 1 50 C-11.375 55.625 -11.375 55.625 -17.1875 57.8125 C-18.29480469 58.23144531 -19.40210938 58.65039062 -20.54296875 59.08203125 C-21.35378906 59.38496094 -22.16460937 59.68789063 -23 60 C-22.40639858 55.23887897 -20.9967516 51.15727133 -19.0859375 46.79296875 C-18.79515823 46.11415649 -18.50437897 45.43534424 -18.20478821 44.73596191 C-17.58590074 43.29321971 -16.96404783 41.85174647 -16.33944702 40.41146851 C-15.36986498 38.17565889 -14.40803838 35.93666403 -13.44848633 33.6965332 C-12.19614608 30.77332775 -10.94154532 27.85111288 -9.68505859 24.9296875 C-7.6520866 20.19624277 -5.65355684 15.44912958 -3.6875 10.6875 C-3.41663574 10.03869873 -3.14577148 9.38989746 -2.86669922 8.72143555 C-1.68292204 5.84750963 -0.63933417 3.04623928 0 0 Z " fill="#011249" transform="translate(354,270)"/>
<path d="M0 0 C6.04160871 1.9299514 11.91149026 4.10935832 17.75390625 6.57421875 C18.54022934 6.90291458 19.32655243 7.23161041 20.13670349 7.57026672 C22.61325185 8.60631281 25.08789611 9.64681935 27.5625 10.6875 C29.25573471 11.39678207 30.94909303 12.10576909 32.64257812 12.81445312 C36.76315368 14.53956616 40.88202954 16.26867816 45 18 C45 18.33 45 18.66 45 19 C24.21 19 3.42 19 -18 19 C-11.25 11.125 -11.25 11.125 -8.7890625 8.69140625 C-8.26699219 8.17255859 -7.74492187 7.65371094 -7.20703125 7.11914062 C-6.68496094 6.60544922 -6.16289062 6.09175781 -5.625 5.5625 C-5.07972656 5.02173828 -4.53445312 4.48097656 -3.97265625 3.92382812 C-2.65076536 2.61353277 -1.32572382 1.30641716 0 0 Z " fill="#000D41" transform="translate(225,127)"/>
<path d="M0 0 C4.67392462 0.7085349 8.77942298 2.38862843 13.125 4.16796875 C14.30002075 4.64391228 14.30002075 4.64391228 15.4987793 5.12947083 C17.15711305 5.80237116 18.81456632 6.47744498 20.47119141 7.15454102 C22.96161635 8.17182118 25.45513198 9.1811895 27.94921875 10.18945312 C51.80954867 19.87303245 51.80954867 19.87303245 58 24 C42.16 24 26.32 24 10 24 C4.375 11.625 4.375 11.625 2.1875 5.8125 C1.76855469 4.70519531 1.34960938 3.59789062 0.91796875 2.45703125 C0.61503906 1.64621094 0.31210938 0.83539063 0 0 Z " fill="#000D41" transform="translate(170,331)"/>
<path d="M0 0 C20.79 0 41.58 0 63 0 C56.25 7.875 56.25 7.875 53.7890625 10.30859375 C53.00595703 11.08686523 53.00595703 11.08686523 52.20703125 11.88085938 C51.68496094 12.39455078 51.16289062 12.90824219 50.625 13.4375 C49.80708984 14.24864258 49.80708984 14.24864258 48.97265625 15.07617188 C47.65076536 16.38646723 46.32572382 17.69358284 45 19 C30 13 15 7 0 1 C0 0.67 0 0.34 0 0 Z " fill="#010D42" transform="translate(230,355)"/>
<path d="M0 0 C15.51 0 31.02 0 47 0 C49.51365277 5.02730553 51.77001515 9.68059529 53.75 14.875 C54.17796875 15.98617187 54.6059375 17.09734375 55.046875 18.2421875 C56 21 56 21 56 23 C50.91020531 22.3856288 46.69884499 20.82415018 42.03125 18.83203125 C41.2738855 18.51473557 40.516521 18.19743988 39.73620605 17.87052917 C37.321565 16.85717919 34.91079494 15.83496125 32.5 14.8125 C30.91170131 14.14460419 29.3231615 13.47728146 27.734375 12.81054688 C18.47092435 8.91738426 9.23015408 4.97139524 0 1 C0 0.67 0 0.34 0 0 Z " fill="#010C41" transform="translate(273,146)"/>
<path d="M0 0 C0.33 0 0.66 0 1 0 C1.16931223 7.0798985 1.32898968 14.15996879 1.48217773 21.24023438 C1.53533136 23.64555709 1.59063727 26.05083329 1.64819336 28.45605469 C1.7308532 31.9263303 1.80560333 35.39670311 1.87890625 38.8671875 C1.90594131 39.93113739 1.93297638 40.99508728 1.96083069 42.09127808 C2.08655224 48.47425368 1.80224543 54.66514293 1 61 C-3.47267831 57.3224645 -7.78596581 53.47111148 -12 49.5 C-12.5050708 49.04971436 -13.0101416 48.59942871 -13.53051758 48.13549805 C-14.9375 46.78125 -14.9375 46.78125 -17 44 C-16.70020779 38.63376942 -14.50084467 33.97163892 -12.40234375 29.1015625 C-11.87176109 27.84912247 -11.87176109 27.84912247 -11.33045959 26.57138062 C-10.20556246 23.91994935 -9.07168341 21.27247033 -7.9375 18.625 C-7.17062676 16.82186845 -6.40434418 15.01848558 -5.63867188 13.21484375 C-3.76594169 8.80695618 -1.88514968 4.40258952 0 0 Z " fill="#010E43" transform="translate(144,232)"/>
<path d="M0 0 C4.43312027 3.79981738 8.7864683 7.53789023 13 11.5625 C13.50144531 12.01818359 14.00289063 12.47386719 14.51953125 12.94335938 C15.9375 14.31640625 15.9375 14.31640625 18 17 C17.6590445 21.90543321 15.27436608 26.52827961 13.40234375 31.01953125 C13.04862198 31.87810226 12.69490021 32.73667328 12.33045959 33.6212616 C11.20369754 36.35344153 10.07069335 39.0829821 8.9375 41.8125 C8.17081034 43.66844898 7.40452959 45.52456694 6.63867188 47.38085938 C4.76384755 51.92254472 2.88342208 56.46187376 1 61 C0.34 61 -0.32 61 -1 61 C-0.67 40.87 -0.34 20.74 0 0 Z " fill="#000D42" transform="translate(355,208)"/>
<path d="M0 0 C2.04248947 1.41072371 3.1562749 2.72165537 4.57788086 4.74707031 C8.99795614 10.40364506 13.0827038 15.42061014 20.33129883 17.10546875 C28.50815673 17.99625855 36.69122368 17.81977431 44.89038086 17.30566406 C44.89038086 17.63566406 44.89038086 17.96566406 44.89038086 18.30566406 C38.11805333 18.51159895 31.34655558 18.64986547 24.57177734 18.74511719 C22.2762232 18.7848976 19.9808655 18.83914384 17.68603516 18.90917969 C1.88408024 19.3787156 -10.0795795 17.81771124 -24.10961914 10.30566406 C-20.501295 6.54719516 -16.42580921 5.00611572 -11.67211914 2.99316406 C-10.81295898 2.60837891 -9.95379883 2.22359375 -9.06860352 1.82714844 C-8.23780273 1.47330078 -7.40700195 1.11945313 -6.55102539 0.75488281 C-5.7950708 0.42834717 -5.03911621 0.10181152 -4.26025391 -0.23461914 C-2.10961914 -0.69433594 -2.10961914 -0.69433594 0 0 Z " fill="#007BCA" transform="translate(275.109619140625,127.6943359375)"/>
<path d="M0 0 C1.71083981 1.46524555 3.42098958 2.93124865 5.12890625 4.39990234 C6.61629759 5.67187035 8.11821209 6.92685139 9.625 8.17578125 C17.40556576 15.17573104 20.84772447 23.21959545 24 33 C24 33.99 24 34.98 24 36 C18.94912762 34.39693205 14.08013836 32.46045789 9.1875 30.4375 C8.41212891 30.12103516 7.63675781 29.80457031 6.83789062 29.47851562 C1.12395368 27.12395368 1.12395368 27.12395368 0 26 C-0.08748207 24.07332493 -0.10697334 22.14348139 -0.09765625 20.21484375 C-0.09443359 19.04501953 -0.09121094 17.87519531 -0.08789062 16.66992188 C-0.07951172 15.43822266 -0.07113281 14.20652344 -0.0625 12.9375 C-0.05798828 11.70193359 -0.05347656 10.46636719 -0.04882812 9.19335938 C-0.03699608 6.12885883 -0.02051173 3.06445279 0 0 Z " fill="#C40113" transform="translate(145,294)"/>
<path d="M0 0 C20.58743256 6.51935364 20.58743256 6.51935364 24 11 C24.34057617 13.63549805 24.34057617 13.63549805 24.29296875 16.76171875 C24.28330078 17.87998047 24.27363281 18.99824219 24.26367188 20.15039062 C24.23853516 21.31763672 24.21339844 22.48488281 24.1875 23.6875 C24.16719727 25.45577148 24.16719727 25.45577148 24.14648438 27.25976562 C24.11109326 30.17363411 24.06171809 33.08658945 24 36 C22.27893249 34.52558619 20.5583857 33.05060043 18.83984375 31.57324219 C17.43518826 30.37212754 16.01733502 29.18642997 14.59375 28.0078125 C6.69837409 20.90786625 1.63044112 10.51634521 0 0 Z " fill="#C30113" transform="translate(331,171)"/>
<path d="M0 0 C16.25324255 -1.15020225 28.35609809 0.81438329 43 8 C39.73487122 11.26512878 35.42429975 12.47665697 31.1875 14.1875 C30.28451172 14.56841797 29.38152344 14.94933594 28.45117188 15.34179688 C27.57396484 15.69693359 26.69675781 16.05207031 25.79296875 16.41796875 C24.9939917 16.74563232 24.19501465 17.0732959 23.37182617 17.41088867 C20.46621745 18.13258027 18.83477102 17.95066818 16 17 C13.96362305 15.43359375 13.96362305 15.43359375 12.01171875 13.4375 C11.30595703 12.72335937 10.60019531 12.00921875 9.87304688 11.2734375 C9.15181641 10.52320313 8.43058594 9.77296875 7.6875 9 C6.94693359 8.24976563 6.20636719 7.49953125 5.44335938 6.7265625 C0 1.16781394 0 1.16781394 0 0 Z " fill="#007CCD" transform="translate(207,355)"/>
<path d="M0 0 C-0.57730603 5.66309725 -2.70782556 10.2737471 -5.0625 15.375 C-6.361875 18.22125 -7.66125 21.0675 -9 24 C-17.58 24 -26.16 24 -35 24 C-33.02 21.69 -31.04 19.38 -29 17 C-28.36578125 16.21753906 -27.7315625 15.43507813 -27.078125 14.62890625 C-21.23119458 8.01987592 -9.29613327 0 0 0 Z " fill="#C40113" transform="translate(329,331)"/>
<path d="M0 0 C0.33 0 0.66 0 1 0 C1.37125 1.175625 1.7425 2.35125 2.125 3.5625 C3.1536454 6.69837044 4.29455531 9.75503402 5.5703125 12.796875 C5.84601074 13.45872803 6.12170898 14.12058105 6.40576172 14.80249023 C6.96291165 16.12898399 7.52947731 17.45156719 8.10595703 18.76977539 C9.58794195 22.31058504 10.40552383 24.39130457 9 28 C7.43359375 29.92285156 7.43359375 29.92285156 5.4375 31.890625 C4.72335937 32.59960938 4.00921875 33.30859375 3.2734375 34.0390625 C2.52320313 34.76867187 1.77296875 35.49828125 1 36.25 C-0.12535156 37.36761719 -0.12535156 37.36761719 -1.2734375 38.5078125 C-6.84609661 44 -6.84609661 44 -8 44 C-9.11698072 27.40854021 -7.40377606 14.93976241 0 0 Z " fill="#007CCD" transform="translate(363,249)"/>
<path d="M0 0 C2.61376953 -0.34057617 2.61376953 -0.34057617 5.8828125 -0.29296875 C7.04941406 -0.28330078 8.21601563 -0.27363281 9.41796875 -0.26367188 C10.64128906 -0.23853516 11.86460937 -0.21339844 13.125 -0.1875 C14.35605469 -0.17396484 15.58710938 -0.16042969 16.85546875 -0.14648438 C19.90407843 -0.11103543 22.951825 -0.06162079 26 0 C25.41448364 0.68074585 25.41448364 0.68074585 24.81713867 1.37524414 C24.2935376 1.98489014 23.76993652 2.59453613 23.23046875 3.22265625 C22.6792334 3.86348145 22.12799805 4.50430664 21.56005859 5.16455078 C20.38605173 6.54580017 19.24200217 7.95259769 18.11328125 9.37109375 C11.54795295 16.90484358 1.62225387 21.48426051 -8 24 C-8.66 23.67 -9.32 23.34 -10 23 C-8.71399975 19.72691041 -7.42022987 16.45694704 -6.125 13.1875 C-5.76019531 12.25873047 -5.39539063 11.32996094 -5.01953125 10.37304688 C-4.66503906 9.48037109 -4.31054688 8.58769531 -3.9453125 7.66796875 C-3.45828857 6.43469849 -3.45828857 6.43469849 -2.96142578 5.17651367 C-2 3 -2 3 0 0 Z " fill="#C30113" transform="translate(180,146)"/>
<path d="M0 0 C1.08892343 16.31081649 -0.32704549 28.47619325 -8 43 C-10.24689236 38.57758495 -12.22036263 34.05222365 -14.1875 29.5 C-14.75887695 28.21802734 -14.75887695 28.21802734 -15.34179688 26.91015625 C-15.69693359 26.08386719 -16.05207031 25.25757813 -16.41796875 24.40625 C-16.90946411 23.28186523 -16.90946411 23.28186523 -17.41088867 22.13476562 C-18.11789321 19.57278978 -18.02124249 18.44612613 -17 16 C-15.43359375 14.07714844 -15.43359375 14.07714844 -13.4375 12.109375 C-12.72335938 11.40039062 -12.00921875 10.69140625 -11.2734375 9.9609375 C-10.52320313 9.23132813 -9.77296875 8.50171875 -9 7.75 C-8.24976563 7.00492188 -7.49953125 6.25984375 -6.7265625 5.4921875 C-1.15390339 0 -1.15390339 0 0 0 Z " fill="#007CCD" transform="translate(145,208)"/>
<path d="M0 0 C4.95726897 1.56062171 4.95726897 1.56062171 6.375 4.0625 C6.90140423 8.12333261 6.74441991 10.36799057 4.8125 14 C2.375 16.0625 2.375 16.0625 -1.1875 16.5625 C-4.625 16.0625 -4.625 16.0625 -6.5 15 C-8.29390244 11.91050135 -8.625 9.63353936 -8.625 6.0625 C-6.76444054 1.88518622 -4.70588827 0.081136 0 0 Z " fill="#E1E1E3" transform="translate(238.625,240.9375)"/>
<path d="M0 0 C1.77007714 -0.08114106 3.54122098 -0.13925505 5.3125 -0.1875 C6.29863281 -0.22230469 7.28476562 -0.25710937 8.30078125 -0.29296875 C11 0 11 0 12.828125 1.30078125 C14.82626033 4.19807748 14.41023845 6.60088144 14 10 C12.6875 12.9375 12.6875 12.9375 10 15 C6.29677822 15.41561338 2.70972047 15.28782314 -1 15 C-0.67 14.34 -0.34 13.68 0 13 C0.07092842 10.7927077 0.08415025 8.58332548 0.0625 6.375 C0.05347656 5.18648437 0.04445313 3.99796875 0.03515625 2.7734375 C0.02355469 1.85820312 0.01195312 0.94296875 0 0 Z " fill="#E4E4E6" transform="translate(280,242)"/>
<path d="M0 0 C1.93627769 -0.10807131 3.87427756 -0.1856225 5.8125 -0.25 C7.43091797 -0.31960937 7.43091797 -0.31960937 9.08203125 -0.390625 C12 0 12 0 13.85546875 1.83203125 C15.44694866 4.84660923 15.54941234 6.63484942 15 10 C13.125 12.875 13.125 12.875 10 15 C6.62352309 15.4072392 3.3825236 15.29556031 0 15 C0.33 14.34 0.66 13.68 1 13 C1.22858114 10.9625237 1.41024278 8.91959697 1.5625 6.875 C1.64628906 5.77929688 1.73007812 4.68359375 1.81640625 3.5546875 C1.87699219 2.71164063 1.93757813 1.86859375 2 1 C1.34 0.67 0.68 0.34 0 0 Z " fill="#E1E1E3" transform="translate(306,215)"/>
<path d="M0 0 C0.33 0 0.66 0 1 0 C1 6.93 1 13.86 1 21 C0.01 21.33 -0.98 21.66 -2 22 C-2.68486725 23.32407669 -3.34870203 24.65909241 -4 26 C-6 28.25 -6 28.25 -8 30 C-8.66 30 -9.32 30 -10 30 C-10.28875 30.639375 -10.5775 31.27875 -10.875 31.9375 C-12 34 -12 34 -14 35 C-12.5869121 30.59656011 -10.95548898 26.33979266 -9.1796875 22.0703125 C-8.78440353 21.11751907 -8.78440353 21.11751907 -8.38113403 20.14547729 C-7.54770588 18.13783474 -6.71140361 16.13140451 -5.875 14.125 C-5.30579839 12.75528777 -4.73678612 11.38549684 -4.16796875 10.015625 C-2.78083312 6.6761709 -1.39111912 3.33779699 0 0 Z " fill="#00093B" transform="translate(353,274)"/>
<path d="M0 0 C2.31 0 4.62 0 7 0 C6.01 0.495 6.01 0.495 5 1 C5.99 3.97 6.98 6.94 8 10 C8.185625 8.72125 8.37125 7.4425 8.5625 6.125 C8.66691406 5.40570313 8.77132812 4.68640625 8.87890625 3.9453125 C9.1684297 1.91859333 9.1684297 1.91859333 8 0 C10.31 0 12.62 0 15 0 C15 3.3 15 6.6 15 10 C15.66 10 16.32 10 17 10 C17.66 7.03 18.32 4.06 19 1 C18.34 0.67 17.68 0.34 17 0 C18.98 0 20.96 0 23 0 C21.35 4.95 19.7 9.9 18 15 C16.35 15 14.7 15 13 15 C12.67 13.02 12.34 11.04 12 9 C9.89767656 11.8684413 9.89767656 11.8684413 9 15 C7.35 14.67 5.7 14.34 4 14 C3.79503906 13.15695313 3.59007812 12.31390625 3.37890625 11.4453125 C3.10949219 10.34960938 2.84007812 9.25390625 2.5625 8.125 C2.16224609 6.48917969 2.16224609 6.48917969 1.75390625 4.8203125 C1.1213522 2.07515279 1.1213522 2.07515279 0 0 Z " fill="#ECECED" transform="translate(205,242)"/>
<path d="M0 0 C1 2 1 2 0.04370117 4.96508789 C-0.44807413 6.22095993 -0.9489789 7.47328027 -1.45703125 8.72265625 C-1.72005539 9.38333603 -1.98307953 10.04401581 -2.2540741 10.72471619 C-2.81281466 12.12243977 -3.37545186 13.51861095 -3.94165039 14.91333008 C-4.80873474 17.05320772 -5.66004791 19.19887938 -6.50976562 21.34570312 C-7.05375151 22.70089692 -7.59864325 24.05572753 -8.14453125 25.41015625 C-8.39983109 26.05493423 -8.65513092 26.69971222 -8.91816711 27.36402893 C-10.76980906 31.88490453 -10.76980906 31.88490453 -13 33 C-14.93890675 16.37843186 -14.93890675 16.37843186 -11.72412109 10.77685547 C-8.32883184 6.58267462 -4.29741308 3.23486589 0 0 Z " fill="#00093B" transform="translate(159,193)"/>
<path d="M0 0 C1.60875 -0.020625 3.2175 -0.04125 4.875 -0.0625 C5.77992188 -0.07410156 6.68484375 -0.08570313 7.6171875 -0.09765625 C10 0 10 0 12 1 C12.20086443 4.71599191 12.1519437 5.77208445 10 9 C11.98 11.97 11.98 11.97 14 15 C11.6875 15.3125 11.6875 15.3125 9 15 C7.3125 12.5625 7.3125 12.5625 6 10 C5.34 9.67 4.68 9.34 4 9 C4 10.32 4 11.64 4 13 C4.66 13 5.32 13 6 13 C6 13.66 6 14.32 6 15 C4.02 15 2.04 15 0 15 C0 10.05 0 5.1 0 0 Z " fill="#E2E2E4" transform="translate(211,215)"/>
<path d="M0 0 C1.79133978 -0.05391993 3.58313899 -0.09275571 5.375 -0.125 C6.37273437 -0.14820313 7.37046875 -0.17140625 8.3984375 -0.1953125 C11 0 11 0 13 2 C12.625 4.375 12.625 4.375 12 7 C12 8.32 12 9.64 12 11 C12 11.66 12 12.32 12 13 C12.66 13 13.32 13 14 13 C14 13.66 14 14.32 14 15 C11.625 14.75 11.625 14.75 9 14 C7.8125 12 7.8125 12 7 10 C6.34 9.67 5.68 9.34 5 9 C5 10.32 5 11.64 5 13 C5.66 13 6.32 13 7 13 C7 13.66 7 14.32 7 15 C4.69 15 2.38 15 0 15 C0.33 14.34 0.66 13.68 1 13 C1.22858114 10.9625237 1.41024278 8.91959697 1.5625 6.875 C1.64628906 5.77929688 1.73007813 4.68359375 1.81640625 3.5546875 C1.87699219 2.71164063 1.93757812 1.86859375 2 1 C1.34 0.67 0.68 0.34 0 0 Z " fill="#E8E8E9" transform="translate(248,242)"/>
<path d="M0 0 C1.423125 -0.061875 2.84625 -0.12375 4.3125 -0.1875 C5.51326172 -0.23970703 5.51326172 -0.23970703 6.73828125 -0.29296875 C9 0 9 0 10.765625 1.35546875 C12 3 12 3 12.4375 5.5 C12 8 12 8 10.1875 9.8125 C8 11 8 11 5 11 C5.33 12.65 5.66 14.3 6 16 C4.02 16 2.04 16 0 16 C0 10.72 0 5.44 0 0 Z " fill="#B8B8BC" transform="translate(180,214)"/>
<path d="M0 0 C1.79133978 -0.05391993 3.58313899 -0.09275571 5.375 -0.125 C6.37273437 -0.14820313 7.37046875 -0.17140625 8.3984375 -0.1953125 C11 0 11 0 13 2 C12.8125 5 12.8125 5 12 8 C9 10 9 10 5 10 C5.66 11.65 6.32 13.3 7 15 C4.69 15 2.38 15 0 15 C0.33 14.34 0.66 13.68 1 13 C1.22858114 10.9625237 1.41024278 8.91959697 1.5625 6.875 C1.64628906 5.77929688 1.73007813 4.68359375 1.81640625 3.5546875 C1.87699219 2.71164063 1.93757812 1.86859375 2 1 C1.34 0.67 0.68 0.34 0 0 Z " fill="#EFEFF0" transform="translate(227,215)"/>
<path d="M0 0 C2.31 0 4.62 0 7 0 C7.33 1.32 7.66 2.64 8 4 C8.33 2.68 8.66 1.36 9 0 C10.98 0 12.96 0 15 0 C14.319375 0.9075 13.63875 1.815 12.9375 2.75 C10.75876983 5.68599277 10.75876983 5.68599277 11.1875 8.1875 C11.455625 8.785625 11.72375 9.38375 12 10 C12.33 10.99 12.66 11.98 13 13 C13.66 13 14.32 13 15 13 C15 13.66 15 14.32 15 15 C12.69 15 10.38 15 8 15 C8 13.68 8 12.36 8 11 C7.34 11 6.68 11 6 11 C6 12.32 6 13.64 6 15 C4.02 15 2.04 15 0 15 C1.15173355 12.53199953 2.04783565 10.95216435 4 9 C3.67673447 5.40320934 3.67673447 5.40320934 3 2 C2.01 1.67 1.02 1.34 0 1 C0 0.67 0 0.34 0 0 Z " fill="#EDEDEE" transform="translate(272,215)"/>
<path d="M0 0 C3.96 0 7.92 0 12 0 C12 1.65 12 3.3 12 5 C11.01 5 10.02 5 9 5 C9 4.34 9 3.68 9 3 C7.68 3 6.36 3 5 3 C5 4.32 5 5.64 5 7 C6.65 7 8.3 7 10 7 C10 7.66 10 8.32 10 9 C8.35 9 6.7 9 5 9 C5 10.65 5 12.3 5 14 C6.97536745 13.65213292 6.97536745 13.65213292 9 13 C9.33 12.34 9.66 11.68 10 11 C10.66 11 11.32 11 12 11 C12 12.65 12 14.3 12 16 C8.04 16 4.08 16 0 16 C0 15.34 0 14.68 0 14 C0.66 14 1.32 14 2 14 C2 10.04 2 6.08 2 2 C1.34 2 0.68 2 0 2 C0 1.34 0 0.68 0 0 Z " fill="#DBDBDD" transform="translate(257,214)"/>
<path d="M0 0 C3.96 0 7.92 0 12 0 C12 1.65 12 3.3 12 5 C11.01 5 10.02 5 9 5 C9 4.34 9 3.68 9 3 C7.68 3 6.36 3 5 3 C5 4.32 5 5.64 5 7 C6.65 7 8.3 7 10 7 C10 7.66 10 8.32 10 9 C8.35 9 6.7 9 5 9 C5 10.65 5 12.3 5 14 C6.97536745 13.65213292 6.97536745 13.65213292 9 13 C9.33 12.34 9.66 11.68 10 11 C10.66 11 11.32 11 12 11 C12 12.65 12 14.3 12 16 C8.04 16 4.08 16 0 16 C0 15.34 0 14.68 0 14 C0.66 14 1.32 14 2 14 C2 10.04 2 6.08 2 2 C1.34 2 0.68 2 0 2 C0 1.34 0 0.68 0 0 Z " fill="#DBDBDD" transform="translate(195,214)"/>
<path d="M0 0 C3.63 0 7.26 0 11 0 C11 1.32 11 2.64 11 4 C10.34 4 9.68 4 9 4 C9 3.34 9 2.68 9 2 C7.35 2 5.7 2 4 2 C4 3.32 4 4.64 4 6 C5.65 6 7.3 6 9 6 C9 6.66 9 7.32 9 8 C7.35 8 5.7 8 4 8 C4 9.65 4 11.3 4 13 C5.65 13 7.3 13 9 13 C9 12.01 9 11.02 9 10 C9.99 10 10.98 10 12 10 C11.67 11.65 11.34 13.3 11 15 C7.04 15 3.08 15 -1 15 C-0.67 14.34 -0.34 13.68 0 13 C0.07092842 10.7927077 0.08415025 8.58332548 0.0625 6.375 C0.05347656 5.18648437 0.04445313 3.99796875 0.03515625 2.7734375 C0.02355469 1.85820312 0.01195312 0.94296875 0 0 Z " fill="#F3F3F4" transform="translate(291,215)"/>
<path d="M0 0 C0.33 0.66 0.66 1.32 1 2 C1.33 1.34 1.66 0.68 2 0 C3.65 0 5.3 0 7 0 C8.125 3.75 8.125 3.75 7 6 C6.030625 5.814375 5.06125 5.62875 4.0625 5.4375 C3.051875 5.293125 2.04125 5.14875 1 5 C0.67 5.33 0.34 5.66 0 6 C-1.66605828 6.0450286 -3.33378384 6.03874921 -5 6 C-6.32 6 -7.64 6 -9 6 C-9 4.02 -9 2.04 -9 0 C-5.88173308 -1.55913346 -3.32926126 -0.66585225 0 0 Z " fill="#555661" transform="translate(288,281)"/>
<path d="M0 0 C1.98 0 3.96 0 6 0 C5.67 4.29 5.34 8.58 5 13 C5.99 12.67 6.98 12.34 8 12 C8.33 11.01 8.66 10.02 9 9 C9.66 9 10.32 9 11 9 C11 10.98 11 12.96 11 15 C7.37 15 3.74 15 0 15 C0 10.05 0 5.1 0 0 Z " fill="#DCDCDE" transform="translate(243,215)"/>
<path d="M0 0 C2.5 0.125 2.5 0.125 3.5 1.125 C3.57179964 2.64428038 3.58392007 4.16667482 3.5625 5.6875 C3.55347656 6.51378906 3.54445312 7.34007812 3.53515625 8.19140625 C3.51775391 9.14853516 3.51775391 9.14853516 3.5 10.125 C1.125 10.75 1.125 10.75 -1.5 11.125 C-3.5 9.125 -3.5 9.125 -3.73046875 7.21484375 C-3.59001726 0.17950086 -3.59001726 0.17950086 0 0 Z " fill="#0A0B1B" transform="translate(237.5,243.875)"/>
<path d="M0 0 C2.31 0 4.62 0 7 0 C6.67 0.66 6.34 1.32 6 2 C5.7724985 3.87056791 5.59037189 5.74685958 5.4375 7.625 C5.31181641 9.12933594 5.31181641 9.12933594 5.18359375 10.6640625 C5.12300781 11.43492187 5.06242187 12.20578125 5 13 C6.32 13 7.64 13 9 13 C9 12.01 9 11.02 9 10 C9.66 10 10.32 10 11 10 C11 11.65 11 13.3 11 15 C7.37 15 3.74 15 0 15 C0.33 14.34 0.66 13.68 1 13 C1.22858114 10.9625237 1.41024278 8.91959697 1.5625 6.875 C1.64628906 5.77929688 1.73007812 4.68359375 1.81640625 3.5546875 C1.87699219 2.71164063 1.93757813 1.86859375 2 1 C1.34 0.67 0.68 0.34 0 0 Z " fill="#F7F7F8" transform="translate(265,242)"/>
<path d="M0 0 C1.65 0 3.3 0 5 0 C6 1 6 1 6.1328125 3.03125 C6.13023437 3.8459375 6.12765625 4.660625 6.125 5.5 C6.12757813 6.3146875 6.13015625 7.129375 6.1328125 7.96875 C6 10 6 10 5 11 C3.35 11 1.7 11 0 11 C0 7.37 0 3.74 0 0 Z " fill="#111222" transform="translate(284,244)"/>
<path d="M0 0 C2.64 0 5.28 0 8 0 C8 0.66 8 1.32 8 2 C6.68 2 5.36 2 4 2 C4 3.98 4 5.96 4 8 C4.99 8.33 5.98 8.66 7 9 C6.01 9 5.02 9 4 9 C4.66 10.98 5.32 12.96 6 15 C4.02 15 2.04 15 0 15 C0 10.05 0 5.1 0 0 Z " fill="#EAEAEB" transform="translate(180,215)"/>
<path d="M0 0 C2.97 0 5.94 0 9 0 C7.68 0.33 6.36 0.66 5 1 C5 2.98 5 4.96 5 7 C5.66 7.33 6.32 7.66 7 8 C6.34 8 5.68 8 5 8 C5 9.65 5 11.3 5 13 C5.66 13 6.32 13 7 13 C7 13.66 7 14.32 7 15 C4.69 15 2.38 15 0 15 C0.33 14.34 0.66 13.68 1 13 C1.22858114 10.9625237 1.41024278 8.91959697 1.5625 6.875 C1.64628906 5.77929688 1.73007813 4.68359375 1.81640625 3.5546875 C1.87699219 2.71164063 1.93757812 1.86859375 2 1 C1.34 0.67 0.68 0.34 0 0 Z " fill="#F4F4F5" transform="translate(248,242)"/>
<path d="M0 0 C5 1 5 1 6 2 C6.1875 5.4375 6.1875 5.4375 6 9 C5.34 9.66 4.68 10.32 4 11 C2.68 11 1.36 11 0 11 C0 7.37 0 3.74 0 0 Z " fill="#040415" transform="translate(311,217)"/>
<path d="M0 0 C2.64 0 5.28 0 8 0 C7.01 0.66 6.02 1.32 5 2 C4.52125203 4.59298262 4.52125203 4.59298262 4.625 7.5 C4.61726563 8.4796875 4.60953125 9.459375 4.6015625 10.46875 C4.73304688 11.3040625 4.86453125 12.139375 5 13 C5.99 13.66 6.98 14.32 8 15 C5.03 15 2.06 15 -1 15 C-0.67 14.34 -0.34 13.68 0 13 C0.07092842 10.7927077 0.08415025 8.58332548 0.0625 6.375 C0.05347656 5.18648437 0.04445313 3.99796875 0.03515625 2.7734375 C0.02355469 1.85820312 0.01195312 0.94296875 0 0 Z " fill="#F7F7F7" transform="translate(280,242)"/>
<path d="M0 0 C-0.99 0.495 -0.99 0.495 -2 1 C-4.40838115 3.00011598 -4.40838115 3.00011598 -4.5 6.9375 C-4.3578457 10.15374106 -4.10448312 10.86939611 -2 13.5 C-1.34 13.995 -0.68 14.49 0 15 C-6.52293578 14.51681957 -6.52293578 14.51681957 -8.5 12.375 C-9.3528841 8.3238005 -9.01863075 4.57887767 -6.75 1.0625 C-4.41628148 -0.35440053 -2.67863922 -0.21718696 0 0 Z " fill="#EEEEEF" transform="translate(239,242)"/>
<path d="M0 0 C2.97 0 5.94 0 9 0 C7.68 0.33 6.36 0.66 5 1 C5.11382653 2.95901454 5.24141125 4.9172338 5.375 6.875 C5.44460938 7.96554688 5.51421875 9.05609375 5.5859375 10.1796875 C5.73253491 13.13046474 5.73253491 13.13046474 8 15 C5.36 15 2.72 15 0 15 C0.33 14.34 0.66 13.68 1 13 C1.22858114 10.9625237 1.41024278 8.91959697 1.5625 6.875 C1.64628906 5.77929688 1.73007812 4.68359375 1.81640625 3.5546875 C1.87699219 2.71164063 1.93757813 1.86859375 2 1 C1.34 0.67 0.68 0.34 0 0 Z " fill="#FBFBFB" transform="translate(306,215)"/>
<path d="M0 0 C0.6875 2.3125 0.6875 2.3125 1 5 C-0.125 6.875 -0.125 6.875 -2 8 C-4.6875 7.6875 -4.6875 7.6875 -7 7 C-7 4.69 -7 2.38 -7 0 C-3.86650268 -1.04449911 -3.01031744 -0.93423645 0 0 Z " fill="#DDDDDF" transform="translate(239,216)"/>
<path d="M0 0 C1.32 0.33 2.64 0.66 4 1 C4.20086443 4.71599191 4.1519437 5.77208445 2 9 C3.98 11.97 3.98 11.97 6 15 C3.6875 15.3125 3.6875 15.3125 1 15 C-1.24243223 12.13896577 -2 10.65923696 -2 7 C-1.34 6.67 -0.68 6.34 0 6 C0 4.02 0 2.04 0 0 Z " fill="#E8E8EA" transform="translate(219,215)"/>
<path d="M0 0 C1.125 3.75 1.125 3.75 0 6 C-0.969375 5.814375 -1.93875 5.62875 -2.9375 5.4375 C-3.948125 5.293125 -4.95875 5.14875 -6 5 C-6.33 5.33 -6.66 5.66 -7 6 C-8.66617115 6.04063832 -10.33388095 6.042721 -12 6 C-11.67 5.34 -11.34 4.68 -11 4 C-10.01 4.33 -9.02 4.66 -8 5 C-8 4.34 -8 3.68 -8 3 C-5.65966534 -0.20256322 -3.8395009 -0.31131088 0 0 Z " fill="#9F9FA6" transform="translate(295,281)"/>
<path d="M0 0 C2.64 0 5.28 0 8 0 C8 0.66 8 1.32 8 2 C8.99 2 9.98 2 11 2 C10.51421457 5.12290635 10.0013988 7.99580359 9 11 C8.34 11 7.68 11 7 11 C6.67 8.03 6.34 5.06 6 2 C3.03 1.505 3.03 1.505 0 1 C0 0.67 0 0.34 0 0 Z " fill="#272736" transform="translate(213,241)"/>
<path d="M0 0 C1.65 0 3.3 0 5 0 C5.38218767 1.65614657 5.71395102 3.32457024 6 5 C5 6 5 6 2.4375 6.0625 C1.2309375 6.0315625 1.2309375 6.0315625 0 6 C-1.125 2.25 -1.125 2.25 0 0 Z " fill="#62626D" transform="translate(264,281)"/>
<path d="M0 0 C0.33 0 0.66 0 1 0 C1 2.64 1 5.28 1 8 C-0.32 8 -1.64 8 -3 8 C-3 6.35 -3 4.7 -3 3 C-6.11332248 3.66868314 -6.11332248 3.66868314 -7.1875 6.0625 C-7.455625 6.701875 -7.72375 7.34125 -8 8 C-8 6.02 -8 4.04 -8 2 C-2.25 1.875 -2.25 1.875 0 3 C0 2.01 0 1.02 0 0 Z " fill="#8D8D95" transform="translate(213,279)"/>
<path d="M0 0 C1.98 0 3.96 0 6 0 C5.43667573 1.81881824 4.84866086 3.63000472 4.25 5.4375 C3.92515625 6.44683594 3.6003125 7.45617187 3.265625 8.49609375 C2 11 2 11 -0.140625 11.84765625 C-0.75421875 11.89792969 -1.3678125 11.94820312 -2 12 C-2 11.34 -2 10.68 -2 10 C-1.34 10 -0.68 10 0 10 C0.66 7.03 1.32 4.06 2 1 C1.34 0.67 0.68 0.34 0 0 Z " fill="#E4E4E6" transform="translate(222,242)"/>
<path d="M0 0 C2.475 0.495 2.475 0.495 5 1 C4.34 4.3 3.68 7.6 3 11 C1.04783565 7.09567131 0.49360009 4.27786748 0 0 Z " fill="#171727" transform="translate(210,243)"/>
<path d="M0 0 C1.98 0 3.96 0 6 0 C4.68 0.33 3.36 0.66 2 1 C2 1.66 2 2.32 2 3 C3.32 3 4.64 3 6 3 C6 3.66 6 4.32 6 5 C4.68 5 3.36 5 2 5 C2 5.66 2 6.32 2 7 C3.32 7.33 4.64 7.66 6 8 C4.02 8 2.04 8 0 8 C0 5.36 0 2.72 0 0 Z " fill="#8D8D94" transform="translate(197,279)"/>
<path d="M0 0 C0.66 0 1.32 0 2 0 C2 0.66 2 1.32 2 2 C3.65 2.33 5.3 2.66 7 3 C7 4.65 7 6.3 7 8 C6.34 8 5.68 8 5 8 C5 6.35 5 4.7 5 3 C4.01 3 3.02 3 2 3 C2 4.65 2 6.3 2 8 C1.34 8 0.68 8 0 8 C0 5.36 0 2.72 0 0 Z " fill="#7C7C85" transform="translate(225,279)"/>
<path d="M0 0 C1.65 0.33 3.3 0.66 5 1 C4.67 2.65 4.34 4.3 4 6 C2.35 5.67 0.7 5.34 -1 5 C-0.67 3.35 -0.34 1.7 0 0 Z " fill="#87878F" transform="translate(239,281)"/>
<path d="M0 0 C1.65 0 3.3 0 5 0 C5 1.65 5 3.3 5 5 C3.35 5 1.7 5 0 5 C0 3.35 0 1.7 0 0 Z " fill="#141424" transform="translate(295,223)"/>
<path d="M0 0 C1.65 0 3.3 0 5 0 C5.04241723 2.33294775 5.04092937 4.66702567 5 7 C4 8 4 8 1.4375 8.0625 C0.633125 8.041875 -0.17125 8.02125 -1 8 C-0.67 7.01 -0.34 6.02 0 5 C0.99 4.67 1.98 4.34 3 4 C3 3.34 3 2.68 3 2 C2.01 1.34 1.02 0.68 0 0 Z " fill="#ADADB2" transform="translate(219,281)"/>
<path d="M0 0 C1.32 0 2.64 0 4 0 C4 1.65 4 3.3 4 5 C2.68 5.33 1.36 5.66 0 6 C0 4.02 0 2.04 0 0 Z " fill="#232433" transform="translate(232,217)"/>
<path d="M0 0 C1.32 0.33 2.64 0.66 4 1 C3.67 2.65 3.34 4.3 3 6 C2.01 6 1.02 6 0 6 C0 4.02 0 2.04 0 0 Z " fill="#2C2D3B" transform="translate(253,243)"/>
<path d="M0 0 C1.65 0 3.3 0 5 0 C4.67 1.65 4.34 3.3 4 5 C2.68 5 1.36 5 0 5 C0 3.35 0 1.7 0 0 Z " fill="#0A0B1B" transform="translate(262,223)"/>
<path d="M0 0 C1.65 0 3.3 0 5 0 C4.67 1.65 4.34 3.3 4 5 C2.68 5 1.36 5 0 5 C0 3.35 0 1.7 0 0 Z " fill="#0A0B1B" transform="translate(200,223)"/>
<path d="M0 0 C1.9375 0.375 1.9375 0.375 4 1 C4.33 1.66 4.66 2.32 5 3 C4.67 3.66 4.34 4.32 4 5 C2.68 5 1.36 5 0 5 C0 3.35 0 1.7 0 0 Z " fill="#555560" transform="translate(291,282)"/>
<path d="M0 0 C0.99 0 1.98 0 3 0 C3.33 1.32 3.66 2.64 4 4 C2.02 4 0.04 4 -2 4 C-1.34 2.68 -0.68 1.36 0 0 Z " fill="#E1E1E3" transform="translate(274,226)"/>
<path d="M0 0 C1.98 0 3.96 0 6 0 C4.02 2.97 4.02 2.97 2 6 C1.34 5.34 0.68 4.68 0 4 C0 2.68 0 1.36 0 0 Z " fill="#E4E4E5" transform="translate(281,215)"/>
<path d="M0 0 C2.475 0.495 2.475 0.495 5 1 C4.67 1.99 4.34 2.98 4 4 C2.68 4 1.36 4 0 4 C0 2.68 0 1.36 0 0 Z " fill="#363744" transform="translate(218,282)"/>
<path d="M0 0 C0.99 0 1.98 0 3 0 C2.67 1.65 2.34 3.3 2 5 C0.02 5 -1.96 5 -4 5 C-2.68 4.34 -1.36 3.68 0 3 C0 2.01 0 1.02 0 0 Z " fill="#DCDCDE" transform="translate(300,225)"/>
<path d="M0 0 C1.32 0.33 2.64 0.66 4 1 C3.67 2.32 3.34 3.64 3 5 C2.01 5 1.02 5 0 5 C0 3.35 0 1.7 0 0 Z " fill="#181928" transform="translate(216,217)"/>
<path d="M0 0 C1.32 0.33 2.64 0.66 4 1 C3.67 2.32 3.34 3.64 3 5 C2.01 5 1.02 5 0 5 C0 3.35 0 1.7 0 0 Z " fill="#0B0C1C" transform="translate(185,217)"/>
</svg>
