<?xml version="1.0" encoding="UTF-8"?>
<svg xmlns="http://www.w3.org/2000/svg" xmlns:xlink="http://www.w3.org/1999/xlink" width="2000px" height="474px" viewBox="0 0 1000 237" version="1.1">
<defs>
<clipPath id="clip1">
  <path d="M 4.535156 145.347656 L 994.195312 145.347656 L 994.195312 235.207031 L 4.535156 235.207031 Z M 4.535156 145.347656 "/>
</clipPath>
<clipPath id="clip2">
  <path d="M 387.515625 63 L 448 63 L 448 124.171875 L 387.515625 124.171875 Z M 387.515625 63 "/>
</clipPath>
<clipPath id="clip3">
  <path d="M 550 0 L 611.324219 0 L 611.324219 61 L 550 61 Z M 550 0 "/>
</clipPath>
</defs>
<g id="surface1">
<g clip-path="url(#clip1)" clip-rule="nonzero">
<path style=" stroke:none;fill-rule:nonzero;fill:rgb(3.529412%,8.627451%,15.294118%);fill-opacity:1;" d="M 4.589844 149.398438 L 31.148438 149.398438 C 39.539062 149.398438 46.078125 151.363281 50.648438 155.359375 C 55.277344 159.40625 57.535156 165.019531 57.535156 172.253906 C 57.535156 179.773438 55.277344 185.675781 50.648438 189.84375 C 46.078125 194.007812 39.539062 196.148438 31.148438 196.148438 L 10.898438 196.148438 L 15.816406 191.117188 L 15.816406 216.574219 L 4.589844 216.574219 Z M 10.898438 186.429688 L 30.6875 186.429688 C 35.835938 186.429688 39.828125 185.273438 42.605469 183.015625 C 45.382812 180.757812 46.773438 177.230469 46.773438 172.542969 C 46.773438 167.972656 45.382812 164.617188 42.605469 162.359375 C 39.828125 160.160156 35.835938 159.0625 30.6875 159.0625 L 10.898438 159.0625 L 15.816406 154.085938 L 15.816406 191.40625 Z M 72.117188 187.414062 L 103.070312 187.414062 C 102.957031 184.519531 102.320312 182.089844 101.105469 180.0625 C 99.945312 178.039062 98.328125 176.476562 96.242188 175.320312 C 94.160156 174.21875 91.730469 173.699219 89.011719 173.699219 C 85.945312 173.699219 83.28125 174.394531 81.027344 175.78125 C 78.769531 177.171875 77.035156 179.140625 75.761719 181.683594 C 74.488281 184.230469 73.851562 187.179688 73.851562 190.59375 C 73.851562 194.242188 74.546875 197.363281 75.875 200.085938 C 77.265625 202.746094 79.175781 204.828125 81.605469 206.332031 C 84.035156 207.78125 86.871094 208.53125 90.050781 208.53125 C 95.664062 208.53125 100.46875 206.507812 104.34375 202.457031 L 110.128906 208.300781 C 107.640625 211.078125 104.632812 213.21875 101.105469 214.722656 C 97.515625 216.226562 93.582031 216.980469 89.183594 216.980469 C 83.976562 216.980469 79.464844 215.878906 75.585938 213.683594 C 71.710938 211.539062 68.703125 208.472656 66.503906 204.597656 C 64.363281 200.777344 63.261719 196.265625 63.261719 191.117188 C 63.261719 186.023438 64.363281 181.511719 66.503906 177.632812 C 68.703125 173.757812 71.710938 170.75 75.585938 168.609375 C 79.464844 166.410156 83.863281 165.308594 88.894531 165.25 C 94.855469 165.25 99.65625 166.46875 103.304688 168.898438 C 106.890625 171.386719 109.492188 174.855469 111 179.3125 C 112.503906 183.824219 113.082031 189.148438 112.617188 195.28125 L 72.117188 195.28125 Z M 152.542969 165.25 L 152.542969 175.203125 C 148.898438 175.03125 145.773438 175.667969 143.109375 177.054688 C 140.507812 178.503906 138.484375 180.527344 137.035156 183.074219 C 135.589844 185.617188 134.894531 188.570312 134.894531 191.925781 L 131.828125 191.519531 C 131.828125 185.851562 132.695312 181.046875 134.316406 177.113281 C 135.996094 173.238281 138.367188 170.285156 141.492188 168.261719 C 144.617188 166.234375 148.261719 165.25 152.542969 165.25 Z M 124.074219 216.574219 L 124.074219 165.597656 L 135.011719 165.597656 L 135.011719 216.574219 Z M 190.730469 165.25 C 195.535156 165.25 199.757812 166.292969 203.34375 168.492188 C 206.988281 170.691406 209.824219 173.699219 211.851562 177.632812 C 213.875 181.511719 214.917969 186.082031 214.917969 191.230469 C 214.917969 196.265625 213.875 200.777344 211.910156 204.597656 C 209.882812 208.472656 207.105469 211.539062 203.519531 213.683594 C 199.929688 215.878906 195.707031 216.980469 190.90625 216.980469 C 186.277344 216.980469 182.285156 215.9375 179.042969 213.914062 C 175.746094 211.832031 173.257812 208.878906 171.578125 205.003906 C 169.84375 201.125 168.976562 196.554688 168.976562 191.230469 C 168.976562 185.734375 169.84375 181.046875 171.578125 177.171875 C 173.257812 173.292969 175.746094 170.34375 179.042969 168.320312 C 182.285156 166.234375 186.21875 165.25 190.730469 165.25 Z M 188.417969 173.988281 C 185.40625 173.988281 182.746094 174.683594 180.433594 176.1875 C 178.058594 177.632812 176.265625 179.660156 174.933594 182.148438 C 173.664062 184.695312 172.96875 187.644531 172.96875 190.941406 C 172.96875 194.296875 173.664062 197.25 174.933594 199.851562 C 176.265625 202.398438 178.058594 204.425781 180.433594 205.871094 C 182.746094 207.316406 185.40625 208.011719 188.417969 208.011719 C 191.484375 208.011719 194.144531 207.316406 196.460938 205.8125 C 198.773438 204.367188 200.625 202.339844 201.898438 199.796875 C 203.230469 197.25 203.867188 194.296875 203.867188 190.941406 C 203.867188 187.703125 203.230469 184.75 201.898438 182.207031 C 200.625 179.660156 198.773438 177.632812 196.460938 176.1875 C 194.144531 174.683594 191.484375 173.988281 188.417969 173.988281 Z M 162.03125 235.207031 L 162.03125 165.597656 L 172.96875 165.597656 L 172.96875 235.207031 Z M 226.777344 216.574219 L 226.777344 145.347656 L 237.773438 145.347656 L 237.773438 216.574219 Z M 258.542969 187.414062 L 289.5 187.414062 C 289.328125 184.519531 288.691406 182.089844 287.535156 180.0625 C 286.375 178.039062 284.699219 176.476562 282.613281 175.320312 C 280.53125 174.21875 278.101562 173.699219 275.382812 173.699219 C 272.316406 173.699219 269.652344 174.394531 267.398438 175.78125 C 265.199219 177.171875 263.40625 179.140625 262.132812 181.683594 C 260.859375 184.230469 260.222656 187.179688 260.222656 190.59375 C 260.222656 194.242188 260.917969 197.363281 262.304688 200.085938 C 263.636719 202.746094 265.546875 204.828125 267.976562 206.332031 C 270.464844 207.78125 273.242188 208.53125 276.421875 208.53125 C 282.09375 208.53125 286.839844 206.507812 290.714844 202.457031 L 296.5 208.300781 C 294.070312 211.078125 291.0625 213.21875 287.476562 214.722656 C 283.945312 216.226562 279.953125 216.980469 275.554688 216.980469 C 270.347656 216.980469 265.835938 215.878906 261.957031 213.683594 C 258.082031 211.539062 255.074219 208.472656 252.933594 204.597656 C 250.734375 200.777344 249.691406 196.265625 249.691406 191.117188 C 249.691406 186.023438 250.734375 181.511719 252.933594 177.632812 C 255.074219 173.757812 258.082031 170.75 261.957031 168.609375 C 265.835938 166.410156 270.289062 165.308594 275.265625 165.25 C 281.285156 165.25 286.027344 166.46875 289.675781 168.898438 C 293.320312 171.386719 295.867188 174.855469 297.371094 179.3125 C 298.933594 183.824219 299.453125 189.148438 298.988281 195.28125 L 258.542969 195.28125 Z M 321.554688 190.480469 L 304.890625 165.597656 L 317.503906 165.597656 L 328.847656 183.476562 L 340.359375 165.597656 L 352.339844 165.597656 L 336.078125 190.480469 L 353.496094 216.574219 L 340.9375 216.574219 L 328.847656 197.480469 L 315.886719 216.574219 L 303.675781 216.574219 Z M 367.265625 187.414062 L 398.222656 187.414062 C 398.105469 184.519531 397.46875 182.089844 396.3125 180.0625 C 395.097656 178.039062 393.476562 176.476562 391.394531 175.320312 C 389.3125 174.21875 386.882812 173.699219 384.160156 173.699219 C 381.09375 173.699219 378.433594 174.394531 376.175781 175.78125 C 373.921875 177.171875 372.183594 179.140625 370.910156 181.683594 C 369.636719 184.230469 369.003906 187.179688 369.003906 190.59375 C 369.003906 194.242188 369.695312 197.363281 371.027344 200.085938 C 372.414062 202.746094 374.324219 204.828125 376.753906 206.332031 C 379.1875 207.78125 382.019531 208.53125 385.203125 208.53125 C 390.816406 208.53125 395.617188 206.507812 399.496094 202.457031 L 405.28125 208.300781 C 402.792969 211.078125 399.785156 213.21875 396.253906 214.722656 C 392.667969 216.226562 388.734375 216.980469 384.335938 216.980469 C 379.128906 216.980469 374.613281 215.878906 370.738281 213.683594 C 366.859375 211.539062 363.792969 208.472656 361.652344 204.597656 C 359.511719 200.777344 358.414062 196.265625 358.414062 191.117188 C 358.414062 186.023438 359.511719 181.511719 361.652344 177.632812 C 363.792969 173.757812 366.859375 170.75 370.738281 168.609375 C 374.613281 166.410156 379.011719 165.308594 384.046875 165.25 C 390.003906 165.25 394.808594 166.46875 398.453125 168.898438 C 402.039062 171.386719 404.644531 174.855469 406.148438 179.3125 C 407.652344 183.824219 408.230469 189.148438 407.769531 195.28125 L 367.265625 195.28125 Z M 438.550781 165.136719 C 443.238281 165.136719 447.230469 166.175781 450.472656 168.261719 C 453.769531 170.34375 456.257812 173.292969 457.992188 177.171875 C 459.785156 181.046875 460.597656 185.675781 460.539062 191.058594 C 460.597656 196.4375 459.785156 201.066406 458.050781 204.945312 C 456.371094 208.878906 453.828125 211.832031 450.585938 213.914062 C 447.289062 215.996094 443.355469 217.039062 438.726562 217.039062 C 433.921875 217.039062 429.640625 215.9375 425.996094 213.738281 C 422.351562 211.539062 419.515625 208.472656 417.488281 204.539062 C 415.464844 200.605469 414.421875 196.09375 414.421875 190.941406 C 414.421875 185.851562 415.464844 181.335938 417.488281 177.460938 C 419.515625 173.582031 422.351562 170.574219 425.9375 168.375 C 429.582031 166.234375 433.75 165.136719 438.550781 165.136719 Z M 440.980469 174.046875 C 437.972656 174.046875 435.253906 174.800781 432.9375 176.246094 C 430.566406 177.75 428.714844 179.773438 427.441406 182.378906 C 426.109375 184.984375 425.472656 187.933594 425.359375 191.230469 C 425.472656 194.585938 426.109375 197.480469 427.441406 200.085938 C 428.714844 202.628906 430.566406 204.65625 432.9375 206.101562 C 435.253906 207.605469 437.972656 208.300781 440.980469 208.300781 C 444.046875 208.300781 446.765625 207.605469 449.082031 206.101562 C 451.453125 204.65625 453.304688 202.628906 454.578125 200.085938 C 455.910156 197.480469 456.546875 194.585938 456.546875 191.230469 C 456.546875 187.875 455.910156 184.867188 454.578125 182.320312 C 453.304688 179.773438 451.453125 177.75 449.082031 176.246094 C 446.765625 174.800781 444.046875 174.046875 440.980469 174.046875 Z M 456.546875 216.574219 L 456.546875 145.347656 L 467.480469 145.347656 L 467.480469 216.574219 Z M 498.84375 216.574219 L 476.335938 149.398438 L 488.429688 149.398438 L 506.363281 209.457031 L 503.472656 209.457031 L 521.410156 149.398438 L 532.460938 149.398438 L 550.453125 209.457031 L 547.621094 209.457031 L 565.382812 149.398438 L 577.011719 149.398438 L 554.449219 216.574219 L 542.816406 216.574219 L 525.285156 158.480469 L 528.179688 158.597656 L 510.355469 216.574219 Z M 607.101562 165.25 C 612.308594 165.25 616.9375 166.292969 620.871094 168.492188 C 624.863281 170.691406 627.929688 173.699219 630.1875 177.578125 C 632.386719 181.453125 633.484375 185.910156 633.484375 191.058594 C 633.484375 196.148438 632.386719 200.664062 630.1875 204.597656 C 627.929688 208.472656 624.863281 211.539062 620.871094 213.683594 C 616.9375 215.878906 612.308594 216.980469 607.101562 216.980469 C 601.894531 216.980469 597.324219 215.878906 593.332031 213.683594 C 589.335938 211.539062 586.214844 208.472656 583.957031 204.597656 C 581.757812 200.664062 580.660156 196.148438 580.660156 191.058594 C 580.660156 185.910156 581.757812 181.453125 583.957031 177.578125 C 586.214844 173.699219 589.335938 170.691406 593.332031 168.492188 C 597.324219 166.292969 601.894531 165.25 607.101562 165.25 Z M 607.101562 174.164062 C 604.09375 174.164062 601.375 174.855469 599.058594 176.304688 C 596.6875 177.75 594.835938 179.773438 593.5625 182.320312 C 592.230469 184.867188 591.59375 187.816406 591.59375 191.117188 C 591.59375 194.53125 592.230469 197.480469 593.5625 200.085938 C 594.835938 202.628906 596.6875 204.597656 599.058594 206.042969 C 601.375 207.492188 604.09375 208.242188 607.101562 208.242188 C 610.167969 208.242188 612.828125 207.492188 615.144531 206.042969 C 617.515625 204.597656 619.308594 202.628906 620.582031 200.085938 C 621.914062 197.480469 622.550781 194.53125 622.550781 191.117188 C 622.550781 187.816406 621.914062 184.867188 620.582031 182.320312 C 619.308594 179.773438 617.515625 177.75 615.144531 176.304688 C 612.828125 174.855469 610.167969 174.164062 607.101562 174.164062 Z M 673.410156 165.25 L 673.410156 175.203125 C 669.765625 175.03125 666.640625 175.667969 664.035156 177.054688 C 661.375 178.503906 659.351562 180.527344 657.960938 183.074219 C 656.515625 185.617188 655.761719 188.570312 655.761719 191.925781 L 652.753906 191.519531 C 652.753906 185.851562 653.5625 181.046875 655.183594 177.113281 C 656.863281 173.238281 659.234375 170.285156 662.359375 168.261719 C 665.484375 166.234375 669.128906 165.25 673.410156 165.25 Z M 644.941406 216.574219 L 644.941406 165.597656 L 655.878906 165.597656 L 655.878906 216.574219 Z M 682.957031 216.574219 L 682.957031 145.347656 L 693.894531 145.347656 L 693.894531 216.574219 Z M 729.882812 165.136719 C 734.570312 165.136719 738.5625 166.175781 741.859375 168.261719 C 745.101562 170.34375 747.648438 173.292969 749.382812 177.171875 C 751.117188 181.046875 751.984375 185.675781 751.871094 191.058594 C 751.984375 196.4375 751.117188 201.066406 749.441406 204.945312 C 747.703125 208.878906 745.214844 211.832031 741.917969 213.914062 C 738.679688 215.996094 734.742188 217.039062 730.054688 217.039062 C 725.253906 217.039062 721.03125 215.9375 717.328125 213.738281 C 713.683594 211.539062 710.847656 208.472656 708.820312 204.539062 C 706.796875 200.605469 705.8125 196.09375 705.8125 190.941406 C 705.8125 185.851562 706.796875 181.335938 708.820312 177.460938 C 710.847656 173.582031 713.683594 170.574219 717.328125 168.375 C 720.914062 166.234375 725.136719 165.136719 729.882812 165.136719 Z M 732.371094 174.046875 C 729.304688 174.046875 726.644531 174.800781 724.269531 176.246094 C 721.898438 177.75 720.105469 179.773438 718.773438 182.378906 C 717.5 184.984375 716.804688 187.933594 716.75 191.230469 C 716.804688 194.585938 717.5 197.480469 718.773438 200.085938 C 720.105469 202.628906 721.898438 204.65625 724.269531 206.101562 C 726.644531 207.605469 729.304688 208.300781 732.371094 208.300781 C 735.4375 208.300781 738.097656 207.605469 740.472656 206.101562 C 742.785156 204.65625 744.636719 202.628906 745.910156 200.085938 C 747.242188 197.480469 747.878906 194.585938 747.878906 191.230469 C 747.878906 187.875 747.242188 184.867188 745.910156 182.320312 C 744.636719 179.773438 742.785156 177.75 740.472656 176.246094 C 738.097656 174.800781 735.4375 174.046875 732.371094 174.046875 Z M 747.878906 216.574219 L 747.878906 145.347656 L 758.871094 145.347656 L 758.871094 216.574219 Z M 777.792969 205.234375 C 779.527344 205.234375 780.976562 205.8125 782.074219 206.914062 C 783.230469 208.070312 783.808594 209.515625 783.808594 211.308594 C 783.808594 213.101562 783.230469 214.550781 782.074219 215.707031 C 780.976562 216.863281 779.527344 217.441406 777.792969 217.441406 C 776.113281 217.441406 774.667969 216.863281 773.511719 215.707031 C 772.351562 214.550781 771.773438 213.101562 771.773438 211.308594 C 771.773438 209.515625 772.351562 208.070312 773.511719 206.914062 C 774.667969 205.8125 776.113281 205.234375 777.792969 205.234375 Z M 837.96875 173.121094 L 832.007812 180.179688 C 830.214844 178.328125 828.132812 176.882812 825.703125 175.898438 C 823.269531 174.855469 820.550781 174.335938 817.484375 174.335938 C 814.59375 174.335938 811.988281 175.03125 809.671875 176.476562 C 807.417969 177.867188 805.625 179.832031 804.351562 182.378906 C 803.078125 184.867188 802.441406 187.816406 802.441406 191.117188 C 802.441406 194.472656 803.078125 197.421875 804.351562 199.910156 C 805.625 202.457031 807.417969 204.425781 809.671875 205.871094 C 811.988281 207.316406 814.59375 208.011719 817.484375 208.011719 C 820.667969 208.011719 823.5625 207.492188 826.046875 206.449219 C 828.59375 205.40625 830.734375 203.84375 832.472656 201.820312 L 838.546875 207.835938 C 836.289062 210.730469 833.28125 212.988281 829.636719 214.550781 C 825.992188 216.171875 821.765625 216.980469 817.023438 216.980469 C 811.988281 216.980469 807.589844 215.878906 803.773438 213.683594 C 799.894531 211.539062 796.886719 208.472656 794.746094 204.597656 C 792.605469 200.777344 791.503906 196.265625 791.503906 191.117188 C 791.503906 186.023438 792.605469 181.511719 794.746094 177.632812 C 796.886719 173.757812 799.894531 170.75 803.773438 168.550781 C 807.589844 166.351562 811.988281 165.25 817.023438 165.25 C 821.59375 165.25 825.644531 165.886719 829.171875 167.277344 C 832.703125 168.664062 835.652344 170.574219 837.96875 173.121094 Z M 871.703125 165.25 C 876.910156 165.25 881.480469 166.292969 885.472656 168.492188 C 889.464844 170.691406 892.53125 173.699219 894.730469 177.578125 C 896.988281 181.453125 898.085938 185.910156 898.085938 191.058594 C 898.085938 196.148438 896.988281 200.664062 894.730469 204.597656 C 892.53125 208.472656 889.464844 211.539062 885.472656 213.683594 C 881.480469 215.878906 876.910156 216.980469 871.703125 216.980469 C 866.492188 216.980469 861.863281 215.878906 857.871094 213.683594 C 853.878906 211.539062 850.753906 208.472656 848.554688 204.597656 C 846.359375 200.664062 845.199219 196.148438 845.199219 191.058594 C 845.199219 185.910156 846.359375 181.453125 848.554688 177.578125 C 850.753906 173.699219 853.878906 170.691406 857.871094 168.492188 C 861.863281 166.292969 866.492188 165.25 871.703125 165.25 Z M 871.703125 174.164062 C 868.632812 174.164062 865.972656 174.855469 863.601562 176.304688 C 861.226562 177.75 859.433594 179.773438 858.160156 182.320312 C 856.832031 184.867188 856.195312 187.816406 856.195312 191.117188 C 856.195312 194.53125 856.832031 197.480469 858.160156 200.085938 C 859.433594 202.628906 861.226562 204.597656 863.601562 206.042969 C 865.972656 207.492188 868.632812 208.242188 871.703125 208.242188 C 874.769531 208.242188 877.429688 207.492188 879.742188 206.042969 C 882.058594 204.597656 883.910156 202.628906 885.183594 200.085938 C 886.515625 197.480469 887.148438 194.53125 887.148438 191.117188 C 887.148438 187.816406 886.515625 184.867188 885.183594 182.320312 C 883.910156 179.773438 882.058594 177.75 879.742188 176.304688 C 877.429688 174.855469 874.769531 174.164062 871.703125 174.164062 Z M 946.398438 216.574219 L 946.398438 187.761719 C 946.398438 183.765625 945.359375 180.585938 943.21875 178.328125 C 941.132812 176.070312 938.242188 174.914062 934.480469 174.914062 C 930.082031 175.03125 926.667969 176.707031 924.125 179.832031 C 921.636719 182.957031 920.363281 186.835938 920.363281 191.40625 L 917.355469 191.40625 C 917.355469 185.15625 918.222656 180.121094 919.957031 176.246094 C 921.695312 172.425781 924.179688 169.648438 927.363281 167.855469 C 930.605469 166.121094 934.363281 165.25 938.761719 165.25 C 942.640625 165.25 945.9375 166.003906 948.714844 167.625 C 951.492188 169.246094 953.574219 171.5 955.078125 174.394531 C 956.582031 177.289062 957.335938 180.816406 957.335938 184.925781 L 957.335938 216.574219 Z M 983.257812 216.574219 L 983.257812 187.761719 C 983.257812 183.765625 982.160156 180.585938 980.019531 178.328125 C 977.933594 176.070312 974.984375 174.914062 971.222656 174.914062 C 966.941406 175.03125 963.527344 176.707031 961.039062 179.832031 C 958.550781 182.957031 957.335938 186.835938 957.335938 191.40625 L 954.210938 191.40625 C 954.210938 185.15625 955.078125 180.121094 956.816406 176.246094 C 958.550781 172.425781 961.039062 169.648438 964.222656 167.855469 C 967.460938 166.121094 971.222656 165.25 975.621094 165.25 C 979.496094 165.25 982.796875 166.003906 985.574219 167.625 C 988.351562 169.246094 990.492188 171.5 991.9375 174.394531 C 993.441406 177.289062 994.195312 180.816406 994.195312 184.925781 L 994.195312 216.574219 Z M 909.542969 216.574219 L 909.542969 165.597656 L 920.363281 165.597656 L 920.363281 216.574219 Z M 909.542969 216.574219 "/>
</g>
<g clip-path="url(#clip2)" clip-rule="nonzero">
<path style=" stroke:none;fill-rule:nonzero;fill:rgb(85.490196%,83.921569%,0.784314%);fill-opacity:1;" d="M 387.515625 63.359375 L 447.867188 63.359375 L 447.867188 124.171875 L 387.515625 124.171875 Z M 387.515625 63.359375 "/>
</g>
<path style=" stroke:none;fill-rule:nonzero;fill:rgb(85.490196%,83.921569%,0.784314%);fill-opacity:1;" d="M 495.023438 31.648438 L 448.734375 60.8125 L 390.640625 60.8125 L 436.875 31.648438 Z M 495.023438 31.648438 "/>
<path style=" stroke:none;fill-rule:nonzero;fill:rgb(85.490196%,83.921569%,0.784314%);fill-opacity:1;" d="M 548.429688 61.390625 L 450.355469 123.128906 L 450.355469 62.78125 L 548.429688 1.042969 Z M 548.429688 61.390625 "/>
<path style=" stroke:none;fill-rule:nonzero;fill:rgb(85.490196%,83.921569%,0.784314%);fill-opacity:1;" d="M 549.992188 63.359375 L 608.199219 63.359375 L 561.910156 92.460938 L 503.761719 92.460938 Z M 549.992188 63.359375 "/>
<g clip-path="url(#clip3)" clip-rule="nonzero">
<path style=" stroke:none;fill-rule:nonzero;fill:rgb(85.490196%,83.921569%,0.784314%);fill-opacity:1;" d="M 550.917969 0 L 611.324219 0 L 611.324219 60.8125 L 550.917969 60.8125 Z M 550.917969 0 "/>
</g>
</g>
</svg>
