<?xml version="1.0" encoding="UTF-8"?>
<svg xmlns="http://www.w3.org/2000/svg" xmlns:xlink="http://www.w3.org/1999/xlink" width="89px" height="100px" viewBox="0 0 89 99" version="1.1">
<defs>
<clipPath id="clip1">
  <path d="M 0.0195312 4 L 88.703125 4 L 88.703125 95 L 0.0195312 95 Z M 0.0195312 4 "/>
</clipPath>
<clipPath id="clip2">
  <path d="M 17.757812 27.871094 L 70.96875 27.871094 L 70.96875 62.128906 L 17.757812 62.128906 Z M 17.757812 27.871094 "/>
</clipPath>
<clipPath id="clip3">
  <path d="M 22.492188 32.570312 L 66.234375 32.570312 L 66.234375 57.429688 L 22.492188 57.429688 Z M 22.492188 32.570312 "/>
</clipPath>
<clipPath id="clip4">
  <path d="M 17.757812 64.476562 L 70.96875 64.476562 L 70.96875 71.125 L 17.757812 71.125 Z M 17.757812 64.476562 "/>
</clipPath>
</defs>
<g id="surface1">
<g clip-path="url(#clip1)" clip-rule="nonzero">
<path style=" stroke:none;fill-rule:nonzero;fill:rgb(83.529412%,69.803922%,38.823529%);fill-opacity:1;" d="M 5.828125 62.484375 L 6.859375 63.765625 L 6.34375 62.101562 C 6.214844 61.332031 5.3125 62.230469 5.828125 62.484375 M 6.992188 61.71875 C 7.378906 62.355469 7.765625 62.996094 7.765625 63.636719 C 7.765625 64.535156 8.539062 64.917969 9.183594 65.175781 C 8.28125 64.152344 7.765625 61.332031 6.992188 61.71875 M 56.558594 7.40625 C 58.753906 7.40625 60.820312 7.148438 63.144531 7.660156 C 68.824219 9.070312 73.601562 11.886719 76.828125 15.859375 L 85.863281 30.207031 C 86.25 33.792969 87.023438 37.761719 86.894531 42.117188 C 87.800781 42.117188 87.671875 40.835938 88.703125 40.582031 C 87.671875 43.144531 87.152344 46.347656 86.894531 50.058594 C 86.25 48.011719 86.894531 44.9375 87.023438 43.273438 C 86.121094 44.679688 85.605469 43.65625 85.605469 43.015625 C 85.734375 41.992188 85.21875 42.117188 84.832031 41.734375 C 83.410156 40.453125 82.507812 39.042969 81.472656 36.867188 C 82.121094 35.203125 82.25 32.769531 80.183594 31.488281 C 79.539062 31.101562 78.761719 30.460938 78.375 29.4375 C 77.859375 28.027344 76.957031 26.363281 77.214844 24.1875 C 77.34375 23.546875 75.277344 25.59375 74.117188 24.699219 C 69.082031 21.238281 64.046875 17.269531 57.980469 13.9375 C 54.753906 13.9375 52.429688 12.785156 51.269531 11.375 C 50.234375 10.09375 51.007812 8.429688 52.558594 8.300781 C 53.460938 8.300781 54.496094 8.046875 55.269531 8.558594 C 55.398438 8.046875 55.914062 7.40625 56.558594 7.40625 M 43.78125 4.460938 L 44.039062 4.585938 C 45.328125 4.84375 45.976562 6.636719 47.394531 5.996094 C 47.394531 6.894531 47.523438 7.789062 47.265625 8.429688 C 46.878906 9.453125 45.714844 9.453125 44.8125 9.453125 C 36.164062 8.941406 31.128906 12.527344 25.835938 15.601562 C 24.417969 16.5 22.867188 17.140625 21.707031 18.292969 C 16.15625 23.417969 10.089844 28.15625 8.667969 37.636719 L 7.507812 48.140625 C 7.378906 49.292969 6.085938 50.445312 6.34375 51.855469 L 7.25 58.128906 C 6.34375 57.234375 5.828125 58.386719 6.085938 58.898438 C 6.214844 59.28125 6.730469 60.5625 7.507812 59.410156 C 8.539062 61.332031 9.570312 65.046875 10.992188 66.710938 C 15.382812 71.835938 21.0625 76.449219 25.707031 81.058594 C 26.871094 80.800781 27.773438 80.800781 28.03125 80.035156 C 28.417969 80.800781 27.644531 81.570312 27 81.699219 C 29.066406 82.980469 31.386719 84.132812 34.484375 84.390625 C 38.488281 84.644531 42.230469 85.285156 45.71875 86.183594 C 47.523438 85.671875 49.332031 85.414062 51.269531 85.285156 C 51.914062 85.285156 52.300781 84.261719 53.074219 84.003906 L 53.203125 82.722656 C 53.980469 83.875 53.847656 82.339844 53.332031 81.570312 C 54.238281 82.339844 54.496094 82.980469 54.882812 83.492188 C 54.882812 83.109375 55.914062 81.699219 55.914062 83.363281 L 56.171875 81.699219 C 56.558594 81.441406 56.6875 83.109375 57.078125 81.957031 C 57.464844 80.800781 58.238281 81.699219 59.011719 81.316406 C 58.753906 81.828125 58.882812 82.851562 59.789062 82.210938 L 60.820312 81.316406 C 61.464844 82.851562 62.5 82.210938 63.015625 81.957031 C 68.695312 78.367188 74.375 74.140625 79.796875 69.914062 L 79.667969 71.578125 L 80.3125 69.53125 C 80.957031 70.171875 81.472656 69.660156 81.730469 69.273438 C 82.507812 67.992188 83.539062 66.710938 85.21875 65.558594 C 83.152344 71.066406 80.699219 75.421875 77.601562 79.007812 L 76.3125 80.546875 C 76.3125 81.445312 76.050781 82.597656 75.019531 82.722656 C 74.503906 82.851562 73.46875 82.46875 72.695312 83.238281 C 72.308594 83.75 73.601562 84.773438 72.566406 84.003906 C 71.664062 83.363281 70.761719 84.003906 69.726562 84.261719 C 68.953125 84.519531 70.242188 85.285156 70.5 85.796875 C 70.761719 86.3125 71.019531 86.824219 70.890625 87.464844 L 69.46875 85.925781 C 67.789062 86.824219 66.757812 88.488281 65.339844 89.769531 C 64.691406 90.28125 64.949219 91.179688 64.949219 91.945312 C 64.046875 91.945312 63.015625 91.691406 62.5 92.203125 C 62.109375 92.714844 62.238281 93.484375 62.238281 94.253906 C 60.949219 94.125 60.820312 92.203125 59.660156 92.585938 C 58.496094 92.84375 57.207031 92.972656 56.171875 93.613281 C 56.949219 95.148438 54.882812 94.253906 55.140625 94.507812 C 53.203125 93.355469 51.527344 92.460938 49.460938 93.226562 C 45.070312 91.820312 39.648438 92.460938 35.648438 92.972656 C 35.648438 92.332031 35.777344 91.691406 35.519531 91.5625 C 35.261719 92.203125 34.484375 91.945312 34.617188 91.945312 C 32.164062 90.28125 29.710938 89.257812 27.128906 87.847656 C 24.804688 88.105469 22.609375 86.949219 21.964844 86.3125 C 20.15625 84.644531 18.09375 85.542969 16.414062 85.15625 C 12.800781 84.261719 11.507812 80.546875 11.121094 77.984375 C 10.863281 76.703125 9.832031 76.191406 9.441406 76.320312 C 7.765625 70.941406 5.183594 66.070312 3.117188 61.078125 C 2.601562 59.796875 2.730469 58.515625 2.730469 57.105469 C 3.375 57.363281 4.019531 57.234375 3.890625 56.335938 C 3.246094 52.109375 1.699219 48.90625 0.0195312 45.832031 C 0.921875 41.476562 1.050781 36.355469 3.117188 32.511719 C 4.925781 29.054688 8.28125 27.257812 10.605469 24.3125 C 11.378906 23.289062 11.378906 21.878906 12.152344 20.984375 C 14.734375 18.421875 17.316406 15.730469 20.15625 13.425781 C 21.449219 12.402344 22.996094 13.425781 24.933594 13.042969 C 25.578125 10.734375 28.160156 8.6875 30.613281 9.328125 C 31.644531 9.582031 33.710938 6.894531 34.355469 6.636719 C 35.390625 6.253906 34.875 7.660156 34.875 8.558594 C 37.324219 6.636719 40.683594 5.613281 43.78125 4.460938 "/>
</g>
<g clip-path="url(#clip2)" clip-rule="nonzero">
<path style=" stroke:none;fill-rule:nonzero;fill:rgb(83.529412%,69.803922%,38.823529%);fill-opacity:1;" d="M 17.757812 27.871094 L 70.964844 27.871094 L 70.964844 62.128906 L 17.757812 62.128906 Z M 17.757812 27.871094 "/>
</g>
<g clip-path="url(#clip3)" clip-rule="nonzero">
<path style=" stroke:none;fill-rule:nonzero;fill:rgb(16.078431%,18.823529%,25.098039%);fill-opacity:1;" d="M 50.511719 57.429688 C 49.902344 57.429688 49.359375 57.265625 48.886719 56.9375 C 48.410156 56.605469 48.042969 56.144531 47.78125 55.554688 C 47.515625 54.960938 47.382812 54.289062 47.382812 53.535156 C 47.382812 52.78125 47.5 51.996094 47.738281 51.175781 C 47.976562 50.355469 48.28125 49.535156 48.664062 48.714844 C 49.042969 47.890625 49.453125 47.101562 49.894531 46.339844 C 50.332031 45.582031 50.769531 44.886719 51.195312 44.253906 C 51.621094 43.621094 51.996094 43.089844 52.324219 42.660156 C 52.824219 41.972656 53.398438 41.257812 54.042969 40.507812 C 54.6875 39.761719 55.378906 39.0625 56.125 38.402344 C 56.871094 37.742188 57.65625 37.207031 58.484375 36.796875 C 59.3125 36.386719 60.160156 36.183594 61.027344 36.183594 C 61.554688 36.183594 61.953125 36.234375 62.226562 36.34375 C 62.496094 36.453125 62.632812 36.621094 62.632812 36.847656 C 62.632812 37.007812 62.519531 37.136719 62.300781 37.230469 C 62.074219 37.324219 61.777344 37.371094 61.414062 37.371094 C 60.449219 37.371094 59.464844 37.222656 58.457031 36.921875 C 57.445312 36.617188 56.394531 36.242188 55.304688 35.800781 C 54.210938 35.355469 53.074219 34.910156 51.894531 34.46875 C 50.714844 34.023438 49.480469 33.648438 48.1875 33.34375 C 46.890625 33.042969 45.53125 32.894531 44.105469 32.894531 C 42.589844 32.894531 41.230469 33.070312 40.03125 33.425781 C 38.832031 33.785156 37.8125 34.261719 36.980469 34.859375 C 36.148438 35.457031 35.511719 36.121094 35.078125 36.847656 C 34.644531 37.574219 34.425781 38.308594 34.425781 39.046875 C 34.425781 39.839844 34.671875 40.597656 35.160156 41.316406 C 35.648438 42.035156 36.386719 42.621094 37.375 43.0625 C 38.367188 43.507812 39.605469 43.730469 41.097656 43.730469 C 42.289062 43.730469 43.292969 43.53125 44.097656 43.132812 C 44.90625 42.734375 45.515625 42.238281 45.929688 41.636719 C 46.339844 41.042969 46.546875 40.441406 46.546875 39.835938 C 46.546875 39.363281 46.421875 38.925781 46.171875 38.523438 C 45.921875 38.121094 45.535156 37.792969 45.015625 37.542969 C 44.492188 37.292969 43.828125 37.171875 43.03125 37.171875 C 42.378906 37.171875 41.773438 37.25 41.210938 37.414062 C 40.648438 37.574219 40.175781 37.796875 39.796875 38.078125 L 39.632812 37.9375 C 40.039062 37.628906 40.542969 37.390625 41.136719 37.222656 C 41.734375 37.054688 42.363281 36.96875 43.03125 36.96875 C 43.871094 36.96875 44.566406 37.105469 45.117188 37.371094 C 45.664062 37.640625 46.074219 37.988281 46.34375 38.410156 C 46.613281 38.835938 46.75 39.296875 46.75 39.792969 C 46.75 40.441406 46.539062 41.082031 46.113281 41.71875 C 45.683594 42.359375 45.050781 42.886719 44.207031 43.304688 C 43.367188 43.722656 42.324219 43.929688 41.078125 43.929688 C 39.53125 43.929688 38.246094 43.691406 37.226562 43.210938 C 36.199219 42.734375 35.433594 42.117188 34.929688 41.355469 C 34.417969 40.597656 34.164062 39.792969 34.164062 38.945312 C 34.164062 38.179688 34.378906 37.421875 34.8125 36.667969 C 35.246094 35.914062 35.886719 35.226562 36.726562 34.609375 C 37.566406 33.988281 38.59375 33.496094 39.808594 33.125 C 41.019531 32.753906 42.398438 32.570312 43.945312 32.570312 C 45.355469 32.570312 46.707031 32.726562 48.003906 33.035156 C 49.296875 33.34375 50.542969 33.722656 51.742188 34.171875 C 52.941406 34.625 54.097656 35.074219 55.203125 35.523438 C 56.304688 35.976562 57.371094 36.355469 58.394531 36.667969 C 59.417969 36.976562 60.402344 37.128906 61.351562 37.128906 C 61.664062 37.128906 61.890625 37.101562 62.035156 37.039062 C 62.175781 36.980469 62.246094 36.894531 62.246094 36.789062 C 62.246094 36.679688 62.152344 36.589844 61.960938 36.515625 C 61.773438 36.441406 61.507812 36.402344 61.167969 36.402344 C 60.234375 36.402344 59.335938 36.621094 58.476562 37.058594 C 57.613281 37.496094 56.804688 38.066406 56.042969 38.773438 C 55.285156 39.480469 54.574219 40.257812 53.910156 41.105469 C 53.246094 41.953125 52.632812 42.792969 52.078125 43.628906 C 51.375 44.675781 50.71875 45.789062 50.113281 46.964844 C 49.511719 48.144531 49.027344 49.308594 48.652344 50.457031 C 48.28125 51.609375 48.09375 52.679688 48.09375 53.675781 C 48.09375 54.308594 48.179688 54.898438 48.355469 55.445312 C 48.535156 55.988281 48.800781 56.425781 49.164062 56.757812 C 49.519531 57.085938 49.96875 57.25 50.511719 57.25 C 50.796875 57.25 51.046875 57.203125 51.257812 57.105469 C 51.464844 57.011719 51.660156 56.878906 51.835938 56.703125 L 51.875 56.886719 C 51.699219 57.058594 51.503906 57.195312 51.285156 57.289062 C 51.070312 57.382812 50.8125 57.429688 50.511719 57.429688 Z M 33.574219 56.765625 C 31.972656 56.765625 30.5 56.535156 29.152344 56.078125 C 27.800781 55.621094 26.628906 54.976562 25.632812 54.140625 C 24.636719 53.308594 23.863281 52.328125 23.3125 51.203125 C 22.765625 50.082031 22.492188 48.855469 22.492188 47.523438 C 22.492188 46.136719 22.78125 44.851562 23.367188 43.667969 C 23.949219 42.484375 24.769531 41.457031 25.824219 40.582031 C 26.882812 39.707031 28.128906 39.027344 29.558594 38.542969 C 30.988281 38.058594 32.542969 37.816406 34.222656 37.816406 C 35.960938 37.816406 37.496094 38.097656 38.832031 38.664062 C 40.167969 39.230469 41.1875 40.03125 41.890625 41.066406 L 41.75 41.207031 C 41.058594 40.183594 40.0625 39.398438 38.765625 38.847656 C 37.472656 38.292969 35.960938 38.019531 34.222656 38.019531 C 32.570312 38.019531 31.042969 38.253906 29.640625 38.726562 C 28.234375 39.195312 27.015625 39.859375 25.980469 40.710938 C 24.941406 41.566406 24.136719 42.570312 23.558594 43.730469 C 22.984375 44.886719 22.695312 46.152344 22.695312 47.523438 C 22.695312 48.828125 22.964844 50.03125 23.507812 51.132812 C 24.050781 52.238281 24.808594 53.191406 25.785156 54 C 26.761719 54.808594 27.910156 55.4375 29.234375 55.886719 C 30.554688 56.339844 32 56.5625 33.574219 56.5625 C 34.957031 56.5625 36.238281 56.398438 37.417969 56.070312 C 38.597656 55.738281 39.625 55.277344 40.5 54.6875 C 41.371094 54.09375 42.054688 53.398438 42.542969 52.597656 C 43.03125 51.796875 43.273438 50.925781 43.273438 49.984375 C 43.273438 49.015625 42.941406 48.15625 42.277344 47.410156 C 41.613281 46.664062 40.699219 46.078125 39.53125 45.644531 C 38.367188 45.214844 37.039062 45 35.546875 45 C 34.273438 45 33.242188 45.191406 32.457031 45.574219 C 31.667969 45.957031 31.277344 46.453125 31.277344 47.058594 C 31.277344 48.132812 32.183594 48.671875 34 48.671875 C 34.746094 48.671875 35.480469 48.574219 36.207031 48.378906 C 36.933594 48.183594 37.585938 47.910156 38.167969 47.550781 C 38.753906 47.195312 39.21875 46.777344 39.574219 46.292969 C 39.925781 45.808594 40.101562 45.261719 40.101562 44.65625 C 40.101562 44.066406 39.929688 43.5625 39.585938 43.144531 C 39.238281 42.726562 38.792969 42.390625 38.25 42.136719 C 37.707031 41.878906 37.132812 41.695312 36.523438 41.578125 C 35.910156 41.464844 35.34375 41.410156 34.8125 41.410156 C 33.59375 41.410156 32.492188 41.570312 31.511719 41.894531 C 30.527344 42.214844 29.6875 42.65625 28.988281 43.210938 C 28.289062 43.773438 27.75 44.410156 27.371094 45.121094 C 26.992188 45.835938 26.800781 46.582031 26.800781 47.359375 C 26.800781 48.304688 27.058594 49.125 27.566406 49.832031 C 28.074219 50.539062 28.785156 51.085938 29.703125 51.476562 C 30.617188 51.867188 31.6875 52.0625 32.921875 52.0625 C 33.925781 52.0625 34.886719 51.945312 35.808594 51.707031 C 36.730469 51.472656 37.648438 51.125 38.554688 50.660156 C 39.464844 50.195312 40.394531 49.617188 41.339844 48.921875 C 42.289062 48.230469 43.292969 47.425781 44.34375 46.5 C 45.390625 45.582031 46.523438 44.546875 47.738281 43.394531 C 48.949219 42.246094 50.277344 40.984375 51.710938 39.613281 C 51.96875 39.371094 52.355469 39.058594 52.871094 38.671875 C 53.386719 38.289062 53.996094 37.910156 54.703125 37.535156 C 55.40625 37.15625 56.164062 36.867188 56.980469 36.667969 L 57.507812 36.765625 C 56.640625 36.941406 55.832031 37.222656 55.089844 37.601562 C 54.34375 37.988281 53.691406 38.382812 53.136719 38.785156 C 52.582031 39.1875 52.144531 39.523438 51.835938 39.792969 C 51.0625 40.480469 50.308594 41.261719 49.570312 42.136719 C 48.828125 43.007812 48.089844 43.910156 47.351562 44.839844 C 46.613281 45.765625 45.851562 46.667969 45.074219 47.542969 C 44.292969 48.417969 43.476562 49.199219 42.621094 49.882812 C 41.878906 50.476562 41.023438 51.007812 40.058594 51.484375 C 39.097656 51.964844 38.070312 52.34375 36.980469 52.628906 C 35.890625 52.910156 34.765625 53.050781 33.613281 53.050781 C 32.015625 53.050781 30.695312 52.792969 29.660156 52.277344 C 28.621094 51.757812 27.851562 51.066406 27.351562 50.207031 C 26.847656 49.34375 26.597656 48.398438 26.597656 47.359375 C 26.597656 46.554688 26.789062 45.78125 27.167969 45.039062 C 27.546875 44.300781 28.097656 43.644531 28.816406 43.070312 C 29.535156 42.5 30.402344 42.046875 31.417969 41.710938 C 32.433594 41.375 33.574219 41.207031 34.835938 41.207031 C 35.324219 41.207031 35.878906 41.261719 36.5 41.375 C 37.125 41.492188 37.730469 41.683594 38.3125 41.953125 C 38.894531 42.222656 39.375 42.582031 39.746094 43.03125 C 40.117188 43.484375 40.304688 44.039062 40.304688 44.699219 C 40.304688 45.328125 40.121094 45.902344 39.753906 46.414062 C 39.390625 46.925781 38.898438 47.359375 38.28125 47.722656 C 37.664062 48.085938 36.988281 48.367188 36.25 48.558594 C 35.507812 48.757812 34.757812 48.859375 34 48.875 C 32.046875 48.875 31.074219 48.269531 31.074219 47.058594 C 31.074219 46.386719 31.484375 45.839844 32.3125 45.425781 C 33.140625 45.007812 34.21875 44.796875 35.546875 44.796875 C 37.078125 44.796875 38.441406 45.019531 39.632812 45.464844 C 40.828125 45.910156 41.765625 46.519531 42.453125 47.300781 C 43.136719 48.082031 43.476562 48.976562 43.476562 49.984375 C 43.476562 50.953125 43.230469 51.847656 42.738281 52.667969 C 42.242188 53.488281 41.546875 54.207031 40.648438 54.820312 C 39.753906 55.429688 38.703125 55.90625 37.5 56.25 C 36.292969 56.59375 34.984375 56.765625 33.574219 56.765625 Z M 52.605469 46.636719 L 43.292969 46.636719 L 43.414062 46.414062 L 52.605469 46.414062 Z M 51.671875 49.984375 L 51.449219 49.984375 C 53.101562 48.355469 54.445312 47.152344 55.472656 46.371094 C 56.503906 45.59375 57.269531 45.203125 57.773438 45.203125 C 58.113281 45.203125 58.375 45.277344 58.566406 45.425781 C 58.753906 45.570312 58.851562 45.78125 58.851562 46.050781 C 58.851562 46.519531 58.59375 46.925781 58.078125 47.269531 C 57.5625 47.613281 56.9375 47.785156 56.207031 47.785156 C 55.988281 47.785156 55.761719 47.757812 55.523438 47.703125 C 55.289062 47.652344 55.128906 47.582031 55.046875 47.503906 L 54.945312 47.320312 C 55.027344 47.457031 55.222656 47.523438 55.535156 47.523438 C 55.957031 47.523438 56.363281 47.4375 56.753906 47.269531 C 57.148438 47.101562 57.472656 46.886719 57.730469 46.621094 C 57.988281 46.363281 58.117188 46.097656 58.117188 45.828125 C 58.117188 45.53125 57.949219 45.382812 57.609375 45.382812 C 57.40625 45.382812 57.09375 45.503906 56.675781 45.746094 C 56.253906 45.988281 55.769531 46.320312 55.21875 46.742188 C 54.671875 47.167969 54.089844 47.65625 53.480469 48.207031 C 52.871094 48.761719 52.269531 49.351562 51.671875 49.984375 Z M 54.070312 52.023438 C 54.476562 52.023438 54.941406 51.878906 55.460938 51.585938 C 55.984375 51.296875 56.527344 50.910156 57.089844 50.417969 C 57.652344 49.925781 58.199219 49.390625 58.726562 48.8125 L 58.972656 48.550781 L 59.175781 48.550781 L 58.992188 48.753906 C 58.464844 49.359375 57.898438 49.917969 57.292969 50.429688 C 56.691406 50.941406 56.109375 51.351562 55.542969 51.667969 C 54.984375 51.984375 54.492188 52.144531 54.070312 52.144531 C 53.8125 52.144531 53.574219 52.039062 53.347656 51.828125 C 53.125 51.621094 53.015625 51.34375 53.015625 50.992188 C 53.015625 50.671875 53.117188 50.378906 53.320312 50.113281 C 53.523438 49.851562 53.753906 49.609375 54.019531 49.378906 C 54.285156 49.148438 54.519531 48.921875 54.722656 48.691406 C 54.925781 48.464844 55.027344 48.222656 55.027344 47.964844 C 55.027344 47.832031 55.007812 47.710938 54.972656 47.601562 C 54.941406 47.496094 54.890625 47.394531 54.824219 47.300781 L 54.84375 47.179688 C 55.019531 47.339844 55.121094 47.484375 55.148438 47.613281 C 55.175781 47.742188 55.191406 47.871094 55.191406 48.007812 C 55.191406 48.355469 55.109375 48.679688 54.945312 48.976562 C 54.78125 49.269531 54.59375 49.554688 54.375 49.832031 C 54.160156 50.109375 53.96875 50.386719 53.808594 50.671875 C 53.644531 50.953125 53.5625 51.25 53.5625 51.558594 C 53.5625 51.761719 53.625 51.886719 53.753906 51.941406 C 53.882812 51.996094 53.988281 52.023438 54.070312 52.023438 Z M 60.679688 39.695312 L 56.003906 44.878906 L 55.617188 44.457031 L 64.5625 34.324219 L 66.230469 34.324219 C 65.945312 34.460938 65.574219 34.730469 65.113281 35.132812 C 64.652344 35.535156 64.152344 36.007812 63.617188 36.546875 C 63.082031 37.082031 62.558594 37.632812 62.042969 38.1875 C 61.527344 38.746094 61.074219 39.25 60.679688 39.695312 Z M 55.617188 44.457031 L 56.003906 44.878906 L 52.039062 49.277344 L 52.199219 49.277344 L 51.671875 49.984375 L 49.902344 51.960938 L 48.519531 51.960938 C 49.089844 51.519531 49.683594 50.988281 50.296875 50.375 C 50.914062 49.765625 51.496094 49.148438 52.039062 48.53125 Z M 55.617188 44.457031 "/>
</g>
<g clip-path="url(#clip4)" clip-rule="nonzero">
<path style=" stroke:none;fill-rule:nonzero;fill:rgb(83.529412%,69.803922%,38.823529%);fill-opacity:1;" d="M 19.328125 69.753906 C 19.097656 69.753906 18.886719 69.722656 18.6875 69.65625 C 18.488281 69.589844 18.34375 69.515625 18.253906 69.4375 L 18.253906 68.851562 C 18.359375 68.953125 18.492188 69.039062 18.65625 69.117188 C 18.816406 69.195312 19.011719 69.230469 19.238281 69.230469 C 19.609375 69.230469 19.910156 69.121094 20.136719 68.894531 C 20.359375 68.671875 20.472656 68.3125 20.472656 67.816406 C 20.472656 67.472656 20.417969 67.195312 20.300781 66.992188 C 20.1875 66.789062 20.035156 66.644531 19.847656 66.554688 C 19.660156 66.464844 19.457031 66.421875 19.238281 66.421875 C 19.046875 66.421875 18.886719 66.445312 18.753906 66.492188 C 18.621094 66.539062 18.5 66.589844 18.394531 66.648438 L 18.394531 69.273438 L 17.757812 69.273438 L 17.757812 66.664062 C 17.757812 66.558594 17.777344 66.476562 17.8125 66.414062 C 17.851562 66.347656 17.929688 66.285156 18.046875 66.214844 C 18.1875 66.136719 18.359375 66.0625 18.558594 65.996094 C 18.757812 65.933594 18.984375 65.898438 19.238281 65.898438 C 19.589844 65.898438 19.90625 65.964844 20.191406 66.101562 C 20.472656 66.234375 20.699219 66.441406 20.867188 66.722656 C 21.035156 67.003906 21.117188 67.371094 21.117188 67.816406 C 21.117188 68.25 21.042969 68.609375 20.890625 68.894531 C 20.738281 69.183594 20.527344 69.398438 20.257812 69.539062 C 19.988281 69.683594 19.675781 69.753906 19.328125 69.753906 Z M 18.101562 71.128906 C 17.988281 71.128906 17.90625 71.105469 17.847656 71.054688 C 17.789062 71.007812 17.757812 70.933594 17.757812 70.835938 L 17.757812 69.042969 L 18.394531 69.058594 L 18.394531 71.074219 C 18.367188 71.082031 18.328125 71.09375 18.277344 71.105469 C 18.222656 71.121094 18.164062 71.128906 18.101562 71.128906 Z M 25.011719 67.859375 L 22.335938 68.230469 L 22.304688 67.730469 L 24.707031 67.40625 C 24.6875 67.117188 24.585938 66.878906 24.40625 66.691406 C 24.222656 66.503906 23.976562 66.414062 23.65625 66.414062 C 23.328125 66.414062 23.054688 66.527344 22.839844 66.761719 C 22.625 66.996094 22.519531 67.332031 22.519531 67.769531 L 22.519531 67.945312 C 22.554688 68.367188 22.695312 68.683594 22.9375 68.902344 C 23.175781 69.121094 23.507812 69.230469 23.925781 69.230469 C 24.148438 69.230469 24.351562 69.195312 24.53125 69.121094 C 24.710938 69.046875 24.855469 68.96875 24.960938 68.882812 C 25.019531 68.921875 25.066406 68.964844 25.101562 69.015625 C 25.136719 69.066406 25.152344 69.121094 25.152344 69.183594 C 25.152344 69.285156 25.097656 69.378906 24.980469 69.464844 C 24.867188 69.550781 24.714844 69.621094 24.527344 69.675781 C 24.339844 69.726562 24.128906 69.753906 23.894531 69.753906 C 23.488281 69.753906 23.132812 69.679688 22.832031 69.53125 C 22.53125 69.386719 22.300781 69.164062 22.140625 68.871094 C 21.976562 68.582031 21.898438 68.222656 21.898438 67.800781 C 21.898438 67.503906 21.941406 67.234375 22.027344 67 C 22.117188 66.765625 22.238281 66.566406 22.394531 66.40625 C 22.550781 66.242188 22.738281 66.117188 22.957031 66.027344 C 23.175781 65.941406 23.410156 65.898438 23.664062 65.898438 C 23.988281 65.898438 24.273438 65.96875 24.519531 66.105469 C 24.765625 66.242188 24.960938 66.433594 25.101562 66.679688 C 25.242188 66.921875 25.3125 67.203125 25.3125 67.519531 C 25.3125 67.632812 25.285156 67.714844 25.234375 67.765625 C 25.179688 67.816406 25.105469 67.847656 25.011719 67.859375 Z M 26.871094 66.679688 L 26.871094 67.929688 L 26.234375 67.929688 L 26.234375 66.726562 C 26.234375 66.605469 26.257812 66.511719 26.300781 66.4375 C 26.347656 66.367188 26.425781 66.300781 26.53125 66.230469 C 26.667969 66.140625 26.855469 66.0625 27.09375 65.996094 C 27.335938 65.933594 27.597656 65.898438 27.890625 65.898438 C 28.316406 65.898438 28.527344 66.003906 28.527344 66.214844 C 28.527344 66.269531 28.519531 66.316406 28.503906 66.359375 C 28.488281 66.40625 28.464844 66.445312 28.4375 66.476562 C 28.386719 66.464844 28.316406 66.453125 28.234375 66.445312 C 28.148438 66.433594 28.0625 66.429688 27.980469 66.429688 C 27.734375 66.429688 27.519531 66.453125 27.335938 66.503906 C 27.148438 66.554688 26.996094 66.613281 26.871094 66.679688 Z M 26.234375 69.40625 L 26.234375 67.566406 L 26.871094 67.660156 L 26.871094 69.636719 C 26.847656 69.644531 26.804688 69.65625 26.753906 69.671875 C 26.699219 69.683594 26.640625 69.691406 26.578125 69.691406 C 26.464844 69.691406 26.382812 69.667969 26.324219 69.621094 C 26.265625 69.578125 26.234375 69.507812 26.234375 69.40625 Z M 30.84375 69.753906 C 30.613281 69.753906 30.402344 69.722656 30.203125 69.65625 C 30.003906 69.589844 29.859375 69.515625 29.769531 69.4375 L 29.769531 68.851562 C 29.875 68.953125 30.007812 69.039062 30.171875 69.117188 C 30.332031 69.195312 30.527344 69.230469 30.753906 69.230469 C 31.125 69.230469 31.425781 69.121094 31.652344 68.894531 C 31.875 68.671875 31.988281 68.3125 31.988281 67.816406 C 31.988281 67.472656 31.933594 67.195312 31.820312 66.992188 C 31.703125 66.789062 31.550781 66.644531 31.363281 66.554688 C 31.175781 66.464844 30.972656 66.421875 30.753906 66.421875 C 30.5625 66.421875 30.402344 66.445312 30.269531 66.492188 C 30.136719 66.539062 30.019531 66.589844 29.910156 66.648438 L 29.910156 69.273438 L 29.273438 69.273438 L 29.273438 66.664062 C 29.273438 66.558594 29.292969 66.476562 29.332031 66.414062 C 29.367188 66.347656 29.445312 66.285156 29.5625 66.214844 C 29.703125 66.136719 29.875 66.0625 30.074219 65.996094 C 30.273438 65.933594 30.5 65.898438 30.753906 65.898438 C 31.105469 65.898438 31.421875 65.964844 31.707031 66.101562 C 31.992188 66.234375 32.214844 66.441406 32.382812 66.722656 C 32.550781 67.003906 32.632812 67.371094 32.632812 67.816406 C 32.632812 68.25 32.558594 68.609375 32.40625 68.894531 C 32.253906 69.183594 32.042969 69.398438 31.773438 69.539062 C 31.503906 69.683594 31.191406 69.753906 30.84375 69.753906 Z M 29.617188 71.128906 C 29.503906 71.128906 29.421875 71.105469 29.363281 71.054688 C 29.304688 71.007812 29.273438 70.933594 29.273438 70.835938 L 29.273438 69.042969 L 29.910156 69.058594 L 29.910156 71.074219 C 29.886719 71.082031 29.84375 71.09375 29.792969 71.105469 C 29.738281 71.121094 29.679688 71.128906 29.617188 71.128906 Z M 33.683594 69.40625 L 33.683594 67.566406 L 34.320312 67.660156 L 34.320312 69.636719 C 34.292969 69.644531 34.253906 69.65625 34.203125 69.671875 C 34.148438 69.683594 34.089844 69.691406 34.027344 69.691406 C 33.914062 69.691406 33.832031 69.667969 33.773438 69.621094 C 33.714844 69.578125 33.683594 69.507812 33.683594 69.40625 Z M 34.320312 64.761719 L 34.320312 67.960938 L 33.683594 67.875 L 33.683594 64.53125 C 33.710938 64.523438 33.75 64.511719 33.808594 64.496094 C 33.863281 64.484375 33.921875 64.476562 33.980469 64.476562 C 34.09375 64.476562 34.183594 64.5 34.238281 64.542969 C 34.292969 64.589844 34.320312 64.660156 34.320312 64.761719 Z M 38.484375 67.859375 L 35.808594 68.230469 L 35.777344 67.730469 L 38.179688 67.40625 C 38.160156 67.117188 38.058594 66.878906 37.878906 66.691406 C 37.699219 66.503906 37.449219 66.414062 37.128906 66.414062 C 36.800781 66.414062 36.53125 66.527344 36.3125 66.761719 C 36.101562 66.996094 35.992188 67.332031 35.992188 67.769531 L 35.992188 67.945312 C 36.03125 68.367188 36.167969 68.683594 36.410156 68.902344 C 36.652344 69.121094 36.980469 69.230469 37.402344 69.230469 C 37.625 69.230469 37.824219 69.195312 38.007812 69.121094 C 38.1875 69.046875 38.332031 68.96875 38.4375 68.882812 C 38.496094 68.921875 38.539062 68.964844 38.574219 69.015625 C 38.609375 69.066406 38.628906 69.121094 38.628906 69.183594 C 38.628906 69.285156 38.570312 69.378906 38.457031 69.464844 C 38.339844 69.550781 38.191406 69.621094 38 69.675781 C 37.8125 69.726562 37.601562 69.753906 37.371094 69.753906 C 36.960938 69.753906 36.605469 69.679688 36.304688 69.53125 C 36.007812 69.386719 35.777344 69.164062 35.613281 68.871094 C 35.453125 68.582031 35.371094 68.222656 35.371094 67.800781 C 35.371094 67.503906 35.414062 67.234375 35.503906 67 C 35.589844 66.765625 35.710938 66.566406 35.867188 66.40625 C 36.027344 66.242188 36.210938 66.117188 36.429688 66.027344 C 36.648438 65.941406 36.882812 65.898438 37.140625 65.898438 C 37.460938 65.898438 37.746094 65.96875 37.992188 66.105469 C 38.242188 66.242188 38.433594 66.433594 38.574219 66.679688 C 38.714844 66.921875 38.785156 67.203125 38.785156 67.519531 C 38.785156 67.632812 38.761719 67.714844 38.707031 67.765625 C 38.652344 67.816406 38.578125 67.847656 38.484375 67.859375 Z M 40.816406 67.589844 L 40.933594 67.535156 C 41.152344 67.253906 41.355469 66.996094 41.546875 66.753906 C 41.738281 66.511719 41.933594 66.242188 42.136719 65.953125 C 42.15625 65.949219 42.171875 65.945312 42.183594 65.945312 C 42.195312 65.945312 42.207031 65.945312 42.226562 65.945312 C 42.335938 65.945312 42.421875 65.972656 42.484375 66.019531 C 42.550781 66.070312 42.582031 66.136719 42.582031 66.222656 C 42.582031 66.28125 42.570312 66.335938 42.546875 66.390625 C 42.523438 66.441406 42.484375 66.5 42.429688 66.570312 C 42.25 66.792969 42.066406 67.015625 41.878906 67.242188 C 41.6875 67.46875 41.503906 67.6875 41.324219 67.90625 L 41.117188 68.078125 C 40.921875 68.335938 40.71875 68.605469 40.515625 68.878906 C 40.304688 69.15625 40.105469 69.425781 39.917969 69.691406 C 39.910156 69.691406 39.894531 69.691406 39.863281 69.691406 C 39.835938 69.691406 39.8125 69.691406 39.804688 69.691406 C 39.679688 69.691406 39.589844 69.664062 39.53125 69.609375 C 39.46875 69.558594 39.4375 69.492188 39.4375 69.414062 C 39.4375 69.371094 39.449219 69.328125 39.464844 69.28125 C 39.484375 69.230469 39.527344 69.167969 39.597656 69.082031 C 39.789062 68.828125 39.988281 68.582031 40.203125 68.335938 C 40.414062 68.089844 40.617188 67.84375 40.816406 67.589844 Z M 41.203125 67.605469 L 41.347656 67.699219 C 41.566406 67.984375 41.785156 68.265625 42.003906 68.539062 C 42.226562 68.816406 42.445312 69.09375 42.664062 69.375 C 42.652344 69.472656 42.617188 69.554688 42.558594 69.609375 C 42.5 69.667969 42.421875 69.699219 42.328125 69.699219 C 42.242188 69.699219 42.171875 69.675781 42.113281 69.628906 C 42.054688 69.585938 41.988281 69.515625 41.914062 69.421875 C 41.753906 69.199219 41.585938 68.964844 41.410156 68.71875 C 41.230469 68.472656 41.0625 68.238281 40.902344 68.023438 L 40.71875 67.859375 C 40.484375 67.578125 40.269531 67.3125 40.066406 67.058594 C 39.863281 66.808594 39.65625 66.546875 39.445312 66.277344 C 39.46875 66.171875 39.507812 66.089844 39.566406 66.035156 C 39.625 65.976562 39.695312 65.945312 39.78125 65.945312 C 39.871094 65.945312 39.941406 65.96875 39.996094 66.011719 C 40.050781 66.058594 40.101562 66.117188 40.15625 66.191406 C 40.316406 66.402344 40.480469 66.632812 40.65625 66.882812 C 40.832031 67.132812 41.011719 67.375 41.203125 67.605469 Z M 46.449219 67.859375 L 43.777344 68.230469 L 43.742188 67.730469 L 46.148438 67.40625 C 46.125 67.117188 46.027344 66.878906 45.84375 66.691406 C 45.664062 66.503906 45.414062 66.414062 45.097656 66.414062 C 44.769531 66.414062 44.496094 66.527344 44.28125 66.761719 C 44.066406 66.996094 43.957031 67.332031 43.957031 67.769531 L 43.957031 67.945312 C 43.996094 68.367188 44.136719 68.683594 44.378906 68.902344 C 44.617188 69.121094 44.949219 69.230469 45.367188 69.230469 C 45.589844 69.230469 45.792969 69.195312 45.972656 69.121094 C 46.152344 69.046875 46.296875 68.96875 46.402344 68.882812 C 46.460938 68.921875 46.507812 68.964844 46.542969 69.015625 C 46.578125 69.066406 46.59375 69.121094 46.59375 69.183594 C 46.59375 69.285156 46.535156 69.378906 46.421875 69.464844 C 46.308594 69.550781 46.15625 69.621094 45.96875 69.675781 C 45.78125 69.726562 45.570312 69.753906 45.335938 69.753906 C 44.925781 69.753906 44.574219 69.679688 44.273438 69.53125 C 43.972656 69.386719 43.742188 69.164062 43.582031 68.871094 C 43.417969 68.582031 43.335938 68.222656 43.335938 67.800781 C 43.335938 67.503906 43.382812 67.234375 43.46875 67 C 43.558594 66.765625 43.679688 66.566406 43.835938 66.40625 C 43.992188 66.242188 44.179688 66.117188 44.394531 66.027344 C 44.613281 65.941406 44.851562 65.898438 45.105469 65.898438 C 45.429688 65.898438 45.714844 65.96875 45.960938 66.105469 C 46.207031 66.242188 46.402344 66.433594 46.542969 66.679688 C 46.683594 66.921875 46.753906 67.203125 46.753906 67.519531 C 46.753906 67.632812 46.726562 67.714844 46.671875 67.765625 C 46.621094 67.816406 46.546875 67.847656 46.449219 67.859375 Z M 50.183594 69.027344 L 50.183594 66.371094 L 50.820312 66.363281 L 50.820312 69.050781 C 50.820312 69.152344 50.796875 69.230469 50.75 69.292969 C 50.707031 69.351562 50.636719 69.410156 50.542969 69.46875 C 50.433594 69.539062 50.285156 69.601562 50.085938 69.664062 C 49.890625 69.722656 49.664062 69.753906 49.410156 69.753906 C 49.027344 69.753906 48.691406 69.6875 48.398438 69.554688 C 48.109375 69.425781 47.878906 69.21875 47.714844 68.933594 C 47.550781 68.652344 47.46875 68.289062 47.46875 67.84375 C 47.46875 67.382812 47.550781 67.011719 47.710938 66.726562 C 47.875 66.445312 48.09375 66.234375 48.367188 66.101562 C 48.644531 65.964844 48.945312 65.898438 49.277344 65.898438 C 49.484375 65.898438 49.679688 65.929688 49.863281 65.984375 C 50.050781 66.042969 50.195312 66.113281 50.300781 66.199219 L 50.300781 66.785156 C 50.203125 66.683594 50.070312 66.597656 49.910156 66.527344 C 49.746094 66.457031 49.558594 66.421875 49.339844 66.421875 C 49.121094 66.421875 48.921875 66.464844 48.734375 66.558594 C 48.546875 66.652344 48.398438 66.800781 48.289062 67.011719 C 48.175781 67.222656 48.121094 67.503906 48.121094 67.859375 C 48.121094 68.335938 48.238281 68.683594 48.472656 68.902344 C 48.707031 69.121094 49.015625 69.230469 49.402344 69.230469 C 49.589844 69.230469 49.742188 69.210938 49.863281 69.171875 C 49.980469 69.132812 50.085938 69.085938 50.183594 69.027344 Z M 50.820312 64.761719 L 50.820312 66.523438 L 50.183594 66.53125 L 50.183594 64.53125 C 50.210938 64.523438 50.25 64.511719 50.308594 64.496094 C 50.363281 64.484375 50.417969 64.476562 50.476562 64.476562 C 50.59375 64.476562 50.679688 64.5 50.738281 64.542969 C 50.792969 64.589844 50.820312 64.660156 50.820312 64.761719 Z M 54.289062 66.042969 C 54.332031 66.019531 54.386719 66 54.449219 65.984375 C 54.511719 65.96875 54.578125 65.960938 54.648438 65.960938 C 54.753906 65.960938 54.84375 65.980469 54.914062 66.011719 C 54.988281 66.046875 55.03125 66.097656 55.054688 66.167969 C 55.1875 66.546875 55.308594 66.898438 55.414062 67.222656 C 55.523438 67.546875 55.628906 67.859375 55.726562 68.160156 C 55.824219 68.464844 55.925781 68.777344 56.027344 69.097656 L 56.058594 69.097656 C 56.15625 68.625 56.257812 68.160156 56.351562 67.710938 C 56.449219 67.261719 56.539062 66.804688 56.628906 66.339844 C 56.71875 65.878906 56.804688 65.382812 56.878906 64.855469 C 56.953125 64.820312 57.042969 64.800781 57.148438 64.800781 C 57.25 64.800781 57.328125 64.824219 57.386719 64.867188 C 57.445312 64.914062 57.472656 64.980469 57.472656 65.070312 C 57.472656 65.167969 57.460938 65.320312 57.429688 65.523438 C 57.402344 65.726562 57.359375 65.964844 57.308594 66.234375 C 57.261719 66.503906 57.203125 66.792969 57.136719 67.09375 C 57.070312 67.398438 57 67.699219 56.925781 68.003906 C 56.851562 68.304688 56.777344 68.59375 56.703125 68.859375 C 56.628906 69.128906 56.554688 69.363281 56.488281 69.5625 C 56.4375 69.589844 56.378906 69.613281 56.304688 69.636719 C 56.230469 69.664062 56.144531 69.675781 56.050781 69.675781 C 55.933594 69.675781 55.835938 69.65625 55.753906 69.617188 C 55.675781 69.582031 55.621094 69.53125 55.59375 69.46875 C 55.519531 69.285156 55.429688 69.039062 55.324219 68.738281 C 55.21875 68.433594 55.109375 68.105469 54.992188 67.742188 C 54.878906 67.382812 54.769531 67.027344 54.664062 66.671875 C 54.5625 67.019531 54.453125 67.382812 54.339844 67.753906 C 54.222656 68.128906 54.109375 68.476562 54 68.796875 C 53.890625 69.117188 53.792969 69.375 53.710938 69.570312 C 53.671875 69.59375 53.613281 69.613281 53.539062 69.636719 C 53.460938 69.664062 53.375 69.675781 53.28125 69.675781 C 53.164062 69.675781 53.066406 69.65625 52.988281 69.613281 C 52.910156 69.574219 52.859375 69.527344 52.832031 69.46875 C 52.78125 69.335938 52.714844 69.140625 52.636719 68.875 C 52.5625 68.613281 52.480469 68.3125 52.394531 67.972656 C 52.3125 67.632812 52.226562 67.28125 52.144531 66.914062 C 52.0625 66.546875 51.984375 66.195312 51.914062 65.855469 C 51.84375 65.515625 51.785156 65.214844 51.742188 64.953125 C 51.78125 64.914062 51.832031 64.878906 51.894531 64.847656 C 51.957031 64.816406 52.027344 64.800781 52.101562 64.800781 C 52.195312 64.800781 52.269531 64.824219 52.324219 64.867188 C 52.378906 64.914062 52.414062 64.988281 52.4375 65.09375 C 52.503906 65.425781 52.570312 65.746094 52.632812 66.058594 C 52.699219 66.367188 52.761719 66.679688 52.828125 66.996094 C 52.894531 67.3125 52.964844 67.644531 53.039062 67.988281 C 53.113281 68.332031 53.195312 68.703125 53.289062 69.097656 L 53.320312 69.097656 C 53.394531 68.859375 53.464844 68.632812 53.535156 68.417969 C 53.601562 68.203125 53.675781 67.980469 53.75 67.75 C 53.824219 67.523438 53.902344 67.269531 53.992188 66.996094 C 54.078125 66.722656 54.179688 66.40625 54.289062 66.042969 Z M 61.835938 67.828125 C 61.835938 68.214844 61.761719 68.554688 61.613281 68.84375 C 61.464844 69.132812 61.253906 69.359375 60.984375 69.515625 C 60.714844 69.675781 60.394531 69.753906 60.027344 69.753906 C 59.660156 69.753906 59.34375 69.675781 59.070312 69.515625 C 58.796875 69.359375 58.585938 69.132812 58.4375 68.84375 C 58.289062 68.554688 58.214844 68.214844 58.214844 67.828125 C 58.214844 67.429688 58.289062 67.089844 58.441406 66.800781 C 58.59375 66.515625 58.804688 66.292969 59.078125 66.136719 C 59.351562 65.976562 59.667969 65.898438 60.027344 65.898438 C 60.390625 65.898438 60.707031 65.976562 60.976562 66.136719 C 61.246094 66.292969 61.457031 66.515625 61.609375 66.800781 C 61.761719 67.089844 61.835938 67.429688 61.835938 67.828125 Z M 60.027344 66.421875 C 59.671875 66.421875 59.390625 66.546875 59.179688 66.796875 C 58.972656 67.046875 58.867188 67.390625 58.867188 67.828125 C 58.867188 68.269531 58.96875 68.613281 59.171875 68.859375 C 59.375 69.109375 59.660156 69.230469 60.027344 69.230469 C 60.390625 69.230469 60.671875 69.105469 60.875 68.855469 C 61.082031 68.605469 61.183594 68.261719 61.183594 67.828125 C 61.183594 67.390625 61.082031 67.046875 60.875 66.796875 C 60.671875 66.546875 60.390625 66.421875 60.027344 66.421875 Z M 63.457031 66.679688 L 63.457031 67.929688 L 62.820312 67.929688 L 62.820312 66.726562 C 62.820312 66.605469 62.84375 66.511719 62.890625 66.4375 C 62.933594 66.367188 63.007812 66.300781 63.117188 66.230469 C 63.253906 66.140625 63.441406 66.0625 63.679688 65.996094 C 63.917969 65.933594 64.183594 65.898438 64.476562 65.898438 C 64.902344 65.898438 65.113281 66.003906 65.113281 66.214844 C 65.113281 66.269531 65.105469 66.316406 65.089844 66.359375 C 65.074219 66.40625 65.050781 66.445312 65.027344 66.476562 C 64.972656 66.464844 64.902344 66.453125 64.820312 66.445312 C 64.734375 66.433594 64.648438 66.429688 64.566406 66.429688 C 64.320312 66.429688 64.105469 66.453125 63.917969 66.503906 C 63.734375 66.554688 63.582031 66.613281 63.457031 66.679688 Z M 62.820312 69.40625 L 62.820312 67.566406 L 63.457031 67.660156 L 63.457031 69.636719 C 63.429688 69.644531 63.390625 69.65625 63.339844 69.671875 C 63.285156 69.683594 63.226562 69.691406 63.164062 69.691406 C 63.050781 69.691406 62.96875 69.667969 62.910156 69.621094 C 62.851562 69.578125 62.820312 69.507812 62.820312 69.40625 Z M 65.925781 69.40625 L 65.925781 67.566406 L 66.5625 67.660156 L 66.5625 69.636719 C 66.535156 69.644531 66.496094 69.65625 66.441406 69.671875 C 66.390625 69.683594 66.332031 69.691406 66.269531 69.691406 C 66.15625 69.691406 66.070312 69.667969 66.011719 69.621094 C 65.953125 69.578125 65.925781 69.507812 65.925781 69.40625 Z M 66.5625 64.761719 L 66.5625 67.960938 L 65.925781 67.875 L 65.925781 64.53125 C 65.953125 64.523438 65.992188 64.511719 66.050781 64.496094 C 66.105469 64.484375 66.160156 64.476562 66.21875 64.476562 C 66.335938 64.476562 66.421875 64.5 66.480469 64.542969 C 66.535156 64.589844 66.5625 64.660156 66.5625 64.761719 Z M 70.328125 69.027344 L 70.328125 66.371094 L 70.964844 66.363281 L 70.964844 69.050781 C 70.964844 69.152344 70.941406 69.230469 70.894531 69.292969 C 70.851562 69.351562 70.78125 69.410156 70.683594 69.46875 C 70.578125 69.539062 70.429688 69.601562 70.230469 69.664062 C 70.035156 69.722656 69.808594 69.753906 69.554688 69.753906 C 69.171875 69.753906 68.835938 69.6875 68.542969 69.554688 C 68.253906 69.425781 68.023438 69.21875 67.859375 68.933594 C 67.695312 68.652344 67.613281 68.289062 67.613281 67.84375 C 67.613281 67.382812 67.695312 67.011719 67.855469 66.726562 C 68.015625 66.445312 68.238281 66.234375 68.511719 66.101562 C 68.789062 65.964844 69.089844 65.898438 69.417969 65.898438 C 69.625 65.898438 69.824219 65.929688 70.007812 65.984375 C 70.195312 66.042969 70.339844 66.113281 70.445312 66.199219 L 70.445312 66.785156 C 70.347656 66.683594 70.214844 66.597656 70.050781 66.527344 C 69.890625 66.457031 69.699219 66.421875 69.484375 66.421875 C 69.265625 66.421875 69.0625 66.464844 68.878906 66.558594 C 68.691406 66.652344 68.542969 66.800781 68.433594 67.011719 C 68.320312 67.222656 68.265625 67.503906 68.265625 67.859375 C 68.265625 68.335938 68.382812 68.683594 68.617188 68.902344 C 68.847656 69.121094 69.160156 69.230469 69.546875 69.230469 C 69.734375 69.230469 69.886719 69.210938 70.003906 69.171875 C 70.125 69.132812 70.230469 69.085938 70.328125 69.027344 Z M 70.964844 64.761719 L 70.964844 66.523438 L 70.328125 66.53125 L 70.328125 64.53125 C 70.355469 64.523438 70.394531 64.511719 70.449219 64.496094 C 70.507812 64.484375 70.5625 64.476562 70.621094 64.476562 C 70.738281 64.476562 70.824219 64.5 70.878906 64.542969 C 70.9375 64.589844 70.964844 64.660156 70.964844 64.761719 Z M 70.964844 64.761719 "/>
</g>
</g>
</svg>
